{"glyphs":{"0":{"ha":753,"x_min":72,"x_max":709,"o":"m 311 -14 q 177 28 232 -12 q 97 145 122 68 q 75 317 72 222 l 79 391 l 109 583 q 231 897 140 789 q 469 1001 322 1004 q 649 912 589 998 q 705 673 709 827 q 698 578 704 624 l 671 404 q 543 85 635 189 q 311 -14 452 -18 m 627 735 q 465 932 612 928 q 286 848 355 936 q 191 593 216 760 l 161 402 q 155 256 151 320 q 202 108 160 159 q 316 54 243 56 q 487 131 418 50 q 585 373 556 212 l 618 581 q 627 735 631 664 z "},"1":{"ha":753,"x_min":182,"x_max":556,"o":"m 387 0 l 306 0 l 460 887 l 182 788 l 196 868 l 541 991 l 556 991 l 387 0 z "},"2":{"ha":753,"x_min":26,"x_max":705,"o":"m 627 0 l 26 0 l 36 66 l 463 488 q 611 734 598 625 q 577 874 622 819 q 445 932 532 930 q 281 872 350 935 q 195 703 212 810 l 117 703 q 224 919 133 835 q 448 1002 316 1003 q 638 926 570 999 q 694 741 705 853 q 526 451 680 607 l 138 68 l 639 68 l 627 0 z "},"3":{"ha":753,"x_min":39,"x_max":715,"o":"m 290 538 l 368 536 q 542 590 470 536 q 623 734 613 644 q 587 877 633 824 q 454 932 541 930 q 295 878 360 934 q 214 729 231 823 l 135 728 q 240 926 150 850 q 458 1002 331 1003 q 647 924 579 999 q 704 732 715 849 q 647 599 698 659 q 505 503 595 539 q 617 416 580 477 q 648 273 655 355 q 545 64 637 144 q 317 -14 452 -16 q 115 67 191 -11 q 48 268 39 146 l 128 268 q 173 117 120 177 q 321 55 227 58 q 491 112 423 52 q 568 271 559 171 q 528 409 576 357 q 378 467 479 460 l 364 468 l 279 469 l 290 538 z "},"4":{"ha":753,"x_min":18,"x_max":709,"o":"m 559 318 l 709 318 l 696 250 l 548 250 l 504 0 l 423 0 l 467 250 l 18 250 l 24 295 l 585 987 l 675 987 l 559 318 m 129 318 l 478 318 l 576 874 l 534 818 l 129 318 z "},"5":{"ha":753,"x_min":88,"x_max":761,"o":"m 158 507 l 279 987 l 761 987 l 749 912 l 338 912 l 249 578 q 433 632 330 633 q 621 542 555 631 q 674 319 686 454 q 572 76 661 168 q 345 -14 483 -17 q 156 64 224 -12 q 88 260 88 140 l 165 260 q 214 111 166 165 q 349 54 261 57 q 517 125 452 52 q 593 319 582 198 q 555 489 602 423 q 416 558 507 555 q 223 488 312 561 l 158 507 z "},"6":{"ha":753,"x_min":72,"x_max":677,"o":"m 648 996 l 640 924 l 618 924 q 346 820 456 921 q 183 531 235 720 q 436 648 286 651 q 570 605 514 647 q 651 490 625 564 q 668 328 677 416 q 634 194 662 259 q 563 82 607 130 q 340 -14 471 -17 q 158 65 227 -11 q 78 261 88 140 q 94 457 72 323 q 277 853 136 710 q 637 996 418 996 l 648 996 m 419 578 q 264 533 339 580 q 169 417 189 486 l 160 347 q 170 202 151 269 q 232 96 188 136 q 343 55 277 56 q 460 89 408 54 q 546 186 513 123 q 589 326 580 248 q 554 506 600 435 q 419 578 509 576 z "},"7":{"ha":753,"x_min":122,"x_max":770,"o":"m 764 941 l 210 0 l 122 0 l 673 918 l 130 918 l 140 987 l 770 987 l 764 941 z "},"8":{"ha":753,"x_min":39,"x_max":726,"o":"m 717 739 q 658 599 709 659 q 519 504 607 539 q 628 408 591 471 q 659 268 665 346 q 553 62 649 141 q 315 -14 456 -16 q 113 62 188 -11 q 49 256 39 136 q 114 408 56 342 q 271 509 172 473 q 180 600 210 542 q 156 727 151 657 q 254 926 165 849 q 473 1001 343 1004 q 658 926 589 998 q 717 739 726 854 m 578 267 q 534 412 588 355 q 390 473 480 470 q 213 412 286 474 q 130 255 140 349 q 173 111 119 166 q 319 54 226 56 q 495 111 422 52 q 578 267 568 170 m 635 740 q 596 874 644 819 q 468 932 549 930 q 310 876 374 934 q 236 728 245 817 q 275 595 228 648 q 404 541 322 542 q 561 595 494 538 q 635 740 627 652 z "},"9":{"ha":753,"x_min":100,"x_max":700,"o":"m 596 456 q 477 356 545 392 q 339 323 410 321 q 206 369 262 325 q 125 487 151 413 q 108 650 100 562 q 164 830 118 748 q 283 958 211 913 q 444 1002 356 1003 q 627 920 560 999 q 698 700 694 842 q 679 498 700 624 q 506 125 637 254 q 170 -8 374 -5 l 137 -8 l 145 62 l 172 62 q 444 162 339 65 q 596 456 549 260 m 353 393 q 499 438 430 391 q 609 568 568 485 q 618 684 618 650 q 573 864 618 800 q 441 932 527 929 q 321 897 375 933 q 232 795 267 861 q 188 653 196 729 q 198 525 180 585 q 255 430 215 465 q 353 393 294 395 z "},"\u0000":{"ha":0,"x_min":0,"x_max":0,"o":""},"\u0002":{"ha":0,"x_min":0,"x_max":0,"o":""},"\r":{"ha":334,"x_min":0,"x_max":0,"o":""}," ":{"ha":334,"x_min":0,"x_max":0,"o":""},"!":{"ha":311,"x_min":37,"x_max":294,"o":"m 165 275 l 90 275 l 210 987 l 294 987 l 165 275 m 38 47 q 57 87 39 71 q 96 103 75 103 q 135 87 119 104 q 148 47 150 71 q 130 10 146 25 q 90 -6 113 -5 q 52 8 66 -7 q 38 47 37 24 z "},"\"":{"ha":393,"x_min":144,"x_max":416,"o":"m 245 943 l 199 734 l 144 734 l 195 1042 l 260 1042 l 245 943 m 400 944 l 354 734 l 298 734 l 350 1042 l 416 1042 l 400 944 z "},"#":{"ha":790,"x_min":33,"x_max":843,"o":"m 471 278 l 269 278 l 170 0 l 100 0 l 200 278 l 33 278 l 44 341 l 222 341 l 328 640 l 145 640 l 157 705 l 351 705 l 452 987 l 522 987 l 420 705 l 623 705 l 725 987 l 794 987 l 693 705 l 843 705 l 831 640 l 670 640 l 564 341 l 730 341 l 720 278 l 541 278 l 441 0 l 372 0 l 471 278 m 290 341 l 494 341 l 601 640 l 397 640 l 290 341 z "},"$":{"ha":753,"x_min":52,"x_max":723,"o":"m 568 248 q 536 365 575 315 q 398 455 497 415 q 252 533 299 494 q 181 621 204 571 q 164 738 159 671 q 250 920 173 850 q 446 1001 326 989 l 470 1137 l 539 1137 l 515 1000 q 671 905 620 984 q 712 697 723 827 l 632 697 q 598 864 642 801 q 469 929 555 927 q 316 878 378 930 q 244 739 254 825 q 332 571 233 630 q 433 524 357 555 q 550 463 509 493 q 649 250 660 383 q 562 68 640 138 q 359 -12 483 -2 l 336 -141 l 268 -141 l 290 -12 q 157 34 212 -5 q 77 138 102 73 q 59 283 52 203 l 140 283 q 182 119 131 179 q 329 57 233 58 q 491 109 424 56 q 568 248 559 163 z "},"%":{"ha":1002,"x_min":129,"x_max":909,"o":"m 140 797 q 210 946 150 886 q 353 1002 270 1005 q 477 942 431 1000 q 517 798 523 884 l 512 752 q 442 598 502 656 q 300 542 382 539 q 176 601 223 543 q 135 745 129 659 l 140 797 m 201 744 q 224 641 196 680 q 303 600 252 602 q 397 639 359 599 q 446 745 436 679 l 451 798 q 428 902 456 863 q 350 943 400 942 q 255 903 295 945 q 206 792 214 861 l 201 744 m 526 241 q 595 389 536 330 q 739 446 654 448 q 863 386 818 444 q 903 242 909 329 l 898 189 q 827 41 888 100 q 685 -15 766 -18 q 561 45 607 -14 q 521 189 515 103 l 526 241 m 586 188 q 609 84 581 124 q 688 43 636 45 q 782 82 743 42 q 831 189 822 121 l 837 243 q 815 347 842 309 q 735 387 789 386 q 638 347 678 389 q 591 237 599 305 l 586 188 m 237 83 l 188 119 l 788 886 l 835 853 l 237 83 z "},"&":{"ha":836,"x_min":41,"x_max":771,"o":"m 290 540 l 265 584 q 216 771 209 688 q 293 939 224 874 q 464 1002 361 1003 q 602 946 550 999 q 648 813 653 892 q 492 599 639 701 l 391 528 l 602 216 q 698 441 677 316 l 771 441 q 645 155 749 272 l 748 0 l 659 0 l 593 98 q 313 -14 461 -16 q 116 59 191 -12 q 50 246 41 130 q 110 390 56 320 q 290 540 163 460 m 317 56 q 551 157 433 54 l 335 475 l 328 486 l 294 462 l 259 434 q 132 246 143 339 q 173 111 121 164 q 317 56 226 57 m 297 774 q 355 585 288 694 l 477 673 q 569 814 562 739 q 542 899 574 865 q 458 932 510 932 q 349 888 393 934 q 297 774 304 842 z "},"'":{"ha":236,"x_min":129,"x_max":249,"o":"m 233 942 l 191 739 l 129 739 l 180 1042 l 249 1042 l 233 942 z "},"(":{"ha":436,"x_min":75,"x_max":513,"o":"m 499 1107 l 513 1052 q 325 844 405 978 q 200 524 245 711 q 158 163 155 338 l 159 118 q 308 -266 174 -153 l 284 -318 q 102 -2 149 -217 q 81 266 75 129 q 147 621 89 443 q 295 922 205 798 q 499 1107 385 1046 z "},")":{"ha":446,"x_min":-84,"x_max":357,"o":"m 336 391 q 190 -50 296 136 q -70 -319 84 -237 l -84 -267 q 130 -12 44 -179 q 254 388 216 155 l 257 401 q 272 625 273 516 q 230 889 269 781 q 122 1055 191 998 l 146 1106 q 304 873 252 1029 q 349 522 357 717 q 338 402 346 458 l 336 391 z "},"*":{"ha":578,"x_min":77,"x_max":614,"o":"m 283 680 l 77 753 l 109 819 l 315 735 l 356 987 l 427 987 l 377 737 l 604 822 l 614 750 l 380 672 l 493 471 l 433 431 l 328 637 l 159 433 l 106 478 l 283 680 z "},"+":{"ha":767,"x_min":52,"x_max":724,"o":"m 432 502 l 724 502 l 710 426 l 419 426 l 362 99 l 281 99 l 338 426 l 52 426 l 65 502 l 351 502 l 406 818 l 487 818 l 432 502 z "},",":{"ha":264,"x_min":-57,"x_max":131,"o":"m -12 -185 l -57 -148 q 36 31 21 -58 l 52 127 l 131 127 l 116 30 q -12 -185 94 -98 z "},"-":{"ha":392,"x_min":31,"x_max":359,"o":"m 347 401 l 31 401 l 43 470 l 359 470 l 347 401 z "},".":{"ha":328,"x_min":31,"x_max":149,"o":"m 33 49 q 52 89 35 73 q 93 106 69 106 q 133 90 117 107 q 146 49 149 73 q 128 10 145 25 q 87 -6 111 -5 q 47 9 63 -7 q 33 49 31 24 z "},"/":{"ha":542,"x_min":-68,"x_max":595,"o":"m 9 -85 l -68 -85 l 518 987 l 595 987 l 9 -85 z "},":":{"ha":290,"x_min":20,"x_max":245,"o":"m 21 49 q 40 89 23 73 q 81 106 58 106 q 121 90 106 107 q 135 49 137 73 q 116 10 134 25 q 75 -6 99 -5 q 36 9 52 -7 q 21 49 20 24 m 130 675 q 149 715 132 699 q 190 732 166 732 q 230 716 214 733 q 243 675 245 699 q 225 636 242 651 q 184 620 208 621 q 144 635 160 619 q 130 675 128 650 z "},";":{"ha":269,"x_min":-57,"x_max":238,"o":"m 122 675 q 141 715 124 699 q 182 732 159 732 q 222 716 207 733 q 236 675 238 699 q 217 636 235 651 q 176 620 200 621 q 137 635 153 619 q 122 675 121 650 m -12 -185 l -57 -148 q 36 31 21 -58 l 52 127 l 131 127 l 116 30 q -12 -185 94 -98 z "},"<":{"ha":696,"x_min":51,"x_max":654,"o":"m 144 442 l 567 239 l 552 157 l 51 415 l 62 480 l 654 737 l 637 647 l 144 442 z "},"=":{"ha":752,"x_min":76,"x_max":688,"o":"m 675 562 l 124 562 l 137 634 l 688 634 l 675 562 m 626 283 l 76 283 l 89 355 l 639 355 l 626 283 z "},">":{"ha":705,"x_min":37,"x_max":651,"o":"m 556 449 l 123 654 l 138 734 l 651 477 l 640 412 l 37 154 l 52 243 l 556 449 z "},"?":{"ha":618,"x_min":117,"x_max":624,"o":"m 230 273 q 271 405 239 347 q 371 519 304 463 q 466 609 438 576 q 510 676 493 641 q 532 753 528 711 q 506 878 541 829 q 398 930 471 927 q 266 885 320 931 q 195 757 212 840 l 117 756 q 212 937 133 869 q 404 1002 292 1004 q 566 931 508 999 q 614 753 624 863 q 474 512 602 627 l 397 448 q 304 274 326 383 l 230 273 m 174 47 q 192 86 176 71 q 232 103 208 102 q 271 87 256 104 q 284 47 286 71 q 265 10 282 25 q 226 -6 248 -5 q 187 8 202 -7 q 174 47 172 24 z "},"@":{"ha":1237,"x_min":50,"x_max":1159,"o":"m 833 -14 q 737 22 775 -12 q 694 117 699 56 q 588 14 640 43 q 480 -14 536 -16 q 382 31 418 -12 q 342 159 346 75 q 386 406 334 277 q 517 604 437 536 q 694 671 597 672 q 786 650 746 669 q 864 598 825 631 l 772 209 l 767 157 q 784 77 764 107 q 846 44 804 46 q 972 97 918 41 q 1059 258 1026 153 q 1097 490 1092 363 q 1060 709 1101 616 q 938 850 1020 802 q 734 900 855 898 q 433 809 571 903 q 209 544 296 715 q 119 186 123 373 q 157 -41 115 60 q 281 -193 199 -141 q 477 -245 363 -245 q 705 -193 590 -248 l 721 -248 q 473 -307 618 -309 q 248 -250 344 -307 q 101 -84 153 -193 q 50 167 50 25 q 104 468 50 318 q 254 732 157 617 q 476 906 351 847 q 738 963 600 965 q 965 907 871 961 q 1109 747 1060 852 q 1159 505 1159 642 q 1116 237 1159 360 q 1000 49 1073 115 q 833 -14 926 -16 m 413 193 q 432 91 410 128 q 500 51 455 53 q 621 98 563 47 q 705 224 679 148 l 793 576 q 697 610 753 607 q 515 509 590 613 q 417 242 440 404 l 413 193 z "},"A":{"ha":848,"x_min":-54,"x_max":750,"o":"m 616 277 l 184 277 l 37 0 l -54 0 l 480 987 l 559 987 l 750 0 l 668 0 l 616 277 m 221 348 l 603 348 l 505 883 l 221 348 z "},"B":{"ha":832,"x_min":50,"x_max":785,"o":"m 50 0 l 221 987 l 499 987 q 713 917 641 983 q 774 734 785 850 q 718 599 766 656 q 585 512 669 542 q 695 428 656 490 q 728 283 734 365 q 624 77 718 155 q 379 0 530 0 l 50 0 m 215 475 l 144 71 l 382 70 q 562 126 489 70 q 646 282 635 182 q 607 420 655 368 q 468 474 559 471 l 215 475 m 227 545 l 443 544 q 615 597 549 545 q 690 737 681 650 q 497 916 707 909 l 292 916 l 227 545 z "},"C":{"ha":882,"x_min":84,"x_max":848,"o":"m 780 308 q 640 69 745 155 q 381 -14 534 -18 q 171 80 249 -11 q 86 326 92 172 q 91 431 84 379 l 109 551 q 194 792 130 687 q 348 950 257 897 q 548 1001 439 1003 q 768 911 689 998 q 846 677 848 825 l 764 678 q 707 862 764 797 q 544 930 650 928 q 315 830 410 934 q 192 545 220 727 l 172 409 l 169 348 q 192 199 168 268 q 267 95 217 131 q 385 57 316 59 q 583 116 503 53 q 699 307 662 180 l 780 308 z "},"D":{"ha":889,"x_min":50,"x_max":836,"o":"m 50 0 l 221 987 l 478 987 q 677 928 593 987 q 799 766 761 869 q 821 538 836 663 l 808 456 q 644 125 777 251 q 318 0 511 0 l 50 0 m 292 916 l 144 71 l 321 70 q 510 117 425 70 q 651 251 595 165 q 725 447 707 338 q 743 597 742 555 q 739 677 744 638 q 656 849 723 785 q 482 916 589 913 l 292 916 z "},"E":{"ha":773,"x_min":50,"x_max":816,"o":"m 663 473 l 215 473 l 144 71 l 660 71 l 648 0 l 50 0 l 221 987 l 816 987 l 803 916 l 292 916 l 227 544 l 675 544 l 663 473 z "},"F":{"ha":764,"x_min":50,"x_max":817,"o":"m 659 461 l 213 461 l 132 0 l 50 0 l 221 987 l 817 987 l 804 916 l 292 916 l 224 532 l 672 532 l 659 461 z "},"G":{"ha":928,"x_min":94,"x_max":865,"o":"m 767 117 q 623 19 717 53 q 414 -14 529 -16 q 191 81 276 -12 q 97 328 105 174 q 101 437 94 384 l 118 549 q 268 881 150 757 q 562 1001 387 1004 q 779 920 698 998 q 865 709 861 842 l 783 709 q 721 869 779 812 q 559 930 663 927 q 325 830 420 933 q 201 547 229 727 l 184 441 q 179 350 178 397 q 244 137 181 216 q 416 58 307 59 q 684 143 591 54 l 729 398 l 472 398 l 484 469 l 824 469 l 767 117 z "},"H":{"ha":960,"x_min":50,"x_max":933,"o":"m 761 0 l 677 0 l 760 473 l 215 473 l 132 0 l 50 0 l 221 987 l 304 987 l 227 544 l 772 544 l 849 987 l 933 987 l 761 0 z "},"I":{"ha":366,"x_min":67,"x_max":321,"o":"m 150 0 l 67 0 l 239 987 l 321 987 l 150 0 z "},"J":{"ha":748,"x_min":18,"x_max":734,"o":"m 650 987 l 734 987 l 615 294 q 505 70 595 156 q 278 -14 414 -17 q 84 65 151 -12 q 30 272 18 141 l 113 272 q 147 116 102 173 q 283 56 192 59 q 446 118 378 54 q 532 292 513 182 l 650 987 z "},"K":{"ha":857,"x_min":50,"x_max":900,"o":"m 355 489 l 193 350 l 132 0 l 50 0 l 221 987 l 304 987 l 212 461 l 370 604 l 789 987 l 900 987 l 418 544 l 753 0 l 659 0 l 355 489 z "},"L":{"ha":717,"x_min":50,"x_max":618,"o":"m 145 71 l 618 71 l 606 0 l 50 0 l 221 987 l 304 987 l 145 71 z "},"M":{"ha":1173,"x_min":50,"x_max":1146,"o":"m 328 987 l 530 118 l 1034 987 l 1146 987 l 975 0 l 892 0 l 967 433 l 1048 861 l 545 0 l 481 0 l 277 867 l 207 429 l 132 0 l 50 0 l 221 987 l 328 987 z "},"N":{"ha":963,"x_min":50,"x_max":936,"o":"m 765 0 l 685 0 l 280 846 l 133 0 l 50 0 l 221 987 l 301 987 l 707 140 l 854 987 l 936 987 l 765 0 z "},"O":{"ha":918,"x_min":81,"x_max":860,"o":"m 391 -14 q 172 82 253 -11 q 84 332 91 176 q 89 439 81 386 l 102 533 q 252 871 133 740 q 551 1001 373 1004 q 710 957 642 999 q 817 833 779 914 q 858 655 854 752 q 852 541 860 597 l 836 437 q 748 193 812 297 q 593 36 684 88 q 391 -14 501 -16 m 770 549 q 777 635 776 591 q 751 786 777 718 q 673 890 725 854 q 547 928 621 926 q 316 831 412 932 q 190 559 220 730 q 166 353 165 420 q 226 139 166 216 q 395 59 286 62 q 634 163 540 56 q 755 448 729 271 l 770 549 z "},"P":{"ha":836,"x_min":50,"x_max":831,"o":"m 202 402 l 132 0 l 50 0 l 221 987 l 543 987 q 756 905 681 983 q 820 697 831 827 q 708 480 806 559 q 452 401 610 401 l 202 402 m 214 473 l 455 472 q 648 532 572 472 q 737 696 724 591 q 694 855 748 797 q 541 916 640 913 l 292 916 l 214 473 z "},"Q":{"ha":918,"x_min":79,"x_max":857,"o":"m 577 34 l 724 -124 l 662 -172 l 498 1 q 387 -13 439 -13 q 229 31 296 -12 q 123 154 161 73 q 81 333 85 234 q 86 440 79 389 l 101 541 q 186 786 121 677 q 343 949 250 895 q 548 1001 436 1003 q 768 905 686 998 q 855 655 849 812 q 849 541 857 597 l 831 425 q 577 34 781 143 m 768 548 q 774 635 773 591 q 747 787 774 719 q 669 891 721 856 q 544 928 617 926 q 312 830 407 932 q 186 555 216 728 q 163 353 163 416 q 222 141 163 220 q 392 59 281 62 q 631 162 536 56 q 753 450 726 269 l 768 548 z "},"R":{"ha":862,"x_min":47,"x_max":819,"o":"m 481 411 l 203 411 l 131 0 l 47 0 l 219 987 l 511 987 q 739 910 659 987 q 806 702 819 833 q 732 531 796 603 q 562 427 668 459 l 730 9 l 729 0 l 641 0 l 481 411 m 215 482 l 459 481 q 638 543 564 481 q 724 703 712 604 q 682 855 735 798 q 524 916 628 913 l 290 916 l 215 482 z "},"S":{"ha":805,"x_min":31,"x_max":800,"o":"m 635 248 q 498 435 650 375 l 369 481 l 327 498 q 149 741 134 581 q 204 879 155 819 q 335 971 254 939 q 507 1001 416 1003 q 663 961 594 999 q 766 856 732 922 q 793 706 800 789 l 709 706 q 662 867 719 806 q 503 930 606 927 q 319 881 395 931 q 232 743 243 830 q 273 624 223 673 q 446 538 323 574 q 665 418 604 488 q 718 250 726 348 q 661 108 711 168 q 529 16 612 48 q 351 -14 446 -16 q 181 25 257 -13 q 68 129 106 63 q 38 282 31 195 l 121 282 q 176 118 111 179 q 355 56 241 58 q 547 108 469 55 q 635 248 625 161 z "},"T":{"ha":811,"x_min":121,"x_max":873,"o":"m 860 916 l 532 916 l 373 0 l 290 0 l 450 916 l 121 916 l 134 987 l 873 987 l 860 916 z "},"U":{"ha":892,"x_min":83,"x_max":886,"o":"m 886 987 l 771 319 q 640 73 747 163 q 381 -14 534 -17 q 216 30 286 -12 q 115 148 146 72 q 95 318 83 224 l 210 987 l 292 987 l 178 317 q 220 132 163 203 q 385 57 276 61 q 581 120 499 53 q 686 307 663 187 l 802 987 l 886 987 z "},"V":{"ha":838,"x_min":113,"x_max":905,"o":"m 363 122 l 365 101 l 374 122 l 811 987 l 905 987 l 393 0 l 314 0 l 113 987 l 196 987 l 363 122 z "},"W":{"ha":1215,"x_min":131,"x_max":1266,"o":"m 277 264 l 281 118 l 340 262 l 661 987 l 735 987 l 827 256 l 839 116 l 895 269 l 1179 987 l 1266 987 l 866 0 l 787 0 l 690 776 l 682 867 l 644 772 l 301 0 l 222 0 l 131 987 l 214 987 l 277 264 z "},"X":{"ha":831,"x_min":-31,"x_max":873,"o":"m 435 571 l 770 987 l 873 987 l 477 496 l 724 0 l 630 0 l 419 430 l 72 0 l -31 0 l 378 505 l 138 987 l 232 987 l 435 571 z "},"Y":{"ha":813,"x_min":118,"x_max":892,"o":"m 407 450 l 792 987 l 892 987 l 436 368 l 372 0 l 290 0 l 355 376 l 118 987 l 211 987 l 407 450 z "},"Z":{"ha":812,"x_min":-12,"x_max":829,"o":"m 102 71 l 692 71 l 679 0 l -12 0 l -1 67 l 713 916 l 163 916 l 176 987 l 829 987 l 819 924 l 102 71 z "},"[":{"ha":330,"x_min":9,"x_max":438,"o":"m 427 1059 l 289 1059 l 102 -142 l 240 -142 l 229 -212 l 9 -212 l 219 1128 l 438 1128 l 427 1059 z "},"\\":{"ha":538,"x_min":134,"x_max":422,"o":"m 134 987 l 208 987 l 422 -85 l 347 -85 l 134 987 z "},"]":{"ha":330,"x_min":-98,"x_max":332,"o":"m 112 1128 l 332 1128 l 122 -212 l -98 -212 l -86 -142 l 52 -142 l 240 1059 l 101 1059 l 112 1128 z "},"^":{"ha":567,"x_min":63,"x_max":517,"o":"m 361 878 l 144 494 l 63 494 l 345 987 l 406 987 l 517 494 l 443 494 l 361 878 z "},"_":{"ha":588,"x_min":-83,"x_max":511,"o":"m 499 -68 l -83 -68 l -71 0 l 511 0 l 499 -68 z "},"`":{"ha":391,"x_min":169,"x_max":356,"o":"m 356 852 l 288 852 l 169 1042 l 260 1042 l 356 852 z "},"a":{"ha":728,"x_min":25,"x_max":645,"o":"m 488 0 q 486 52 484 26 l 492 102 q 375 16 441 47 q 234 -14 310 -15 q 83 45 141 -12 q 31 189 25 102 q 81 315 37 262 q 208 398 125 368 q 391 427 290 427 l 541 427 l 553 511 q 521 631 562 586 q 401 680 480 677 q 261 640 321 681 q 187 532 202 599 l 108 532 q 207 689 121 628 q 409 748 292 749 q 584 680 522 745 q 633 509 645 614 l 572 140 l 567 81 q 572 8 565 44 l 571 0 l 488 0 m 248 58 q 390 93 322 55 q 503 202 458 132 l 531 364 l 401 365 q 200 321 278 365 q 114 196 122 277 q 145 98 108 136 q 248 58 183 59 z "},"b":{"ha":753,"x_min":31,"x_max":675,"o":"m 669 363 q 557 85 645 189 q 340 -14 469 -18 q 213 18 268 -13 q 130 100 159 48 l 106 0 l 31 0 l 212 1042 l 292 1042 l 215 627 q 453 747 309 751 q 615 669 558 745 q 674 461 672 594 q 670 378 675 418 l 669 363 m 589 379 l 594 444 q 555 614 596 554 q 434 677 515 675 q 201 527 286 680 l 146 195 q 213 93 165 129 q 330 56 261 58 q 499 134 431 54 q 589 379 567 214 z "},"c":{"ha":701,"x_min":48,"x_max":659,"o":"m 315 54 q 457 99 395 52 q 538 226 518 146 l 615 226 q 508 50 595 117 q 311 -14 422 -17 q 162 35 222 -12 q 75 164 102 81 q 58 351 48 247 l 60 380 q 95 518 68 451 q 167 637 122 585 q 274 719 212 689 q 414 747 336 749 q 593 671 526 745 q 655 486 659 598 l 578 486 q 534 623 580 571 q 410 678 489 675 q 262 629 326 681 q 165 484 197 578 q 134 283 132 389 q 183 116 136 174 q 315 54 230 57 z "},"d":{"ha":755,"x_min":58,"x_max":755,"o":"m 64 369 q 127 573 79 484 q 243 706 174 663 q 397 747 312 749 q 516 717 463 746 q 601 630 570 688 l 675 1042 l 755 1042 l 574 0 l 499 0 l 517 98 q 280 -14 422 -18 q 120 66 178 -11 q 59 273 62 143 q 62 355 58 315 l 64 369 m 145 355 q 141 258 140 310 q 184 112 144 165 q 299 56 224 59 q 431 91 374 54 q 528 189 488 127 l 587 534 q 522 638 567 600 q 407 677 477 675 q 235 598 304 681 q 146 370 166 516 l 145 355 z "},"e":{"ha":703,"x_min":45,"x_max":659,"o":"m 322 -14 q 170 36 234 -12 q 75 166 105 83 q 54 344 45 248 l 56 367 q 116 561 65 469 q 245 701 167 652 q 412 747 323 749 q 550 703 494 746 q 633 582 607 659 q 649 411 659 505 l 644 361 l 136 361 l 134 345 q 144 204 123 271 q 213 97 165 136 q 328 56 261 57 q 446 81 393 54 q 542 153 498 108 l 589 115 q 472 18 540 51 q 322 -14 404 -15 m 408 678 q 250 616 319 682 q 144 431 180 550 l 570 430 l 572 440 q 538 606 585 536 q 408 678 492 675 z "},"f":{"ha":453,"x_min":85,"x_max":564,"o":"m 87 0 l 203 667 l 85 667 l 98 734 l 215 734 l 229 833 q 312 1000 246 941 q 475 1058 377 1059 q 564 1044 514 1057 l 549 977 q 477 987 511 987 q 365 943 409 987 q 309 821 320 899 l 296 734 l 466 734 l 454 667 l 285 667 l 169 0 l 87 0 z "},"g":{"ha":754,"x_min":12,"x_max":703,"o":"m 397 748 q 517 717 463 746 q 602 628 571 688 l 627 734 l 703 734 l 579 13 q 521 -150 566 -79 q 405 -258 475 -220 q 247 -293 334 -296 q 115 -258 178 -292 q 12 -164 51 -224 l 62 -117 q 245 -224 132 -222 q 413 -164 345 -227 q 498 9 480 -100 l 515 94 q 280 -14 418 -18 q 120 65 177 -11 q 60 273 62 142 q 100 513 56 395 q 222 691 145 632 q 397 748 299 751 m 144 355 l 140 292 q 179 120 138 180 q 299 56 220 59 q 426 88 367 54 q 528 191 485 123 l 585 533 q 522 637 567 599 q 406 677 477 675 q 234 597 302 681 q 144 355 166 514 z "},"h":{"ha":746,"x_min":31,"x_max":664,"o":"m 212 610 q 462 747 318 750 q 616 673 568 745 q 650 477 664 602 l 570 0 l 490 0 l 570 479 q 571 553 574 517 q 439 677 559 674 q 307 635 368 679 q 198 503 245 591 l 111 0 l 31 0 l 212 1042 l 292 1042 l 212 610 z "},"i":{"ha":309,"x_min":40,"x_max":301,"o":"m 121 0 l 40 0 l 168 734 l 249 734 l 121 0 m 191 946 q 249 1002 194 990 q 287 985 275 997 q 301 946 298 973 q 281 908 294 920 q 243 891 269 897 q 191 946 188 899 z "},"j":{"ha":314,"x_min":-187,"x_max":299,"o":"m 245 734 l 106 -87 q 35 -245 92 -190 q -113 -298 -23 -301 q -187 -284 -142 -298 l -178 -217 q -118 -227 -140 -227 q 26 -84 1 -230 l 165 734 l 245 734 m 189 946 q 206 985 190 968 q 245 1002 222 1001 q 284 986 269 1002 q 298 946 299 970 q 279 907 296 923 q 239 891 262 892 q 201 906 216 890 q 189 946 186 922 z "},"k":{"ha":667,"x_min":31,"x_max":689,"o":"m 269 368 l 160 277 l 112 0 l 31 0 l 212 1042 l 293 1042 l 178 381 l 262 458 l 581 734 l 689 734 l 328 421 l 581 0 l 492 0 l 269 368 z "},"l":{"ha":309,"x_min":40,"x_max":302,"o":"m 121 0 l 40 0 l 221 1042 l 302 1042 l 121 0 z "},"m":{"ha":1201,"x_min":27,"x_max":1118,"o":"m 233 734 l 210 614 q 458 747 309 750 q 587 709 536 746 q 650 605 638 671 q 767 711 701 673 q 913 747 834 749 q 1068 679 1017 745 q 1109 494 1118 612 l 1108 478 l 1027 0 l 947 0 l 1027 479 q 1027 555 1031 519 q 890 677 1014 675 q 738 624 808 679 q 651 486 669 568 l 567 0 l 486 0 l 568 486 q 430 677 587 673 q 285 629 352 679 q 195 504 218 578 l 108 0 l 27 0 l 155 734 l 233 734 z "},"n":{"ha":747,"x_min":31,"x_max":664,"o":"m 236 734 l 212 608 q 325 712 260 676 q 462 747 389 749 q 616 673 568 745 q 650 477 664 602 l 570 0 l 490 0 l 570 479 q 571 553 574 517 q 439 677 559 674 q 307 635 368 679 q 198 503 245 591 l 111 0 l 31 0 l 159 734 l 236 734 z "},"o":{"ha":762,"x_min":45,"x_max":697,"o":"m 51 374 q 116 569 63 480 q 248 703 169 657 q 419 747 327 749 q 574 697 510 746 q 668 565 638 649 q 688 380 697 481 l 686 367 q 563 88 666 193 q 317 -14 460 -17 q 119 77 193 -12 q 47 312 45 166 l 49 351 l 51 374 m 130 351 q 141 202 121 270 q 208 95 162 134 q 321 54 253 56 q 455 92 394 53 q 555 201 515 130 q 606 357 594 271 l 608 379 q 567 593 620 510 q 415 678 515 676 q 228 594 307 682 q 131 363 149 507 l 130 351 z "},"p":{"ha":753,"x_min":-18,"x_max":674,"o":"m 339 -14 q 220 13 276 -13 q 130 92 164 38 l 62 -282 l -18 -282 l 158 734 l 233 734 l 214 630 q 453 747 309 751 q 614 671 556 745 q 673 461 671 597 q 669 378 674 418 l 667 359 q 603 155 650 241 q 489 26 556 68 q 339 -14 422 -16 m 589 378 l 593 443 q 553 613 595 551 q 431 677 512 675 q 301 643 359 679 q 203 537 243 606 l 143 184 q 212 89 165 121 q 325 54 259 56 q 491 128 423 51 q 583 342 559 205 l 589 378 z "},"q":{"ha":758,"x_min":58,"x_max":702,"o":"m 64 370 q 177 648 88 545 q 398 747 265 751 q 516 719 463 746 q 602 634 570 691 l 626 734 l 702 734 l 526 -282 l 445 -282 l 514 91 q 281 -14 420 -18 q 120 65 178 -11 q 60 273 62 140 q 63 355 58 315 l 64 370 m 145 355 l 140 292 q 179 119 138 180 q 300 54 219 57 q 425 85 367 52 q 526 181 483 118 l 587 542 q 521 640 566 604 q 408 678 476 676 q 234 596 302 682 q 146 370 165 511 l 145 355 z "},"r":{"ha":460,"x_min":31,"x_max":490,"o":"m 479 665 q 426 671 453 671 q 284 624 349 671 q 198 505 220 577 l 111 0 l 31 0 l 159 734 l 238 734 l 214 617 q 310 716 254 682 q 435 749 367 750 q 490 739 458 749 l 479 665 z "},"s":{"ha":689,"x_min":31,"x_max":629,"o":"m 495 191 q 381 327 506 285 l 264 361 q 113 543 104 416 q 197 691 117 634 q 387 747 277 749 q 562 687 494 746 q 624 528 629 627 l 544 528 q 503 635 548 594 q 383 678 458 677 q 253 642 306 678 q 193 546 200 606 q 300 423 183 458 l 385 399 l 431 383 q 575 195 584 326 q 499 51 570 107 q 316 -13 428 -6 l 288 -14 q 155 15 214 -12 q 63 92 95 43 q 35 206 31 142 l 116 205 q 163 96 116 136 q 292 55 210 56 q 430 92 373 55 q 495 191 487 129 z "},"t":{"ha":439,"x_min":59,"x_max":430,"o":"m 315 922 l 283 734 l 430 734 l 418 667 l 271 667 l 190 178 l 189 136 q 256 60 189 62 q 322 64 277 59 l 319 -2 q 237 -12 279 -14 q 134 38 166 -11 q 110 178 101 86 l 191 667 l 59 667 l 71 734 l 201 734 l 235 922 l 315 922 z "},"u":{"ha":747,"x_min":71,"x_max":705,"o":"m 518 92 q 277 -14 431 -18 q 122 61 173 -12 q 85 264 71 134 l 164 734 l 244 734 l 166 262 q 165 189 162 225 q 203 93 170 127 q 292 57 235 59 q 443 95 374 54 q 532 202 512 136 l 623 734 l 705 734 l 577 0 l 498 0 l 518 92 z "},"v":{"ha":654,"x_min":77,"x_max":675,"o":"m 277 115 l 590 734 l 675 734 l 295 0 l 229 0 l 77 734 l 157 734 l 277 115 z "},"w":{"ha":1023,"x_min":100,"x_max":1029,"o":"m 232 169 l 232 111 l 258 174 l 526 734 l 595 734 l 668 173 l 672 104 l 700 174 l 943 734 l 1029 734 l 694 0 l 625 0 l 544 582 l 543 623 l 528 581 l 247 0 l 178 0 l 100 734 l 176 734 l 232 169 z "},"x":{"ha":662,"x_min":-35,"x_max":667,"o":"m 328 437 l 566 734 l 667 734 l 366 370 l 557 0 l 468 0 l 315 309 l 64 0 l -35 0 l 278 378 l 94 734 l 184 734 l 328 437 z "},"y":{"ha":647,"x_min":-60,"x_max":681,"o":"m 277 119 l 591 734 l 681 734 l 233 -118 q 129 -258 184 -217 q 5 -298 73 -300 q -60 -288 -20 -297 l -52 -221 l -11 -226 q 169 -92 103 -231 l 220 11 l 79 734 l 163 734 l 277 119 z "},"z":{"ha":662,"x_min":-14,"x_max":646,"o":"m 100 68 l 559 68 l 547 0 l -14 0 l -3 64 l 530 664 l 114 664 l 126 734 l 646 734 l 635 669 l 100 68 z "},"{":{"ha":452,"x_min":39,"x_max":534,"o":"m 323 -273 q 174 -157 221 -238 q 140 39 127 -76 l 161 193 q 161 260 165 229 q 39 368 147 360 l 47 437 q 229 610 203 444 l 252 777 q 522 1084 289 1014 l 534 1030 q 332 763 361 971 l 309 600 q 155 401 284 456 q 242 254 234 357 q 241 193 244 223 l 220 39 q 218 -43 215 -3 q 343 -219 227 -174 l 323 -273 z "},"|":{"ha":304,"x_min":24,"x_max":275,"o":"m 92 -183 l 24 -183 l 207 987 l 275 987 l 92 -183 z "},"}":{"ha":452,"x_min":-92,"x_max":404,"o":"m -92 -220 q 113 48 84 -160 l 134 206 q 294 406 159 352 q 230 462 254 425 q 201 551 206 500 q 202 613 199 582 l 222 768 q 225 850 227 810 q 191 961 222 915 q 104 1029 160 1008 l 125 1082 q 271 966 224 1046 q 303 768 317 886 l 283 612 q 283 546 279 576 q 404 440 296 446 l 396 370 q 212 186 236 363 l 191 30 q -79 -275 155 -205 l -92 -220 z "},"~":{"ha":929,"x_min":80,"x_max":841,"o":"m 841 518 q 768 348 828 413 q 620 286 707 283 q 462 357 539 288 l 401 416 q 298 462 349 462 q 151 306 178 464 l 80 304 q 153 474 93 411 q 301 535 213 536 q 456 467 380 533 l 520 406 q 624 358 571 359 q 720 397 680 357 q 774 517 760 438 l 841 518 z "},"¡":{"ha":304,"x_min":-3,"x_max":253,"o":"m 124 468 l 199 468 l 80 -243 l -3 -243 l 124 468 m 251 693 q 233 655 250 671 q 193 638 216 639 q 155 653 170 637 q 141 693 140 669 q 160 732 143 716 q 199 748 176 747 q 238 733 223 749 q 251 693 253 717 z "},"¢":{"ha":741,"x_min":64,"x_max":680,"o":"m 328 54 q 471 98 410 52 q 554 226 532 145 l 631 226 q 537 64 612 128 q 355 -12 463 1 l 326 -166 l 245 -166 l 275 -9 q 168 39 209 3 q 76 233 88 108 q 99 471 64 353 q 213 660 134 589 q 401 745 293 731 l 429 894 l 511 894 l 481 744 q 628 657 577 727 q 675 486 680 587 l 599 486 q 557 623 602 570 q 433 678 512 675 q 244 591 319 682 q 154 338 170 500 l 152 284 q 197 117 152 177 q 328 54 242 57 z "},"£":{"ha":777,"x_min":-7,"x_max":770,"o":"m 272 437 l 247 255 q 171 69 231 136 l 663 71 l 650 0 l -7 0 l 5 70 l 67 69 q 164 249 144 98 l 189 437 l 66 437 l 78 508 l 199 508 l 224 699 q 328 922 243 840 q 536 1002 414 1004 q 709 926 648 999 q 759 738 770 853 l 676 738 q 646 874 685 821 q 526 930 607 928 q 381 870 441 932 q 307 695 322 808 l 282 508 l 509 508 l 496 437 l 272 437 z "},"¤":{"ha":981,"x_min":8,"x_max":973,"o":"m 694 89 q 420 -14 564 -16 q 289 14 352 -12 q 180 90 227 39 l 58 -18 l 8 45 l 132 151 q 96 408 77 272 q 229 685 117 562 l 139 802 l 202 858 l 291 743 q 555 837 420 840 q 682 811 621 836 q 789 741 743 787 l 923 858 l 973 794 l 840 679 q 879 416 898 553 q 753 151 861 271 l 842 37 l 778 -19 l 694 89 m 171 406 q 176 283 163 344 q 221 173 189 222 q 305 94 254 125 q 425 60 357 62 q 598 106 515 58 q 736 239 681 155 q 804 418 791 323 q 786 585 815 505 q 694 712 756 665 q 550 762 633 759 q 380 719 462 764 q 241 588 299 673 q 171 406 184 503 z "},"¥":{"ha":701,"x_min":38,"x_max":782,"o":"m 360 498 l 685 987 l 782 987 l 431 478 l 635 478 l 624 418 l 389 418 l 364 279 l 600 279 l 589 220 l 355 220 l 316 0 l 233 0 l 271 220 l 38 220 l 49 279 l 281 279 l 306 418 l 73 418 l 83 478 l 292 478 l 118 987 l 207 987 l 360 498 z "},"¦":{"ha":299,"x_min":1,"x_max":286,"o":"m 1 -183 l 92 340 l 174 340 l 82 -183 l 1 -183 m 196 473 l 115 473 l 205 987 l 286 987 l 196 473 z "},"§":{"ha":822,"x_min":-16,"x_max":792,"o":"m 723 298 q 538 105 711 163 q 627 -89 637 37 q 575 -222 621 -166 q 451 -308 529 -278 q 283 -336 373 -338 q 63 -256 142 -334 q -5 -43 -16 -178 l 76 -42 q 123 -204 66 -142 q 287 -267 180 -265 q 460 -222 387 -270 q 545 -91 534 -174 q 516 11 551 -31 q 396 81 481 52 l 286 117 l 232 138 q 71 368 57 212 q 250 562 82 503 q 166 754 155 631 q 219 887 172 830 q 343 973 266 943 q 511 1001 421 1003 q 720 919 647 998 q 779 709 792 840 l 699 709 q 656 868 709 807 q 507 932 604 929 q 329 886 399 933 q 248 756 258 839 q 368 591 233 643 l 527 536 q 682 440 635 498 q 723 298 730 383 m 417 494 l 328 524 q 152 370 169 497 q 181 263 143 307 q 331 184 219 219 q 453 144 443 149 q 584 196 536 157 q 641 295 633 235 q 608 402 649 357 q 460 481 566 447 l 417 494 z "},"¨":{"ha":587,"x_min":172,"x_max":574,"o":"m 174 947 q 193 986 175 970 q 231 1002 210 1002 q 270 987 255 1003 q 284 947 286 970 q 266 909 283 926 q 226 892 249 892 q 188 908 203 892 q 174 947 172 923 m 462 946 q 481 985 463 969 q 519 1002 498 1002 q 558 986 543 1002 q 572 946 574 970 q 553 908 570 924 q 514 892 536 892 q 476 907 491 892 q 462 946 460 922 z "},"©":{"ha":1084,"x_min":76,"x_max":1042,"o":"m 747 412 q 673 252 734 309 q 517 198 612 195 q 370 275 420 201 q 329 461 319 350 l 334 514 q 417 716 348 642 q 589 789 487 791 q 730 730 682 787 q 771 576 779 673 l 705 576 q 586 729 717 726 q 465 674 514 730 q 404 527 415 618 l 397 460 q 421 317 388 373 q 519 259 454 261 q 682 411 654 254 l 747 412 m 149 381 q 257 140 163 234 q 486 44 351 45 q 736 121 618 41 q 919 335 854 200 q 970 608 984 470 q 912 780 959 704 q 794 898 866 857 q 632 942 722 940 q 443 901 534 944 q 278 773 351 857 q 172 586 206 690 q 149 381 138 482 m 92 490 q 183 744 106 623 q 380 934 260 864 q 633 1001 499 1004 q 850 933 754 1000 q 994 747 947 866 q 1026 498 1042 628 q 929 238 1009 359 q 732 50 850 117 q 486 -14 614 -17 q 266 55 361 -12 q 123 241 171 122 q 92 490 76 361 z "},"ª":{"ha":603,"x_min":138,"x_max":561,"o":"m 446 477 q 444 541 441 509 q 290 468 376 468 q 179 508 220 468 q 142 610 138 548 q 208 731 145 688 q 380 774 271 774 l 473 773 l 479 815 q 479 861 481 839 q 395 936 469 934 q 306 914 344 937 q 256 840 269 891 l 185 844 q 254 960 195 918 q 399 1002 313 1003 q 520 948 479 999 q 553 814 561 897 l 520 601 q 517 477 510 538 l 446 477 m 305 532 q 446 603 382 532 l 467 718 l 381 718 q 265 691 309 718 q 216 614 222 663 q 237 553 213 574 q 305 532 260 532 z "},"«":{"ha":621,"x_min":72,"x_max":590,"o":"m 155 359 l 289 100 l 224 100 l 72 357 l 73 370 l 309 627 l 387 627 l 155 359 m 358 359 l 492 100 l 428 100 l 275 357 l 277 370 l 513 627 l 590 627 l 358 359 z "},"¬":{"ha":741,"x_min":89,"x_max":637,"o":"m 591 262 l 511 262 l 545 454 l 89 454 l 102 526 l 637 526 l 591 262 z "},"®":{"ha":1087,"x_min":73,"x_max":1040,"o":"m 88 490 q 183 749 105 630 q 379 936 261 867 q 629 1001 498 1004 q 846 933 749 1000 q 991 748 943 867 q 1024 498 1040 629 q 964 300 1012 396 q 840 132 916 204 q 671 22 764 60 q 482 -14 578 -16 q 262 55 357 -12 q 120 241 168 122 q 88 490 73 361 m 145 381 q 254 140 160 235 q 483 44 347 45 q 671 85 580 42 q 835 212 762 127 q 942 399 907 296 q 966 608 977 503 q 911 778 957 701 q 792 898 865 855 q 629 942 718 940 q 439 901 532 944 q 276 775 347 857 q 169 589 205 692 q 145 381 134 486 m 444 452 l 407 218 l 340 218 l 430 787 l 595 786 q 732 741 686 783 q 774 623 779 699 q 661 482 767 534 q 724 387 718 454 l 723 345 q 717 271 716 294 l 718 229 l 717 218 l 650 218 q 648 267 647 242 l 652 315 l 656 345 q 642 422 661 396 q 571 451 623 448 l 444 452 m 453 513 l 569 513 q 664 543 625 514 q 710 622 704 572 q 595 725 724 724 l 487 726 l 453 513 z "},"¯":{"ha":582,"x_min":168,"x_max":587,"o":"m 577 911 l 168 911 l 178 977 l 587 977 l 577 911 z "},"°":{"ha":516,"x_min":166,"x_max":492,"o":"m 169 825 q 225 950 172 897 q 347 1002 278 1003 q 451 952 409 1000 q 490 838 492 904 q 435 714 487 766 q 315 664 383 663 q 208 713 250 665 q 169 825 166 762 m 230 827 q 251 755 226 785 q 316 726 276 726 q 393 758 361 726 q 429 836 425 790 q 410 909 433 878 q 345 940 387 940 q 268 908 301 940 q 230 827 235 876 z "},"±":{"ha":720,"x_min":20,"x_max":684,"o":"m 426 562 l 684 562 l 672 493 l 415 493 l 368 196 l 294 196 l 340 493 l 68 493 l 79 562 l 351 562 l 397 859 l 473 859 l 426 562 m 571 0 l 20 0 l 31 68 l 582 68 l 571 0 z "},"²":{"ha":494,"x_min":70,"x_max":490,"o":"m 447 451 l 70 451 l 79 505 l 331 723 q 412 846 406 789 q 393 912 418 889 q 326 936 368 936 q 237 906 271 937 q 192 825 203 876 l 122 825 q 190 950 133 903 q 327 995 247 996 q 447 953 403 994 q 486 846 490 912 q 380 681 481 768 l 337 644 l 173 510 l 458 510 l 447 451 z "},"³":{"ha":494,"x_min":80,"x_max":498,"o":"m 234 750 l 286 750 q 383 779 346 752 q 422 846 418 805 q 400 912 427 888 q 329 935 373 935 q 249 913 283 936 q 203 846 215 890 l 132 845 q 198 956 142 915 q 330 995 253 996 q 452 954 406 994 q 494 848 498 914 q 379 722 489 768 q 464 602 468 692 q 401 486 460 530 q 258 444 342 442 q 129 487 178 445 q 83 600 80 530 l 153 600 q 180 530 151 557 q 261 503 209 503 q 353 531 317 503 q 394 604 389 558 q 283 694 403 691 l 228 695 l 234 750 z "},"´":{"ha":386,"x_min":148,"x_max":406,"o":"m 303 1042 l 406 1041 l 224 852 l 148 852 l 303 1042 z "},"µ":{"ha":757,"x_min":-14,"x_max":702,"o":"m 243 734 l 172 304 l 168 250 l 168 218 q 298 54 174 59 q 446 94 380 52 q 532 211 511 136 l 621 734 l 702 734 l 574 0 l 501 0 l 519 104 q 299 -14 437 -16 q 130 72 180 -10 l 66 -282 l -14 -282 l 163 734 l 243 734 z "},"¶":{"ha":647,"x_min":93,"x_max":636,"o":"m 384 0 l 446 353 l 389 353 q 169 441 245 355 q 108 665 93 527 q 227 899 123 810 q 481 988 330 988 l 636 987 l 465 0 l 384 0 z "},"·":{"ha":338,"x_min":119,"x_max":235,"o":"m 121 486 q 139 526 122 510 q 180 543 156 543 q 220 527 205 543 q 234 486 235 511 q 215 447 232 463 q 174 430 197 431 q 134 446 149 429 q 121 486 119 462 z "},"¸":{"ha":334,"x_min":-51,"x_max":170,"o":"m 89 0 l 74 -45 q 165 -155 170 -62 q 105 -258 162 -221 q -51 -296 47 -294 l -50 -243 q 54 -218 15 -241 q 98 -157 93 -196 q 35 -91 104 -103 l -3 -85 l 28 0 l 89 0 z "},"¹":{"ha":494,"x_min":159,"x_max":404,"o":"m 313 451 l 242 451 l 320 899 l 159 852 l 170 916 l 393 987 l 404 987 l 313 451 z "},"º":{"ha":613,"x_min":137,"x_max":589,"o":"m 397 1002 q 538 933 488 999 q 580 768 589 868 l 573 701 q 493 530 560 596 q 329 467 427 465 q 187 535 237 470 q 144 701 137 600 l 151 760 q 231 938 162 871 q 397 1002 300 1004 m 219 699 q 241 578 211 624 q 333 532 272 533 q 444 576 398 529 q 500 707 490 624 l 507 768 q 484 889 514 843 q 393 937 453 935 q 280 889 325 938 q 226 762 235 841 l 219 699 z "},"»":{"ha":617,"x_min":20,"x_max":545,"o":"m 183 640 l 335 381 l 334 368 l 98 110 l 20 110 l 252 377 l 118 640 l 183 640 m 393 640 l 545 381 l 544 368 l 308 110 l 231 110 l 462 377 l 328 640 l 393 640 z "},"¼":{"ha":983,"x_min":151,"x_max":884,"o":"m 305 450 l 234 450 l 312 898 l 151 851 l 162 915 l 385 986 l 396 986 l 305 450 m 222 88 l 173 124 l 773 891 l 819 858 l 222 88 m 800 186 l 884 186 l 873 127 l 789 127 l 767 0 l 696 0 l 719 127 l 458 127 l 460 171 l 783 535 l 861 535 l 800 186 m 543 186 l 728 186 l 778 448 l 751 413 l 543 186 z "},"½":{"ha":1025,"x_min":141,"x_max":918,"o":"m 193 88 l 144 124 l 744 891 l 790 858 l 193 88 m 296 450 l 224 450 l 302 898 l 141 851 l 153 915 l 375 986 l 387 986 l 296 450 m 875 0 l 498 0 l 507 54 l 759 272 q 840 395 833 338 q 821 461 846 438 q 754 485 796 485 q 665 455 699 486 q 620 374 631 425 l 550 374 q 618 499 561 452 q 755 544 675 545 q 874 502 831 543 q 913 395 918 461 q 808 230 909 317 l 765 193 l 601 59 l 886 59 l 875 0 z "},"¾":{"ha":1053,"x_min":111,"x_max":959,"o":"m 317 88 l 268 124 l 868 891 l 914 858 l 317 88 m 875 186 l 959 186 l 948 127 l 865 127 l 842 0 l 771 0 l 794 127 l 533 127 l 536 171 l 858 535 l 936 535 l 875 186 m 618 186 l 804 186 l 853 448 l 827 413 l 618 186 m 264 750 l 316 750 q 414 779 376 752 q 453 846 449 805 q 430 912 457 888 q 359 935 404 935 q 280 913 314 936 q 233 846 245 890 l 163 845 q 228 956 173 915 q 360 995 283 996 q 483 954 436 994 q 524 848 529 914 q 410 722 519 768 q 494 602 498 692 q 432 486 491 530 q 288 444 373 442 q 159 487 208 445 q 113 600 111 530 l 183 600 q 210 530 181 557 q 292 503 239 503 q 384 531 347 503 q 425 604 420 558 q 313 694 433 691 l 258 695 l 264 750 z "},"¿":{"ha":625,"x_min":-18,"x_max":493,"o":"m 376 467 q 337 343 366 393 q 252 243 309 294 q 181 180 195 193 q 74 -12 85 89 q 102 -140 65 -92 q 214 -189 140 -188 q 342 -146 288 -192 q 414 -14 395 -100 l 493 -14 q 399 -196 476 -129 q 208 -260 321 -263 q 40 -188 98 -258 q -7 -12 -18 -118 q 134 237 5 118 l 228 318 q 298 466 281 371 l 376 467 m 429 693 q 410 654 427 670 q 371 637 392 637 q 332 653 347 637 q 319 693 317 669 q 338 731 321 715 q 377 747 355 747 q 415 732 400 748 q 429 693 431 717 z "},"Æ":{"ha":1234,"x_min":-63,"x_max":1261,"o":"m 1130 0 l 591 0 l 625 264 l 237 264 l 40 0 l -63 0 l 688 987 l 1261 987 l 1249 918 l 792 918 l 743 549 l 1131 549 l 1119 479 l 734 479 l 680 68 l 1142 68 l 1130 0 m 294 340 l 636 340 l 710 895 l 294 340 z "},"×":{"ha":712,"x_min":12,"x_max":661,"o":"m 12 125 l 290 373 l 105 610 l 164 661 l 347 424 l 614 661 l 661 602 l 393 366 l 587 117 l 528 67 l 336 314 l 58 68 l 12 125 z "},"Ø":{"ha":918,"x_min":28,"x_max":949,"o":"m 390 -14 q 191 52 269 -12 l 104 -56 l 28 -56 l 148 92 q 81 350 79 198 q 106 558 82 416 q 204 810 131 701 q 385 968 277 920 q 551 1001 463 1003 q 677 977 616 1000 q 782 906 737 954 l 873 1020 l 949 1020 l 819 859 q 858 705 851 785 q 853 547 865 625 l 838 450 q 751 198 816 304 q 594 38 686 91 q 395 -14 503 -16 l 390 -14 m 163 369 q 197 159 157 245 l 733 841 q 548 929 670 926 q 311 826 408 932 q 186 539 215 720 l 168 416 l 163 369 m 781 669 q 764 787 781 728 l 237 114 q 395 58 296 62 q 558 100 484 56 q 684 233 632 143 q 756 453 736 323 q 778 611 776 583 q 781 669 780 639 z "},"Þ":{"ha":806,"x_min":49,"x_max":745,"o":"m 301 987 l 265 781 l 472 781 q 620 744 555 779 q 714 647 684 709 q 738 505 745 585 q 683 354 730 418 q 557 254 635 289 q 385 219 479 219 l 168 220 l 130 0 l 49 0 l 220 987 l 301 987 m 254 713 l 180 288 l 388 288 q 570 348 494 288 q 656 505 645 408 q 615 652 667 595 q 471 712 564 709 l 254 713 z "},"ß":{"ha":796,"x_min":28,"x_max":690,"o":"m 109 0 l 28 0 l 159 764 q 252 975 178 900 q 437 1047 326 1050 q 587 988 532 1044 q 635 845 642 932 q 622 785 632 813 q 573 693 611 756 q 526 606 536 631 q 513 552 517 581 q 527 476 507 513 q 596 389 546 439 q 668 298 646 339 q 687 214 690 258 q 600 48 681 113 q 409 -14 519 -17 q 299 0 355 -14 q 209 42 244 15 l 240 109 q 402 54 311 55 q 540 97 481 52 q 608 214 599 142 q 593 292 612 254 q 523 378 573 330 q 450 468 472 427 q 433 553 429 509 q 448 616 436 587 q 493 698 460 646 q 537 779 525 750 q 554 841 550 808 q 529 937 561 897 q 439 979 497 977 q 307 927 359 983 q 239 765 254 871 l 109 0 z "},"æ":{"ha":1146,"x_min":16,"x_max":1114,"o":"m 769 -13 q 623 25 686 -12 q 530 126 559 62 q 396 19 475 54 q 228 -14 317 -16 q 72 44 127 -12 q 22 193 16 101 q 118 367 31 304 q 346 429 205 429 l 519 429 l 527 489 q 503 627 536 577 q 395 679 469 676 q 252 638 312 680 q 176 519 192 595 l 98 528 q 196 690 112 629 q 401 747 280 751 q 535 707 481 746 q 604 604 589 669 q 866 747 715 750 q 1052 657 989 745 q 1097 433 1114 570 l 1087 365 l 591 365 l 587 345 q 585 241 580 292 q 643 107 593 157 q 772 56 692 58 q 997 135 887 53 l 1023 75 q 769 -13 921 -16 m 243 54 q 363 81 302 53 q 473 159 425 109 l 509 363 l 346 364 q 180 317 248 364 q 104 191 112 269 q 136 90 98 126 q 243 54 175 54 m 861 679 q 706 619 774 681 q 600 431 639 557 l 1017 431 q 1020 536 1026 494 q 968 640 1010 602 q 861 679 926 677 z "},"ð":{"ha":790,"x_min":77,"x_max":748,"o":"m 618 882 q 709 543 711 736 q 690 357 707 462 q 627 169 673 253 q 515 38 581 85 q 343 -14 437 -17 q 198 32 260 -12 q 106 149 136 75 q 85 311 77 224 q 140 489 94 410 q 260 613 186 569 q 424 655 334 658 q 538 629 484 654 q 629 557 592 605 q 547 840 631 718 l 382 746 l 355 800 l 505 884 q 299 1001 430 955 l 332 1069 q 578 927 480 1020 l 721 1009 l 748 956 l 618 882 m 621 465 q 550 553 600 522 q 433 585 500 583 q 253 512 326 587 q 166 311 180 436 q 205 132 154 206 q 350 56 256 58 q 522 141 452 52 q 611 378 591 229 l 617 425 l 621 465 z "},"÷":{"ha":772,"x_min":52,"x_max":724,"o":"m 710 437 l 52 437 l 66 515 l 724 515 l 710 437 m 382 738 q 401 778 384 762 q 441 795 418 794 q 482 779 466 795 q 496 738 498 762 q 476 698 494 714 q 435 682 459 682 q 395 698 410 682 q 382 738 380 715 m 289 197 q 307 237 290 221 q 348 254 324 254 q 388 238 372 255 q 402 197 404 222 q 383 158 400 174 q 342 142 366 142 q 302 157 318 141 q 289 197 287 173 z "},"ø":{"ha":757,"x_min":41,"x_max":705,"o":"m 428 749 q 565 715 503 746 l 637 823 l 705 823 l 611 684 q 692 461 688 599 q 646 214 694 322 q 509 44 598 106 q 311 -15 419 -17 q 182 14 245 -14 l 109 -95 l 41 -94 l 134 44 q 47 269 52 127 q 91 513 43 401 q 229 688 139 625 q 428 749 319 751 m 125 288 q 174 111 123 178 l 526 651 q 424 680 477 680 q 272 631 340 682 q 165 489 204 580 q 125 288 127 397 m 614 440 q 570 613 616 543 l 220 76 q 315 53 264 54 q 525 159 440 50 q 614 440 610 269 z "},"þ":{"ha":764,"x_min":-16,"x_max":677,"o":"m 342 -14 q 223 13 279 -13 q 133 92 168 38 l 65 -282 l -16 -282 l 214 1042 l 295 1042 l 219 632 q 456 747 314 751 q 618 669 562 745 q 677 461 675 593 q 673 378 677 418 l 671 368 q 559 85 647 189 q 342 -14 472 -18 m 592 378 l 596 443 q 557 613 598 551 q 434 677 516 675 q 305 643 363 679 q 207 537 247 606 l 146 182 q 215 88 168 121 q 328 54 262 56 q 500 133 431 51 q 592 378 569 215 z "},"đ":{"ha":778,"x_min":58,"x_max":849,"o":"m 837 852 l 722 852 l 574 0 l 499 0 l 517 98 q 281 -13 422 -17 q 121 67 179 -10 q 60 276 62 144 q 62 357 58 318 l 64 372 q 170 640 85 534 q 397 748 260 751 q 516 717 463 747 q 601 630 570 688 l 642 852 l 432 852 l 444 922 l 654 922 l 675 1042 l 755 1042 l 734 922 l 849 922 l 837 852 m 144 355 l 140 292 q 178 120 138 180 q 299 56 219 59 q 425 87 366 54 q 528 189 484 120 l 587 534 q 522 637 567 600 q 406 677 476 675 q 234 597 303 680 q 144 355 165 513 z "},"Ħ":{"ha":935,"x_min":35,"x_max":973,"o":"m 878 761 l 973 761 l 962 696 l 866 696 l 745 0 l 663 0 l 745 473 l 199 473 l 117 0 l 35 0 l 155 696 l 65 696 l 77 761 l 166 761 l 206 987 l 289 987 l 249 761 l 795 761 l 834 987 l 917 987 l 878 761 m 212 544 l 757 544 l 784 696 l 238 696 l 212 544 z "},"ı":{"ha":307,"x_min":39,"x_max":248,"o":"m 120 0 l 39 0 l 167 734 l 248 734 l 120 0 z "},"ĸ":{"ha":738,"x_min":35,"x_max":723,"o":"m 267 336 l 175 336 l 117 0 l 35 0 l 163 734 l 244 734 l 187 408 l 271 408 l 618 734 l 723 734 l 341 372 l 622 0 l 528 0 l 267 336 z "},"Ł":{"ha":719,"x_min":17,"x_max":615,"o":"m 227 556 l 441 621 l 429 557 l 216 492 l 142 71 l 615 71 l 603 0 l 47 0 l 127 464 l 17 431 l 28 494 l 138 528 l 218 987 l 302 987 l 227 556 z "},"ł":{"ha":355,"x_min":21,"x_max":372,"o":"m 245 586 l 372 633 l 360 567 l 235 520 l 144 0 l 63 0 l 148 487 l 21 440 l 33 506 l 159 553 l 244 1042 l 326 1042 l 245 586 z "},"Ŋ":{"ha":950,"x_min":47,"x_max":929,"o":"m 929 987 l 750 -58 q 671 -236 734 -172 q 511 -298 608 -300 q 433 -283 475 -296 l 449 -215 q 515 -228 486 -228 q 614 -186 574 -229 q 667 -58 654 -142 l 675 0 l 278 849 l 130 0 l 47 0 l 219 987 l 299 987 l 698 139 l 846 987 l 929 987 z "},"ŋ":{"ha":757,"x_min":32,"x_max":657,"o":"m 231 734 l 212 609 q 316 711 255 673 q 458 747 378 749 q 594 695 545 745 q 652 556 644 646 q 650 447 657 503 l 568 -60 q 491 -237 553 -174 q 332 -298 429 -300 q 245 -283 294 -297 l 262 -214 q 336 -226 300 -226 q 433 -187 393 -227 q 486 -69 472 -146 l 570 447 q 573 528 574 488 q 437 677 566 674 q 203 526 286 682 l 113 0 l 32 0 l 159 734 l 231 734 z "},"Œ":{"ha":1265,"x_min":58,"x_max":1288,"o":"m 1120 0 l 569 0 l 408 -13 l 363 -13 q 191 43 262 -10 q 89 190 120 97 q 73 391 58 282 l 106 593 q 251 893 136 783 q 524 1002 366 1003 l 578 1000 l 730 987 l 1288 987 l 1276 916 l 764 916 l 699 544 l 1147 544 l 1135 473 l 687 473 l 617 71 l 1133 71 l 1120 0 m 366 56 q 531 64 434 54 l 682 923 q 522 934 602 934 q 302 843 392 935 q 186 589 212 750 l 155 390 q 154 273 148 331 q 220 117 164 174 q 366 56 275 59 z "},"œ":{"ha":1251,"x_min":46,"x_max":1223,"o":"m 431 747 q 590 695 524 745 q 680 563 656 645 q 813 702 738 654 q 972 748 888 749 q 1160 656 1097 744 q 1206 434 1223 568 l 1196 365 l 696 365 q 691 247 685 298 q 747 110 701 161 q 869 56 794 58 q 1097 135 996 52 l 1126 79 q 866 -13 1027 -16 q 714 38 782 -12 q 622 168 646 87 q 487 30 566 77 q 316 -14 408 -17 q 164 36 226 -12 q 74 168 102 84 q 57 351 46 252 l 58 363 q 182 644 79 538 q 431 747 285 751 m 136 283 q 186 118 138 180 q 321 54 235 57 q 480 109 410 52 q 586 270 550 166 q 610 481 621 374 q 551 624 599 572 q 426 679 503 676 q 277 632 344 682 q 172 488 211 583 q 136 283 132 394 m 968 679 q 811 616 880 681 q 705 433 743 551 l 1126 433 l 1129 454 q 1096 613 1141 550 q 968 679 1051 676 z "},"ſ":{"ha":313,"x_min":39,"x_max":513,"o":"m 39 0 l 178 824 q 256 997 193 934 q 418 1058 319 1059 q 513 1043 452 1057 l 495 979 q 425 989 462 988 q 313 944 357 989 q 260 825 270 899 l 119 0 l 39 0 z "},"Ə":{"ha":949,"x_min":72,"x_max":909,"o":"m 416 -14 q 220 43 301 -12 q 106 197 140 99 q 89 416 72 295 l 102 500 l 800 500 l 808 547 q 812 688 820 619 q 729 862 798 798 q 549 928 661 926 q 264 848 407 931 l 244 911 q 379 978 301 955 q 551 1000 458 1002 q 754 940 671 999 q 873 778 838 882 q 892 546 909 674 l 878 451 q 790 213 857 324 q 627 43 724 102 q 416 -14 530 -16 m 420 57 q 583 99 509 55 q 711 232 656 144 q 793 432 766 319 l 176 432 l 170 395 q 169 267 159 328 q 251 115 185 171 q 420 57 317 60 z "},"ƒ":{"ha":448,"x_min":-143,"x_max":548,"o":"m 436 667 l 276 667 l 165 -60 q 90 -237 151 -174 q -66 -298 28 -300 q -143 -285 -96 -298 l -128 -217 q -64 -229 -97 -228 q 33 -185 -6 -231 q 83 -60 73 -140 l 195 667 l 77 667 l 87 734 l 205 734 l 216 820 q 293 997 231 935 q 454 1057 356 1059 q 548 1043 486 1057 l 531 977 q 458 987 494 987 q 351 944 393 987 q 298 819 309 901 l 286 734 l 447 734 l 436 667 z "},"Ơ":{"ha":946,"x_min":86,"x_max":1065,"o":"m 395 -14 q 177 82 258 -11 q 89 332 96 176 q 94 445 86 389 l 109 541 q 193 786 129 677 q 351 948 258 894 q 556 1001 444 1003 q 704 966 636 1000 q 817 865 772 932 q 935 918 892 872 q 993 1061 977 963 l 1065 1061 q 996 883 1050 944 q 847 806 942 821 q 865 677 863 741 q 857 542 867 606 l 842 449 q 689 109 808 235 q 395 -14 570 -17 m 781 635 q 721 848 781 771 q 551 928 661 925 q 388 885 462 930 q 261 751 313 841 q 192 542 210 661 q 172 400 174 422 q 170 353 170 378 q 197 201 170 269 q 275 97 223 133 q 400 59 327 61 q 632 156 538 56 q 757 428 726 256 q 781 635 781 567 z "},"ơ":{"ha":761,"x_min":43,"x_max":852,"o":"m 431 747 q 645 648 565 745 q 739 692 707 656 q 785 812 771 728 l 852 812 q 797 662 840 714 q 677 595 754 610 q 696 488 693 542 q 656 231 703 348 q 518 48 608 114 q 316 -14 427 -17 q 162 36 225 -12 q 71 168 100 83 q 54 351 43 252 l 55 363 q 180 644 76 536 q 431 747 285 751 m 134 350 q 170 139 120 221 q 321 54 220 58 q 481 110 409 52 q 588 271 553 168 q 612 481 624 374 q 552 623 602 570 q 425 679 503 676 q 232 591 313 682 q 134 350 151 500 z "},"Ư":{"ha":924,"x_min":83,"x_max":1110,"o":"m 886 987 l 861 842 q 981 896 939 850 q 1041 1046 1024 941 l 1110 1047 q 1029 851 1092 914 q 852 781 967 788 l 771 318 q 641 74 748 165 q 380 -14 534 -18 q 216 30 286 -12 q 115 146 146 71 q 95 318 83 222 l 210 987 l 292 987 l 178 317 q 220 131 163 202 q 386 56 276 60 q 588 125 506 54 q 688 318 669 197 l 802 987 l 886 987 z "},"ư":{"ha":796,"x_min":71,"x_max":892,"o":"m 892 800 q 830 645 879 696 q 681 587 781 593 l 577 0 l 498 0 l 518 92 q 277 -14 430 -18 q 122 61 173 -12 q 85 264 71 134 l 164 734 l 244 734 l 165 262 q 165 189 161 224 q 202 93 170 127 q 293 56 235 58 q 441 94 372 54 q 532 202 511 134 l 623 734 l 705 734 l 687 642 q 781 679 749 648 q 828 799 812 711 l 892 800 z "},"ȷ":{"ha":315,"x_min":-192,"x_max":254,"o":"m 254 734 l 119 -60 q 41 -238 103 -176 q -115 -299 -21 -300 q -192 -285 -151 -298 l -178 -217 q -112 -230 -144 -229 q -15 -189 -55 -231 q 39 -61 24 -146 l 174 734 l 254 734 z "},"ə":{"ha":701,"x_min":35,"x_max":658,"o":"m 392 747 q 540 696 479 744 q 630 567 602 649 q 648 388 658 484 l 645 367 q 522 90 623 197 q 287 -14 421 -17 q 99 77 163 -9 q 52 299 35 164 l 62 368 l 564 368 l 567 389 q 568 487 574 436 q 511 625 557 574 q 389 678 464 675 q 162 597 263 682 l 134 654 q 392 747 233 749 m 292 54 q 446 116 378 52 q 553 299 514 180 l 133 299 l 130 279 q 162 121 116 184 q 292 54 208 57 z "},"ˆ":{"ha":586,"x_min":183,"x_max":551,"o":"m 551 861 l 550 852 l 477 853 l 389 976 l 258 854 l 183 853 l 184 863 l 367 1035 l 416 1035 l 551 861 z "},"ˇ":{"ha":557,"x_min":199,"x_max":569,"o":"m 359 901 l 496 1030 l 569 1031 l 568 1022 l 387 846 l 328 846 l 199 1023 l 200 1031 l 271 1031 l 359 901 z "},"ˉ":{"ha":583,"x_min":168,"x_max":587,"o":"m 577 911 l 168 911 l 178 977 l 587 977 l 577 911 z "},"˘":{"ha":576,"x_min":184,"x_max":566,"o":"m 566 1011 q 499 881 556 928 q 360 836 442 833 q 232 885 280 838 q 188 1011 184 933 l 256 1010 q 280 926 253 957 q 361 894 307 895 q 454 924 419 893 q 500 1010 490 956 l 566 1011 z "},"˙":{"ha":309,"x_min":187,"x_max":300,"o":"m 189 937 q 207 976 191 960 q 246 993 223 992 q 285 977 270 994 q 298 937 300 961 q 280 899 297 914 q 241 883 263 884 q 202 898 217 882 q 189 937 187 913 z "},"˚":{"ha":425,"x_min":170,"x_max":427,"o":"m 171 941 q 213 1036 172 997 q 307 1076 253 1076 q 392 1039 357 1076 q 426 951 427 1003 q 385 858 425 897 q 290 819 345 819 q 204 853 239 819 q 171 941 170 888 m 223 942 q 238 889 220 911 q 287 867 256 867 q 345 891 319 867 q 374 950 370 914 q 358 1005 377 983 q 309 1027 340 1027 q 252 1002 277 1027 q 223 942 226 977 z "},"˛":{"ha":344,"x_min":-50,"x_max":167,"o":"m 167 -2 l 121 -35 q 28 -164 34 -100 q 71 -216 22 -214 q 142 -194 100 -216 l 147 -252 q 54 -280 103 -280 q -22 -249 5 -280 q -47 -170 -50 -218 q -5 -72 -45 -120 q 125 26 35 -24 l 167 -2 z "},"˜":{"ha":593,"x_min":139,"x_max":606,"o":"m 606 1007 q 558 900 596 939 q 463 861 519 861 q 425 868 442 861 q 374 899 408 876 q 323 930 341 922 q 286 938 306 938 q 232 917 254 938 q 199 858 209 896 l 139 860 q 188 965 149 925 q 283 1004 227 1006 q 330 993 309 1004 q 373 966 351 981 q 416 939 395 951 q 462 928 437 928 q 549 1010 524 928 l 606 1007 z "},"˝":{"ha":515,"x_min":149,"x_max":625,"o":"m 523 1041 l 625 1041 l 406 836 l 318 836 l 523 1041 m 319 1041 l 416 1041 l 229 836 l 149 836 l 319 1041 z "},"˳":{"ha":416,"x_min":5,"x_max":208,"o":"m 5 -160 q 39 -89 7 -119 q 112 -58 71 -58 q 179 -85 151 -58 q 208 -152 208 -112 q 175 -222 206 -194 q 103 -251 144 -251 q 34 -225 62 -251 q 5 -160 5 -200 m 54 -159 q 66 -192 52 -178 q 98 -204 79 -204 q 138 -190 120 -203 q 159 -154 156 -176 q 149 -120 162 -134 q 116 -106 136 -106 q 76 -122 95 -106 q 54 -159 58 -137 z "},"̀":{"ha":0,"x_min":-414,"x_max":-231,"o":"m -231 852 l -298 852 l -414 1042 l -323 1042 l -231 852 z "},"́":{"ha":0,"x_min":-331,"x_max":-69,"o":"m -172 1042 l -69 1041 l -255 852 l -331 852 l -172 1042 z "},"̃":{"ha":0,"x_min":-492,"x_max":-26,"o":"m -26 1007 q -74 900 -35 939 q -168 861 -112 861 q -207 868 -189 861 q -257 899 -224 876 q -308 930 -290 922 q -346 938 -326 938 q -400 917 -377 938 q -432 858 -422 896 l -492 860 q -444 965 -483 925 q -349 1004 -405 1006 q -302 993 -323 1004 q -259 966 -281 981 q -216 939 -237 951 q -170 928 -195 928 q -83 1010 -107 928 l -26 1007 z "},"̉":{"ha":0,"x_min":-338,"x_max":-134,"o":"m -338 837 l -325 921 l -293 925 q -202 989 -207 937 q -280 1047 -197 1039 l -322 1050 l -312 1101 q -180 1070 -226 1099 q -136 989 -134 1040 q -173 915 -138 943 q -266 879 -207 886 l -273 836 l -338 837 z "},"̏":{"ha":0,"x_min":-538,"x_max":-125,"o":"m -285 849 l -370 849 l -538 1029 l -431 1029 l -285 849 m -125 849 l -202 849 l -336 1029 l -237 1029 l -125 849 z "},"̣":{"ha":0,"x_min":-542,"x_max":-429,"o":"m -541 -157 q -522 -118 -538 -134 q -482 -101 -506 -102 q -444 -117 -458 -100 q -430 -157 -429 -133 q -449 -195 -432 -180 q -488 -211 -465 -210 q -527 -196 -512 -212 q -541 -157 -542 -180 z "},"΄":{"ha":348,"x_min":209,"x_max":376,"o":"m 294 1077 l 376 1077 l 269 871 l 209 871 l 294 1077 z "},"΅":{"ha":652,"x_min":192,"x_max":638,"o":"m 435 1128 l 527 1128 l 450 958 l 382 958 l 435 1128 m 194 947 q 213 986 195 970 q 252 1002 231 1002 q 290 987 275 1003 q 304 947 305 970 q 285 908 302 924 q 245 892 269 893 q 207 907 222 892 q 194 947 192 923 m 526 946 q 545 985 528 969 q 584 1002 563 1002 q 623 986 608 1002 q 636 946 638 970 q 618 908 635 924 q 578 892 601 892 q 540 907 555 891 q 526 946 525 922 z "},"·":{"ha":338,"x_min":119,"x_max":235,"o":"m 121 486 q 139 526 122 510 q 180 543 156 543 q 220 527 205 543 q 234 486 235 511 q 215 447 232 463 q 174 430 197 431 q 134 446 149 429 q 121 486 119 462 z "},"Γ":{"ha":750,"x_min":50,"x_max":801,"o":"m 789 916 l 292 916 l 133 0 l 50 0 l 222 987 l 801 987 l 789 916 z "},"Δ":{"ha":945,"x_min":-44,"x_max":833,"o":"m 611 987 l 833 0 l -44 0 l 532 987 l 611 987 m 87 71 l 735 71 l 557 887 l 87 71 z "},"Θ":{"ha":913,"x_min":77,"x_max":855,"o":"m 644 458 l 278 458 l 290 526 l 657 526 l 644 458 m 386 -14 q 168 81 249 -11 q 79 332 86 174 q 85 445 77 389 l 99 541 q 184 786 119 677 q 341 949 248 895 q 546 1001 434 1003 q 704 957 636 999 q 810 836 772 915 q 853 655 848 756 q 847 542 855 595 l 832 444 q 746 198 810 305 q 589 37 682 90 q 386 -14 496 -16 m 766 548 q 772 635 771 591 q 746 787 772 718 q 667 891 720 856 q 542 928 614 926 q 304 825 400 932 q 182 538 209 718 l 167 439 q 161 353 161 397 q 187 201 160 271 q 266 96 214 132 q 390 59 317 61 q 629 162 534 56 q 751 450 724 269 l 766 548 z "},"Λ":{"ha":880,"x_min":-28,"x_max":752,"o":"m 515 863 l 64 0 l -28 0 l 493 987 l 573 987 l 752 0 l 667 0 l 515 863 z "},"Ξ":{"ha":760,"x_min":5,"x_max":766,"o":"m 18 71 l 625 71 l 612 0 l 5 0 l 18 71 m 161 532 l 635 532 l 623 461 l 149 461 l 161 532 m 184 987 l 766 987 l 753 916 l 172 916 l 184 987 z "},"Π":{"ha":960,"x_min":53,"x_max":930,"o":"m 759 0 l 675 0 l 835 916 l 295 916 l 136 0 l 53 0 l 224 987 l 930 987 l 759 0 z "},"Σ":{"ha":760,"x_min":-30,"x_max":770,"o":"m 481 504 l 89 71 l 647 71 l 634 0 l -30 0 l -18 66 l 399 519 l 131 928 l 142 987 l 770 987 l 758 916 l 235 916 l 485 529 l 481 504 z "},"Φ":{"ha":970,"x_min":64,"x_max":941,"o":"m 608 859 q 788 807 709 854 q 904 681 867 760 q 931 501 941 601 q 859 310 920 394 q 700 180 798 227 q 486 130 603 133 l 461 0 l 378 0 l 404 131 q 263 162 327 134 q 155 238 199 189 q 81 489 64 338 q 153 680 93 596 q 311 810 213 763 q 525 860 409 857 l 550 987 l 633 987 l 608 859 m 848 501 q 797 704 864 626 q 600 789 730 782 l 496 201 q 735 286 639 205 q 848 501 831 368 m 164 489 q 215 287 149 363 q 411 202 282 210 l 516 789 q 279 704 376 785 q 164 489 181 623 z "},"Ψ":{"ha":942,"x_min":112,"x_max":962,"o":"m 505 334 q 714 427 630 346 q 819 636 798 507 l 879 987 l 962 987 l 903 636 q 765 371 876 469 q 491 264 654 273 l 443 0 l 359 0 l 408 265 q 186 385 260 281 q 131 636 112 488 l 191 987 l 273 987 l 214 635 q 252 434 198 515 q 416 336 306 352 l 532 987 l 613 987 l 505 334 z "},"Ω":{"ha":889,"x_min":7,"x_max":827,"o":"m 434 80 q 622 223 548 119 q 722 490 696 327 l 734 574 q 739 654 739 613 q 683 854 739 780 q 527 930 627 928 q 308 833 398 934 q 193 564 217 732 l 180 473 l 176 418 q 185 271 171 342 q 235 152 199 200 q 327 81 272 103 l 313 0 l 7 0 l 20 71 l 210 72 q 92 381 98 195 q 114 597 89 468 q 207 826 138 727 q 371 969 275 926 q 531 1001 446 1003 q 736 910 659 998 q 822 674 814 823 q 799 456 827 587 q 707 228 772 326 q 547 69 643 130 l 738 71 l 725 0 l 421 0 l 434 80 z "},"α":{"ha":765,"x_min":58,"x_max":701,"o":"m 701 734 l 609 184 l 606 151 q 650 61 597 62 l 681 65 l 686 1 q 625 -13 655 -14 q 524 119 524 -11 q 281 -14 422 -19 q 120 62 178 -12 q 60 264 62 136 q 63 345 58 305 l 64 359 q 176 644 89 537 q 397 747 264 751 q 519 709 467 745 q 597 608 572 673 l 631 734 l 701 734 m 144 342 l 140 279 q 179 113 138 172 q 299 54 221 55 q 532 217 443 49 l 579 500 q 516 630 561 585 q 406 678 471 676 q 236 597 304 682 q 146 355 168 513 l 144 342 z "},"β":{"ha":805,"x_min":-2,"x_max":728,"o":"m 484 1002 q 662 927 595 999 q 718 747 728 856 q 668 619 712 675 q 551 528 623 562 q 664 434 626 500 q 694 279 701 368 q 587 64 682 145 q 356 -14 492 -17 q 141 73 218 -11 l 79 -271 l -2 -271 l 168 720 q 276 923 185 841 q 484 1002 368 1004 m 411 557 q 568 607 507 557 q 638 749 629 657 q 603 879 646 827 q 480 933 559 930 q 329 873 394 935 q 249 720 264 812 l 154 161 q 231 84 178 113 q 353 54 284 56 q 529 112 456 52 q 614 277 602 173 q 575 428 623 370 q 439 488 527 486 l 340 489 l 352 557 l 411 557 z "},"γ":{"ha":666,"x_min":87,"x_max":693,"o":"m 606 734 l 693 734 l 304 16 l 253 -281 l 172 -281 l 226 26 l 87 734 l 167 734 l 275 158 l 279 106 l 304 164 l 606 734 z "},"δ":{"ha":757,"x_min":42,"x_max":703,"o":"m 232 869 q 312 1009 238 956 q 498 1061 386 1061 q 688 1015 598 1061 l 673 945 q 494 990 582 990 q 370 958 420 990 q 313 871 319 926 q 408 748 301 791 l 463 727 q 647 583 587 686 q 690 366 703 488 l 688 353 q 565 84 668 186 q 319 -14 463 -18 q 114 89 185 -10 q 57 340 42 189 l 59 357 q 154 577 75 487 q 347 686 233 667 l 349 694 q 258 769 287 724 q 232 869 229 815 m 138 337 q 175 135 125 213 q 323 54 225 58 q 491 114 417 51 q 595 289 564 178 q 610 425 616 363 q 552 576 600 513 q 433 647 505 638 q 303 620 365 655 q 196 511 241 585 q 140 349 151 437 l 138 337 z "},"ε":{"ha":739,"x_min":31,"x_max":675,"o":"m 37 195 q 215 379 47 330 q 134 443 161 404 q 109 532 106 483 q 187 682 114 625 q 385 746 260 739 l 415 747 q 604 686 532 743 q 671 535 675 629 l 592 536 q 546 637 597 598 q 412 678 496 676 q 259 642 321 680 q 190 535 198 603 q 355 409 177 414 l 485 408 l 473 340 l 355 341 q 185 304 244 341 q 119 195 126 267 q 162 94 112 132 q 303 54 212 56 q 465 96 397 53 q 547 210 532 138 l 627 210 q 522 44 612 106 q 300 -14 431 -17 q 104 45 178 -12 q 37 195 31 102 z "},"ζ":{"ha":669,"x_min":86,"x_max":717,"o":"m 717 987 l 709 931 l 375 572 l 318 508 q 183 241 199 369 q 203 148 176 185 q 308 83 230 110 l 430 43 q 513 -70 518 10 q 472 -176 509 -122 q 378 -263 435 -229 l 335 -222 q 434 -79 425 -154 q 380 -14 439 -35 l 262 22 l 220 40 q 101 239 86 102 q 166 422 111 326 q 336 636 222 519 l 608 918 l 144 918 l 155 987 l 717 987 z "},"η":{"ha":757,"x_min":33,"x_max":669,"o":"m 235 734 l 214 617 q 458 747 309 750 q 618 672 568 745 q 654 465 669 600 l 527 -281 l 446 -281 l 572 465 q 574 544 577 505 q 535 642 570 608 q 437 679 500 677 q 289 631 357 680 q 201 507 222 582 l 113 0 l 33 0 l 160 734 l 235 734 z "},"θ":{"ha":779,"x_min":85,"x_max":716,"o":"m 321 -14 q 150 67 211 -11 q 85 292 89 145 l 85 324 l 90 397 l 115 568 q 240 891 148 779 q 478 1001 332 1004 q 699 816 651 997 q 714 666 716 747 q 707 572 713 617 l 680 406 q 551 87 643 193 q 321 -14 459 -18 m 190 525 l 619 525 l 628 583 q 635 729 639 668 q 474 932 621 928 q 295 844 366 936 q 197 574 224 753 l 190 525 m 610 456 l 177 456 q 164 339 166 381 q 199 131 157 205 q 326 54 241 57 q 491 128 422 50 q 595 372 560 206 l 610 456 z "},"ι":{"ha":411,"x_min":81,"x_max":302,"o":"m 262 734 l 170 183 l 169 142 q 237 66 172 68 q 302 71 253 65 l 298 3 q 218 -5 256 -7 q 115 44 148 -4 q 90 185 81 93 l 181 734 l 262 734 z "},"λ":{"ha":748,"x_min":-41,"x_max":648,"o":"m 266 1028 q 412 874 381 1028 l 553 159 l 562 124 q 634 66 581 61 l 648 68 l 646 0 q 605 -6 623 -6 q 526 25 558 -6 q 474 135 494 56 l 383 600 l 52 0 l -41 0 l 360 718 l 329 859 l 321 890 q 248 958 301 955 l 232 958 l 216 957 l 220 1021 q 266 1028 243 1028 z "},"ξ":{"ha":668,"x_min":54,"x_max":703,"o":"m 686 904 q 527 933 602 933 q 351 889 418 933 q 275 770 284 846 q 460 614 259 627 l 572 613 l 560 543 l 478 544 q 246 477 334 544 q 145 296 158 411 q 309 70 127 134 l 436 31 q 524 -79 530 -2 q 487 -173 521 -127 q 395 -259 454 -220 l 349 -217 l 380 -191 q 446 -86 439 -139 q 398 -28 450 -47 l 363 -18 l 317 -4 q 114 113 173 39 q 64 298 54 186 q 140 472 73 399 q 328 581 208 545 q 227 654 263 606 q 194 766 190 703 q 282 931 200 868 q 499 1002 363 995 l 529 1002 q 703 971 618 1001 l 686 904 z "},"π":{"ha":808,"x_min":77,"x_max":804,"o":"m 791 664 l 669 664 l 589 184 l 588 142 q 656 66 591 68 q 721 72 682 65 l 718 3 q 637 -5 675 -7 q 534 44 567 -4 q 509 185 500 93 l 589 664 l 278 664 l 163 0 l 82 0 l 197 664 l 77 664 l 90 734 l 804 734 l 791 664 z "},"ρ":{"ha":757,"x_min":-17,"x_max":673,"o":"m 102 411 q 218 659 126 568 q 439 747 309 751 q 565 709 513 745 q 645 605 618 673 q 673 450 671 536 q 669 362 673 405 q 557 82 644 181 q 341 -14 470 -18 q 132 90 197 -11 l 64 -282 l -17 -282 l 102 411 m 146 180 q 327 54 191 57 q 496 129 428 52 q 587 362 565 205 l 592 427 q 556 611 597 546 q 435 679 515 676 q 272 606 340 682 q 182 395 204 530 l 146 180 z "},"ς":{"ha":727,"x_min":58,"x_max":673,"o":"m 433 747 q 609 673 545 745 q 663 485 673 602 l 587 485 q 553 623 595 570 q 429 679 510 676 q 305 646 363 681 q 208 541 248 612 q 155 384 168 470 l 151 351 q 192 169 140 243 q 360 61 245 96 l 408 45 q 494 -77 501 9 q 456 -173 491 -124 q 368 -256 420 -222 l 326 -215 q 392 -147 373 -176 q 416 -85 412 -117 q 368 -16 422 -35 l 314 -1 q 121 129 184 39 q 71 351 58 218 l 74 374 q 136 568 86 481 q 263 702 186 654 q 433 747 340 750 z "},"σ":{"ha":755,"x_min":44,"x_max":806,"o":"m 793 664 l 587 662 q 686 450 677 581 q 647 216 694 326 q 511 44 600 106 q 315 -14 422 -17 q 162 36 224 -12 q 72 169 100 84 q 55 353 44 253 l 57 370 q 179 633 76 532 q 429 734 281 734 l 806 734 l 793 664 m 132 283 q 185 117 136 177 q 319 54 235 57 q 507 136 429 51 q 606 357 586 222 l 608 379 q 573 578 621 502 q 426 664 524 654 q 236 585 315 665 q 138 373 157 504 q 132 283 131 316 z "},"τ":{"ha":696,"x_min":94,"x_max":695,"o":"m 683 665 l 418 665 l 338 185 l 337 142 q 355 81 337 104 q 407 58 373 59 q 473 68 429 58 l 484 7 q 389 -12 441 -14 q 258 189 240 -10 l 336 665 l 94 665 l 106 734 l 695 734 l 683 665 z "},"υ":{"ha":727,"x_min":75,"x_max":655,"o":"m 248 734 l 171 273 q 168 200 167 238 l 170 177 q 290 54 186 58 q 500 188 420 50 q 572 553 581 326 q 547 734 569 646 l 631 734 q 652 553 651 644 q 612 243 655 368 q 483 51 568 119 q 288 -14 398 -17 q 127 64 180 -12 q 90 276 75 141 l 167 734 l 248 734 z "},"φ":{"ha":930,"x_min":60,"x_max":867,"o":"m 358 -12 q 133 106 207 3 q 80 371 60 209 q 152 580 94 486 q 309 735 210 674 l 345 674 q 194 488 244 605 q 159 258 144 370 q 225 121 171 174 q 366 56 279 68 l 456 593 q 509 698 465 660 q 614 735 553 736 q 755 685 696 734 q 840 551 813 635 q 857 374 867 466 q 724 104 839 211 q 439 -13 609 -2 l 382 -324 l 302 -324 l 358 -12 m 449 54 q 620 115 544 64 q 739 250 696 165 q 779 434 782 334 q 730 605 774 542 q 611 665 685 667 q 563 643 581 663 q 539 595 545 623 l 449 54 z "},"ψ":{"ha":928,"x_min":70,"x_max":865,"o":"m 551 734 l 437 54 q 646 145 561 66 q 761 359 732 224 q 772 568 783 460 q 733 734 762 654 l 817 734 q 851 568 844 652 q 818 273 865 403 q 669 69 771 142 q 425 -12 567 -5 l 372 -300 l 292 -300 l 345 -11 q 161 71 230 2 q 79 254 93 140 q 80 402 70 325 l 136 734 l 216 734 l 161 400 q 157 283 153 340 q 213 130 163 189 q 353 57 263 71 l 472 734 l 551 734 z "},"ω":{"ha":1117,"x_min":76,"x_max":1027,"o":"m 323 733 l 268 639 q 158 234 146 421 q 197 102 163 149 q 288 54 230 56 q 430 120 374 50 q 504 323 486 190 l 536 522 l 617 522 l 585 323 l 581 269 q 609 110 576 165 q 710 54 643 55 q 844 117 789 52 q 924 305 899 182 q 939 551 950 428 q 900 734 931 645 l 984 734 q 1019 551 1013 643 q 1010 333 1027 438 q 953 151 992 227 q 708 -14 867 -18 q 581 34 633 -13 q 519 158 529 81 q 279 -14 434 -19 q 128 65 180 -12 q 78 277 76 142 q 118 509 80 397 q 234 734 157 621 l 323 733 z "},"ϑ":{"ha":780,"x_min":62,"x_max":772,"o":"m 772 457 q 657 434 721 440 l 633 290 q 577 125 620 195 q 467 20 534 56 q 312 -14 399 -16 q 125 74 189 -9 q 77 290 62 158 l 113 513 l 195 515 l 158 290 q 158 203 153 245 q 208 97 167 135 q 317 56 248 59 q 474 112 412 53 q 553 290 535 171 l 578 436 q 366 543 441 454 q 302 768 291 633 l 302 783 q 376 947 313 882 q 530 1010 440 1013 q 673 934 625 1008 q 707 740 720 860 l 669 505 q 772 525 729 512 l 772 457 m 381 768 q 424 592 372 659 q 586 507 477 525 l 625 741 q 629 806 629 771 q 524 939 626 936 q 429 897 467 941 q 382 782 391 853 l 381 768 z "},"ϒ":{"ha":729,"x_min":65,"x_max":859,"o":"m 593 855 q 681 967 637 935 q 780 997 724 998 q 859 976 822 994 l 832 913 q 787 925 810 922 q 680 854 729 928 l 405 398 l 336 0 l 253 0 l 324 411 l 210 825 l 199 854 q 124 920 174 920 q 79 911 105 920 l 65 977 q 138 994 102 994 q 222 961 186 994 q 283 854 258 929 l 371 521 l 375 479 l 399 529 l 593 855 z "},"ϖ":{"ha":1066,"x_min":63,"x_max":1095,"o":"m 1082 664 l 973 664 q 987 514 985 588 q 952 241 989 367 q 847 49 916 115 q 684 -14 779 -17 q 557 33 608 -13 q 496 157 507 79 q 256 -15 414 -20 q 112 68 160 -11 q 66 281 63 147 q 183 665 70 490 l 82 664 l 95 734 l 1095 734 l 1082 664 m 905 513 q 888 664 901 588 l 271 665 q 171 444 199 544 q 146 237 142 345 q 178 106 148 154 q 266 54 208 58 q 405 117 350 50 q 479 319 460 185 l 509 507 l 591 507 l 562 323 l 557 269 q 585 110 552 165 q 686 54 618 55 q 811 115 760 52 q 886 292 861 178 q 905 513 911 405 z "},"Ђ":{"ha":1009,"x_min":123,"x_max":941,"o":"m 863 916 l 491 916 l 425 554 q 645 600 550 601 q 864 515 787 598 q 928 291 941 433 q 817 75 914 156 q 570 -11 719 -6 l 572 59 q 758 124 684 60 q 844 293 833 189 q 803 461 857 398 q 642 526 749 524 q 417 482 547 528 l 332 0 l 248 0 l 408 916 l 123 916 l 136 987 l 876 987 l 863 916 z "},"Є":{"ha":896,"x_min":85,"x_max":849,"o":"m 781 308 q 640 68 746 153 q 382 -14 534 -18 q 172 80 250 -11 q 87 326 94 172 q 92 431 85 379 l 111 551 q 195 793 132 687 q 350 951 259 899 q 549 1001 440 1003 q 770 911 691 998 q 848 677 849 823 l 766 678 q 709 862 766 796 q 546 930 653 928 q 319 832 412 934 q 193 556 227 731 l 190 535 l 592 535 l 579 465 l 182 465 q 170 348 170 393 q 194 199 169 268 q 268 95 218 131 q 387 57 317 59 q 584 116 505 53 q 701 307 663 180 l 781 308 z "},"Љ":{"ha":1428,"x_min":-35,"x_max":1336,"o":"m 896 987 l 824 575 l 1055 574 q 1206 537 1141 572 q 1304 439 1272 503 q 1329 292 1336 375 q 1218 80 1316 160 q 965 0 1119 0 l 642 0 l 801 916 l 435 916 l 345 522 l 321 400 q 204 99 277 190 q 18 1 131 8 l -35 0 l -27 70 l 1 71 q 157 162 96 75 q 251 450 218 250 l 265 529 l 368 987 l 896 987 m 812 505 l 736 71 l 968 70 q 1157 132 1080 70 q 1246 294 1234 193 q 1204 443 1257 385 q 1053 504 1151 501 l 812 505 z "},"Њ":{"ha":1461,"x_min":51,"x_max":1371,"o":"m 226 532 l 766 532 l 846 987 l 928 987 l 854 561 l 1072 560 q 1293 486 1214 559 q 1360 287 1371 412 q 1250 78 1348 156 q 996 0 1152 0 l 674 0 l 754 462 l 214 462 l 134 0 l 51 0 l 222 987 l 305 987 l 226 532 m 842 490 l 770 73 l 1001 73 q 1168 117 1097 74 q 1277 289 1264 176 q 1233 434 1287 380 q 1082 490 1179 487 l 842 490 z "},"Ћ":{"ha":1090,"x_min":123,"x_max":964,"o":"m 862 916 l 494 916 l 428 549 q 674 583 557 584 q 895 500 825 580 q 947 279 964 420 l 901 0 l 817 0 l 863 280 q 830 451 877 392 q 672 512 784 509 q 420 478 564 514 l 336 0 l 253 0 l 412 916 l 123 916 l 136 987 l 875 987 l 862 916 z "},"Џ":{"ha":957,"x_min":50,"x_max":928,"o":"m 222 987 l 305 987 l 146 71 l 686 71 l 846 987 l 928 987 l 757 0 l 449 0 l 408 -239 l 323 -239 l 366 0 l 50 0 l 222 987 z "},"Б":{"ha":852,"x_min":45,"x_max":795,"o":"m 783 916 l 287 916 l 225 559 l 444 558 q 665 484 587 557 q 731 286 743 410 q 622 77 719 155 q 368 0 524 0 l 45 0 l 216 987 l 795 987 l 783 916 m 213 488 l 141 71 l 372 70 q 560 128 484 70 q 648 288 636 186 q 605 432 658 380 q 454 487 551 484 l 213 488 z "},"Д":{"ha":982,"x_min":-66,"x_max":931,"o":"m 772 71 l 874 71 l 820 -239 l 737 -239 l 779 0 l 58 0 l 16 -239 l -66 -239 l -12 71 l 49 69 q 294 512 212 196 l 314 595 l 399 987 l 931 987 l 772 71 m 146 69 l 690 71 l 836 916 l 467 916 l 395 583 l 375 505 q 146 69 297 212 z "},"Ж":{"ha":1192,"x_min":-59,"x_max":1251,"o":"m 756 470 l 647 470 l 565 0 l 482 0 l 564 470 l 458 470 l 51 0 l -59 0 l 388 514 l 142 987 l 235 987 l 460 541 l 576 541 l 654 987 l 736 987 l 659 541 l 768 541 l 1147 987 l 1251 987 l 833 507 l 1099 0 l 1001 0 l 756 470 z "},"З":{"ha":808,"x_min":31,"x_max":794,"o":"m 416 538 q 616 590 542 538 q 700 735 690 642 q 652 877 709 824 q 486 930 594 929 q 306 876 382 932 q 212 729 230 821 l 131 728 q 191 871 142 809 q 321 968 241 934 q 490 1001 401 1003 q 714 926 635 998 q 783 733 794 854 q 722 597 777 656 q 572 503 667 538 q 687 416 650 476 q 717 273 724 355 q 660 124 710 190 q 522 21 610 58 q 330 -14 433 -15 q 170 25 239 -12 q 66 126 101 61 q 38 274 31 191 l 120 274 q 170 120 110 182 q 333 56 229 59 q 539 112 455 53 q 634 271 623 171 q 590 413 644 362 q 413 467 536 463 l 292 467 l 304 539 l 416 538 z "},"И":{"ha":963,"x_min":52,"x_max":934,"o":"m 848 987 l 934 987 l 762 0 l 679 0 l 825 838 l 138 0 l 52 0 l 224 987 l 307 987 l 161 151 l 848 987 z "},"Л":{"ha":953,"x_min":-43,"x_max":925,"o":"m 925 987 l 753 0 l 671 0 l 829 916 l 428 916 l 338 522 l 307 368 q 183 81 260 165 q -12 0 106 -3 l -43 0 l -35 70 l -9 71 q 151 163 90 75 q 244 452 212 252 l 258 532 l 360 987 l 925 987 z "},"У":{"ha":852,"x_min":77,"x_max":912,"o":"m 430 357 l 811 987 l 912 987 l 406 169 q 284 24 346 66 q 143 -16 222 -18 q 77 -7 113 -15 l 92 60 q 147 55 119 55 q 237 84 196 55 q 325 187 279 113 l 374 266 l 138 987 l 229 987 l 430 357 z "},"Ф":{"ha":1007,"x_min":56,"x_max":984,"o":"m 626 886 l 641 886 q 827 833 746 884 q 946 695 907 783 q 972 502 984 607 q 896 296 960 388 q 730 154 831 205 q 515 104 629 103 l 495 104 l 467 -41 l 387 -41 l 414 104 q 217 154 299 104 q 96 294 136 204 q 68 490 56 383 q 145 694 81 603 q 310 837 210 786 q 526 887 410 887 l 545 887 l 573 1028 l 650 1028 l 626 886 m 618 818 l 505 172 l 519 171 q 770 263 667 171 q 892 502 873 355 q 845 719 908 633 q 660 816 781 805 l 618 818 m 149 490 q 202 263 132 351 q 404 172 271 176 l 422 172 l 537 819 l 527 819 q 272 728 376 819 q 149 490 168 637 z "},"Ц":{"ha":968,"x_min":46,"x_max":924,"o":"m 218 987 l 301 987 l 142 71 l 682 71 l 842 987 l 924 987 l 766 72 l 859 72 l 800 -238 l 723 -238 l 764 0 l 46 0 l 218 987 z "},"Ч":{"ha":903,"x_min":159,"x_max":884,"o":"m 884 987 l 713 0 l 629 0 l 710 449 q 448 410 572 408 q 229 492 299 413 q 176 715 159 570 l 221 987 l 304 987 l 260 714 q 452 484 233 488 q 718 520 567 481 l 801 987 l 884 987 z "},"Ш":{"ha":1254,"x_min":48,"x_max":1230,"o":"m 303 987 l 144 71 l 525 71 l 684 987 l 767 987 l 608 71 l 987 71 l 1147 987 l 1230 987 l 1058 0 l 48 0 l 220 987 l 303 987 z "},"Щ":{"ha":1276,"x_min":48,"x_max":1230,"o":"m 303 987 l 144 71 l 525 71 l 684 987 l 767 987 l 608 71 l 987 71 l 1147 987 l 1230 987 l 1070 68 l 1161 68 l 1102 -238 l 1028 -238 l 1069 0 l 48 0 l 220 987 l 303 987 z "},"Ъ":{"ha":1049,"x_min":81,"x_max":940,"o":"m 94 987 l 497 987 l 422 559 l 642 558 q 862 484 784 557 q 928 286 940 410 q 819 77 916 154 q 566 0 722 0 l 243 0 l 402 918 l 81 918 l 94 987 m 410 488 l 338 71 l 570 70 q 759 130 684 71 q 845 288 834 189 q 802 432 855 380 q 651 487 749 484 l 410 488 z "},"Ы":{"ha":1132,"x_min":51,"x_max":1099,"o":"m 231 559 l 449 558 q 670 484 592 557 q 736 286 748 410 q 627 77 724 155 q 374 0 530 0 l 51 0 l 222 987 l 305 987 l 231 559 m 218 488 l 146 71 l 378 70 q 565 128 489 70 q 653 288 642 186 q 610 432 663 380 q 459 487 557 484 l 218 488 m 927 0 l 844 0 l 1016 987 l 1099 987 l 927 0 z "},"Ь":{"ha":831,"x_min":45,"x_max":743,"o":"m 225 559 l 444 558 q 665 484 587 557 q 731 286 743 410 q 622 77 719 155 q 368 0 524 0 l 45 0 l 217 987 l 300 987 l 225 559 m 213 488 l 141 71 l 372 70 q 560 128 484 70 q 648 288 636 186 q 605 432 658 380 q 454 487 551 484 l 213 488 z "},"Э":{"ha":896,"x_min":75,"x_max":838,"o":"m 158 308 q 215 123 158 187 q 384 56 273 59 q 612 160 519 53 q 736 460 705 267 l 333 460 l 346 532 l 745 532 q 755 641 755 594 q 730 790 755 723 q 653 893 704 857 q 532 930 603 928 q 340 870 419 934 q 223 679 261 807 l 141 679 q 282 919 176 832 q 536 1001 387 1005 q 750 906 671 998 q 836 661 830 814 q 831 555 838 608 l 814 444 q 665 108 782 233 q 380 -14 547 -17 q 156 75 237 -11 q 76 309 75 161 l 158 308 z "},"Ю":{"ha":1233,"x_min":66,"x_max":1173,"o":"m 704 -14 q 485 82 566 -11 q 397 332 404 176 q 405 465 394 385 l 229 465 l 149 0 l 66 0 l 237 987 l 320 987 l 241 534 l 415 534 l 420 566 q 510 799 444 696 q 666 952 575 902 q 864 1001 756 1003 q 1023 957 955 999 q 1129 833 1091 914 q 1171 655 1167 752 q 1164 541 1173 597 l 1149 437 q 1061 193 1125 297 q 905 36 997 88 q 704 -14 813 -16 m 1089 635 q 1063 786 1089 718 q 986 890 1038 854 q 860 928 934 926 q 629 831 724 932 q 503 559 533 730 q 479 353 478 420 q 539 139 479 216 q 708 59 599 62 q 941 157 847 56 q 1065 429 1035 258 q 1089 635 1089 568 z "},"Я":{"ha":830,"x_min":-14,"x_max":817,"o":"m 562 0 l 631 402 l 360 402 l 81 0 l -14 0 l 290 427 q 173 530 210 463 q 145 684 137 597 q 259 907 158 825 q 517 988 361 988 l 817 987 l 645 0 l 562 0 m 229 685 q 266 536 218 595 q 406 474 313 478 l 644 473 l 720 916 l 514 917 q 316 854 392 917 q 229 685 239 791 z "},"б":{"ha":748,"x_min":45,"x_max":738,"o":"m 429 685 q 575 641 513 684 q 666 524 637 599 q 688 359 696 450 l 686 336 q 647 196 678 262 q 568 82 616 130 q 324 -14 467 -18 q 171 34 235 -12 q 76 160 106 80 q 56 334 45 239 l 65 402 q 194 761 96 625 q 446 929 292 898 l 530 944 q 669 1053 651 968 l 738 1053 q 591 885 722 926 q 478 861 550 872 q 293 772 370 846 q 163 558 215 699 q 429 685 277 688 m 413 616 q 230 544 307 619 q 138 355 153 469 l 136 333 q 178 134 125 211 q 328 54 231 56 q 513 131 435 52 q 606 336 591 210 l 608 358 q 566 542 619 469 q 413 616 512 614 z "},"в":{"ha":760,"x_min":40,"x_max":682,"o":"m 40 0 l 167 734 l 412 733 q 614 683 545 732 q 675 543 682 634 q 631 442 671 485 q 522 374 592 399 q 616 312 583 359 q 646 209 650 266 q 562 56 640 111 q 352 0 484 0 l 40 0 m 179 338 l 132 68 l 355 67 q 503 105 446 67 q 566 210 559 142 q 531 301 573 268 q 411 337 489 335 l 179 338 m 191 406 l 385 404 q 535 442 481 406 q 595 541 589 478 q 418 664 608 663 l 235 665 l 191 406 z "},"г":{"ha":574,"x_min":36,"x_max":604,"o":"m 591 664 l 232 664 l 117 0 l 36 0 l 163 734 l 604 734 l 591 664 z "},"д":{"ha":779,"x_min":-75,"x_max":707,"o":"m 25 67 q 148 229 99 138 q 225 456 196 320 l 285 734 l 707 734 l 592 68 l 665 68 l 616 -216 l 536 -216 l 574 0 l 41 0 l 3 -216 l -75 -216 l -24 68 l 25 67 m 118 67 l 511 68 l 613 658 l 349 658 l 300 431 l 286 370 q 118 67 234 176 z "},"ж":{"ha":1040,"x_min":-59,"x_max":1039,"o":"m 637 339 l 541 339 l 482 0 l 401 0 l 460 339 l 372 339 l 50 0 l -59 0 l 306 380 l 108 734 l 199 734 l 376 412 l 473 412 l 529 734 l 610 734 l 553 412 l 645 412 l 935 734 l 1039 734 l 710 372 l 938 0 l 842 0 l 637 339 z "},"з":{"ha":689,"x_min":28,"x_max":631,"o":"m 342 409 q 485 444 432 409 q 544 545 537 479 q 509 642 551 606 q 389 679 467 677 q 254 641 313 680 q 181 536 196 602 l 102 536 q 196 690 114 631 q 392 747 277 749 q 569 690 507 744 q 625 544 631 635 q 473 374 615 431 q 556 310 530 353 q 579 207 583 267 q 487 44 572 104 q 279 -13 402 -16 q 98 50 168 -12 q 34 211 28 111 l 113 210 q 157 99 109 142 q 282 55 206 56 q 431 94 370 54 q 498 205 492 134 q 340 338 512 336 l 224 339 l 237 410 l 342 409 z "},"и":{"ha":764,"x_min":37,"x_max":707,"o":"m 624 734 l 707 734 l 580 0 l 498 0 l 603 596 l 119 0 l 37 0 l 164 734 l 244 734 l 140 137 l 624 734 z "},"к":{"ha":705,"x_min":36,"x_max":716,"o":"m 286 336 l 176 336 l 117 0 l 36 0 l 163 734 l 245 734 l 188 408 l 291 408 l 609 734 l 716 734 l 358 374 l 614 0 l 516 0 l 286 336 z "},"л":{"ha":765,"x_min":-40,"x_max":708,"o":"m 708 734 l 581 0 l 499 0 l 615 664 l 326 664 l 267 390 l 252 309 q 157 72 220 146 q -7 0 94 -3 l -40 0 l -31 71 l -5 72 q 112 137 67 75 q 180 338 157 199 l 192 410 l 260 734 l 708 734 z "},"м":{"ha":991,"x_min":39,"x_max":935,"o":"m 444 112 l 833 734 l 935 734 l 807 0 l 726 0 l 830 593 l 457 0 l 399 0 l 227 616 l 120 0 l 39 0 l 167 734 l 270 734 l 444 112 z "},"н":{"ha":764,"x_min":37,"x_max":707,"o":"m 580 0 l 498 0 l 557 336 l 176 336 l 117 0 l 37 0 l 164 734 l 245 734 l 187 405 l 569 405 l 627 734 l 707 734 l 580 0 z "},"п":{"ha":764,"x_min":37,"x_max":707,"o":"m 580 0 l 498 0 l 614 664 l 233 664 l 117 0 l 37 0 l 164 734 l 707 734 l 580 0 z "},"т":{"ha":647,"x_min":70,"x_max":672,"o":"m 659 665 l 401 665 l 285 0 l 204 0 l 319 665 l 70 665 l 82 734 l 672 734 l 659 665 z "},"ф":{"ha":983,"x_min":60,"x_max":903,"o":"m 65 357 q 124 567 80 475 q 233 705 168 660 q 381 749 298 750 q 497 715 448 747 l 556 1042 l 636 1042 l 575 713 q 698 747 631 748 q 851 665 799 745 q 901 442 903 584 q 897 362 901 399 q 788 79 871 176 q 582 -16 705 -19 q 461 18 513 -14 l 406 -282 l 326 -282 l 382 17 q 262 -14 325 -15 q 113 60 166 -12 q 60 264 60 132 q 65 357 60 297 m 815 366 l 821 427 q 789 612 825 548 q 677 677 752 675 q 569 649 619 679 l 470 79 q 569 52 509 54 q 730 129 666 50 q 814 351 795 208 l 815 366 m 140 283 q 172 115 135 174 q 281 55 208 56 q 389 81 336 54 l 488 651 q 392 680 452 678 q 194 534 262 682 q 146 357 158 456 q 140 283 140 319 z "},"ц":{"ha":774,"x_min":37,"x_max":707,"o":"m 164 734 l 245 734 l 130 68 l 511 68 l 627 734 l 707 734 l 592 68 l 665 68 l 608 -218 l 534 -218 l 572 0 l 37 0 l 164 734 z "},"ч":{"ha":724,"x_min":92,"x_max":675,"o":"m 548 0 l 467 0 l 524 309 q 335 273 419 273 q 150 345 208 274 q 107 548 92 416 l 136 734 l 217 734 l 187 547 q 186 464 182 501 q 340 344 202 344 q 531 377 423 342 l 595 734 l 675 734 l 548 0 z "},"ш":{"ha":1076,"x_min":37,"x_max":1033,"o":"m 245 734 l 130 68 l 444 68 l 559 734 l 640 734 l 525 68 l 836 68 l 952 734 l 1033 734 l 905 0 l 37 0 l 164 734 l 245 734 z "},"щ":{"ha":1088,"x_min":33,"x_max":1029,"o":"m 241 734 l 125 68 l 440 68 l 556 734 l 637 734 l 522 68 l 833 68 l 948 734 l 1029 734 l 913 68 l 999 68 l 943 -218 l 869 -218 l 907 0 l 33 0 l 160 734 l 241 734 z "},"ъ":{"ha":855,"x_min":66,"x_max":771,"o":"m 79 734 l 386 734 l 340 467 l 537 467 q 708 402 645 464 q 764 239 771 340 q 673 65 755 130 q 467 0 591 0 l 178 0 l 294 665 l 66 665 l 79 734 m 328 398 l 271 68 l 469 68 q 614 114 554 68 q 682 239 673 159 q 650 352 690 309 q 536 397 610 395 l 328 398 z "},"ы":{"ha":1019,"x_min":40,"x_max":954,"o":"m 201 467 l 390 466 q 555 414 491 465 q 625 240 633 351 q 534 66 616 132 q 328 0 453 0 l 40 0 l 168 734 l 248 734 l 201 467 m 189 398 l 132 68 l 331 67 q 477 115 418 68 q 544 239 535 161 q 511 352 552 310 q 397 397 469 395 l 189 398 m 826 0 l 745 0 l 873 734 l 954 734 l 826 0 z "},"ь":{"ha":728,"x_min":40,"x_max":633,"o":"m 201 467 l 390 466 q 555 414 491 465 q 625 240 633 351 q 534 66 616 132 q 328 0 453 0 l 40 0 l 168 734 l 248 734 l 201 467 m 189 398 l 132 68 l 331 67 q 477 115 418 68 q 544 239 535 161 q 511 352 552 310 q 397 397 469 395 l 189 398 z "},"э":{"ha":727,"x_min":41,"x_max":656,"o":"m 392 679 q 249 633 311 682 q 172 505 188 585 l 95 505 q 148 631 104 574 q 257 719 191 688 q 395 748 323 750 q 588 649 521 745 q 645 399 656 553 l 644 383 l 642 370 q 522 89 622 195 q 282 -14 422 -17 q 106 62 171 -11 q 51 248 41 136 l 129 248 q 164 111 120 165 q 286 54 208 57 q 455 124 384 51 q 559 336 526 197 l 234 336 l 247 405 l 566 405 q 563 510 572 458 q 532 600 555 562 q 392 679 485 675 z "},"ю":{"ha":1102,"x_min":39,"x_max":1026,"o":"m 189 399 l 388 399 q 438 541 404 474 q 524 656 472 607 q 760 748 625 751 q 944 670 874 745 q 1023 469 1014 595 q 1020 357 1026 429 q 954 164 1006 251 q 821 31 901 77 q 646 -14 742 -16 q 496 34 559 -11 q 403 158 433 79 q 382 331 372 238 l 178 330 l 120 0 l 39 0 l 168 734 l 248 734 l 189 399 m 464 350 q 474 201 455 269 q 537 95 492 134 q 650 54 583 56 q 811 110 739 52 q 918 271 882 168 q 942 481 954 374 q 883 622 932 569 q 755 678 833 675 q 562 590 642 682 q 465 357 481 499 l 464 350 z "},"я":{"ha":739,"x_min":-13,"x_max":680,"o":"m 680 734 l 552 0 l 471 0 l 523 296 l 307 296 l 81 0 l -13 0 l 223 308 q 130 386 160 332 q 104 509 99 439 q 192 673 112 612 q 393 734 272 734 l 680 734 m 185 508 q 213 406 178 444 q 309 366 248 368 l 534 365 l 587 665 l 391 665 q 250 623 308 665 q 185 508 193 580 z "},"ђ":{"ha":746,"x_min":31,"x_max":664,"o":"m 460 838 l 257 838 l 212 610 q 327 714 263 679 q 463 747 391 749 q 615 675 566 745 q 650 477 664 604 l 562 -60 q 485 -237 547 -174 q 328 -299 423 -300 q 243 -285 288 -298 l 258 -217 q 330 -229 292 -228 q 428 -186 389 -229 q 481 -60 468 -144 l 570 479 q 571 553 574 517 q 439 678 559 675 q 198 503 292 680 l 111 0 l 31 0 l 176 838 l 56 838 l 68 907 l 189 907 l 212 1042 l 292 1042 l 269 907 l 472 907 l 460 838 z "},"є":{"ha":727,"x_min":57,"x_max":669,"o":"m 317 54 q 459 98 397 52 q 543 226 521 145 l 620 226 q 512 50 600 117 q 313 -14 424 -17 q 136 61 201 -12 q 62 262 71 134 q 80 445 57 352 q 152 606 103 537 q 271 712 201 675 q 427 747 340 749 q 602 673 536 745 q 665 486 669 601 l 587 486 q 546 623 591 569 q 422 679 501 676 q 253 611 323 682 q 149 401 182 540 l 477 401 l 465 332 l 141 332 q 141 235 136 284 q 196 104 151 151 q 317 54 241 57 z "},"љ":{"ha":1158,"x_min":-45,"x_max":1078,"o":"m 645 440 l 842 439 q 1015 378 951 436 q 1071 227 1078 321 q 983 63 1064 125 q 777 0 903 0 l 488 0 l 603 664 l 320 664 l 262 390 l 246 309 q 151 71 214 144 q -12 0 88 -3 l -45 0 l -37 71 l -9 72 q 105 135 60 75 q 173 327 149 195 l 187 410 l 255 734 l 696 734 l 645 440 m 633 372 l 581 68 l 779 67 q 922 110 863 67 q 990 228 981 153 q 958 329 998 291 q 841 371 918 368 l 633 372 z "},"њ":{"ha":1167,"x_min":37,"x_max":1088,"o":"m 194 442 l 576 442 l 627 734 l 707 734 l 656 440 l 854 439 q 1026 378 963 436 q 1081 226 1088 321 q 993 61 1074 123 q 787 0 912 0 l 499 0 l 564 374 l 182 374 l 117 0 l 37 0 l 164 734 l 245 734 l 194 442 m 644 372 l 591 68 l 790 67 q 932 110 873 67 q 1000 228 991 153 q 968 330 1008 292 q 852 371 929 368 l 644 372 z "},"ћ":{"ha":758,"x_min":31,"x_max":664,"o":"m 469 846 l 256 846 l 212 610 q 462 747 318 750 q 616 673 568 745 q 650 477 664 602 l 570 0 l 490 0 l 570 479 q 571 553 574 517 q 439 677 559 674 q 307 635 368 679 q 198 503 245 591 l 111 0 l 31 0 l 178 846 l 64 846 l 77 915 l 190 915 l 212 1042 l 292 1042 l 269 915 l 481 915 l 469 846 z "},"џ":{"ha":764,"x_min":37,"x_max":707,"o":"m 245 734 l 130 68 l 511 68 l 627 734 l 707 734 l 580 0 l 351 0 l 309 -239 l 229 -239 l 271 0 l 37 0 l 164 734 l 245 734 z "},"Ѡ":{"ha":1202,"x_min":85,"x_max":1194,"o":"m 1194 987 l 1072 273 q 968 60 1049 138 q 766 -14 886 -17 q 636 25 691 -13 q 564 128 582 62 q 459 21 522 59 q 315 -14 397 -17 q 143 71 202 -11 q 100 280 85 152 l 220 987 l 304 987 l 184 279 q 184 203 180 241 q 225 97 190 136 q 321 56 260 58 q 464 111 404 52 q 543 271 524 169 l 665 987 l 750 987 l 630 279 q 658 118 620 178 q 770 56 696 58 l 772 56 q 917 114 857 52 q 991 279 977 176 l 1112 987 l 1194 987 z "},"ѡ":{"ha":1116,"x_min":75,"x_max":1057,"o":"m 1057 734 l 976 260 q 882 57 958 132 q 692 -15 806 -18 q 575 21 625 -14 q 509 113 526 55 q 283 -15 425 -19 q 127 63 180 -12 q 87 259 75 138 l 166 734 l 246 734 l 167 258 q 166 189 163 224 l 170 166 q 290 54 191 57 q 419 104 366 50 q 490 258 473 158 l 571 734 l 652 734 l 572 258 q 597 111 563 166 q 701 54 632 56 q 829 106 776 50 q 895 258 882 163 l 975 734 l 1057 734 z "},"ѣ":{"ha":727,"x_min":37,"x_max":633,"o":"m 461 734 l 248 734 l 203 479 l 400 479 q 571 412 509 476 q 625 245 633 348 q 535 68 616 136 q 327 0 454 0 l 39 0 l 166 734 l 37 734 l 49 802 l 178 802 l 221 1049 l 302 1049 l 259 802 l 473 802 l 461 734 m 191 410 l 132 68 l 330 68 q 476 117 417 68 q 544 245 535 165 q 511 363 552 319 q 398 410 471 407 l 191 410 z "},"Ѥ":{"ha":1211,"x_min":66,"x_max":1152,"o":"m 245 551 l 412 549 l 413 557 q 506 803 442 699 q 657 955 570 906 q 852 1002 745 1004 q 1072 912 992 999 q 1150 678 1152 825 l 1068 679 q 1011 863 1068 797 q 848 932 955 929 q 629 842 718 935 q 498 564 541 748 l 494 549 l 846 551 l 834 482 l 486 482 l 478 431 q 473 349 473 391 q 497 199 471 268 q 571 95 522 130 q 690 58 621 60 q 1004 308 926 50 l 1085 308 q 943 68 1048 154 q 686 -13 837 -17 q 474 81 553 -10 q 390 327 395 172 q 397 435 388 384 l 405 482 l 233 482 l 149 0 l 66 0 l 238 987 l 321 987 l 245 551 z "},"ѥ":{"ha":1008,"x_min":38,"x_max":946,"o":"m 189 408 l 348 408 q 480 662 387 574 q 704 747 574 751 q 880 672 814 745 q 942 486 946 600 l 865 486 q 824 623 869 569 q 700 679 779 676 q 531 612 602 682 q 429 408 460 541 l 742 408 l 730 338 l 420 338 q 419 240 414 290 q 472 106 427 155 q 595 54 517 57 q 738 99 676 52 q 821 226 799 146 l 897 226 q 790 51 878 119 q 591 -14 703 -17 q 399 78 468 -11 q 339 309 331 166 l 342 339 l 178 338 l 119 0 l 38 0 l 165 734 l 246 734 l 189 408 z "},"Ѧ":{"ha":815,"x_min":-49,"x_max":731,"o":"m 593 321 l 436 321 l 380 0 l 298 0 l 354 321 l 209 321 l 41 0 l -49 0 l 474 987 l 554 987 l 731 0 l 649 0 l 593 321 m 246 394 l 581 394 l 497 871 l 246 394 z "},"ѧ":{"ha":718,"x_min":-57,"x_max":610,"o":"m 474 235 l 361 235 l 320 0 l 239 0 l 281 235 l 168 235 l 31 0 l -57 0 l 368 734 l 439 734 l 610 0 l 530 0 l 474 235 m 208 304 l 457 304 l 398 553 l 389 633 l 347 545 l 208 304 z "},"Ѩ":{"ha":1190,"x_min":79,"x_max":1080,"o":"m 230 394 l 507 394 l 822 987 l 902 987 l 1080 0 l 997 0 l 941 321 l 784 321 l 728 0 l 646 0 l 703 321 l 557 321 l 389 0 l 299 0 l 470 322 l 218 322 l 161 0 l 79 0 l 250 987 l 333 987 l 230 394 m 595 394 l 928 394 l 845 871 l 595 394 z "},"ѩ":{"ha":1021,"x_min":60,"x_max":903,"o":"m 195 304 l 413 304 l 662 734 l 733 734 l 903 0 l 824 0 l 768 235 l 656 235 l 614 0 l 534 0 l 575 235 l 462 235 l 324 0 l 237 0 l 373 235 l 182 235 l 142 0 l 60 0 l 189 734 l 269 734 l 195 304 m 502 304 l 751 304 l 692 553 l 684 633 l 642 545 l 502 304 z "},"Ѫ":{"ha":1105,"x_min":32,"x_max":1028,"o":"m 32 0 l 75 257 q 179 460 94 392 q 412 529 264 529 l 484 528 l 280 987 l 1028 987 l 665 528 l 718 528 q 917 455 853 523 q 967 257 980 387 l 925 0 l 842 0 l 884 258 q 856 405 896 357 q 717 456 817 453 l 608 458 l 600 447 l 520 0 l 437 0 l 519 450 l 517 457 l 409 458 q 157 257 185 461 l 115 0 l 32 0 m 563 528 l 573 528 l 873 916 l 403 916 l 563 528 z "},"ѫ":{"ha":959,"x_min":33,"x_max":843,"o":"m 33 0 l 55 145 q 158 338 76 273 q 387 404 239 404 l 233 734 l 843 734 l 567 401 q 753 329 693 398 q 798 132 812 259 l 778 0 l 697 0 l 718 133 q 718 217 724 180 q 670 302 709 273 q 559 334 631 331 l 514 334 l 504 323 l 447 0 l 366 0 l 426 328 l 424 334 l 376 334 q 212 288 271 336 q 136 136 152 241 l 114 0 l 33 0 m 467 403 l 481 403 l 690 664 l 354 663 l 467 403 z "},"Ѭ":{"ha":1463,"x_min":66,"x_max":1386,"o":"m 241 529 l 806 529 l 807 528 l 839 529 l 638 987 l 1386 987 l 1023 528 l 1076 528 q 1254 473 1190 525 q 1325 257 1340 404 l 1283 0 l 1200 0 l 1242 258 q 1214 405 1254 357 q 1076 456 1173 453 l 966 458 l 958 447 l 878 0 l 795 0 l 876 450 l 875 457 l 767 458 q 515 257 543 461 l 473 0 l 389 0 l 435 273 q 541 461 458 397 l 229 460 l 149 0 l 66 0 l 237 987 l 320 987 l 241 529 m 920 528 l 930 528 l 1230 916 l 761 916 l 920 528 z "},"ѭ":{"ha":1255,"x_min":39,"x_max":1139,"o":"m 863 401 q 1049 328 989 397 q 1095 132 1109 258 l 1074 0 l 994 0 l 1015 133 q 1015 217 1021 180 q 859 334 997 329 l 810 334 l 801 323 l 743 0 l 663 0 l 723 328 l 720 334 l 663 335 q 505 287 561 335 q 433 141 448 238 l 411 0 l 329 0 l 355 155 q 455 335 378 269 l 178 334 l 120 0 l 39 0 l 167 734 l 248 734 l 190 403 l 663 403 l 677 404 l 684 404 l 530 734 l 1139 734 l 863 401 m 764 403 l 777 403 l 987 664 l 651 663 l 764 403 z "},"Ѯ":{"ha":700,"x_min":-12,"x_max":716,"o":"m 684 733 q 622 597 677 656 q 469 504 568 539 q 587 417 549 477 q 618 273 625 357 q 517 81 608 157 q 279 -5 426 5 l 244 -6 l 199 -5 q 103 -32 136 -7 q 66 -98 71 -56 q 159 -218 60 -174 l 124 -277 q 25 -201 62 -250 q -9 -96 -12 -151 q 51 20 -5 -22 q 204 62 108 62 l 246 62 q 446 118 366 62 q 537 271 526 175 q 493 415 547 364 q 316 469 438 466 l 223 470 l 235 540 l 319 539 q 518 591 444 539 q 603 736 593 643 q 562 866 612 817 q 408 918 511 914 l 191 918 l 203 987 l 396 986 q 615 917 536 985 q 684 733 693 848 m 507 1166 l 644 1295 l 716 1296 l 716 1287 l 534 1111 l 475 1111 l 347 1288 l 347 1297 l 418 1296 l 507 1166 z "},"ѯ":{"ha":659,"x_min":-26,"x_max":598,"o":"m 266 406 q 437 442 376 406 q 505 545 498 478 q 468 630 511 599 q 334 663 425 661 l 136 664 l 149 734 l 323 733 q 520 683 447 732 q 586 543 593 633 q 421 372 577 433 q 543 212 550 328 q 455 59 536 117 q 239 -5 374 1 l 214 -6 l 184 -5 q 52 -98 61 -9 q 144 -218 45 -174 l 109 -276 q 10 -200 46 -249 q -23 -96 -26 -152 q 37 20 -20 -22 q 190 62 94 62 q 337 79 285 62 q 423 128 390 96 q 463 208 456 160 q 261 336 477 335 l 170 337 l 182 407 l 266 406 m 389 943 l 525 1072 l 598 1073 l 597 1065 l 415 887 l 357 887 l 229 1065 l 229 1074 l 300 1073 l 389 943 z "},"Ѳ":{"ha":913,"x_min":77,"x_max":855,"o":"m 386 -14 q 167 82 248 -11 q 79 332 86 176 q 85 445 77 389 l 99 541 q 184 786 119 677 q 341 949 248 895 q 546 1001 434 1003 q 704 957 636 999 q 810 836 772 915 q 853 655 848 756 q 847 542 855 595 l 832 444 q 746 198 810 305 q 589 37 682 90 q 386 -14 496 -16 m 177 525 l 763 525 q 772 635 772 589 q 712 848 772 771 q 542 928 652 926 q 308 828 403 932 q 177 525 213 724 m 753 456 l 169 456 l 166 439 q 160 353 160 397 q 221 139 160 217 q 390 59 281 62 q 665 213 563 53 q 751 440 724 304 l 753 456 z "},"ѳ":{"ha":768,"x_min":43,"x_max":700,"o":"m 56 373 q 131 583 70 489 q 289 720 193 677 q 430 747 353 749 q 628 653 555 744 q 694 412 700 562 l 692 380 q 626 168 678 256 q 492 32 573 80 q 316 -14 412 -17 q 163 36 226 -12 q 71 168 100 84 q 54 351 43 252 l 56 373 m 320 54 q 496 124 420 51 q 608 334 572 198 l 130 334 q 172 135 120 212 q 320 54 224 58 m 426 679 q 248 607 325 682 q 138 402 171 532 l 614 402 q 609 507 619 456 q 573 597 599 558 q 426 679 522 675 z "},"Ѵ":{"ha":836,"x_min":120,"x_max":912,"o":"m 318 171 l 324 102 l 357 174 l 666 819 q 763 960 710 920 q 887 1002 817 1001 l 912 1002 l 903 928 l 896 929 q 761 840 812 931 l 742 803 l 349 0 l 271 0 l 120 987 l 207 987 l 318 171 z "},"ѵ":{"ha":671,"x_min":87,"x_max":728,"o":"m 248 176 l 255 94 l 496 610 q 661 749 558 751 q 728 734 694 749 l 711 669 q 672 678 687 677 q 575 595 616 680 l 274 0 l 209 0 l 87 734 l 167 734 l 248 176 z "},"Ѻ":{"ha":913,"x_min":77,"x_max":854,"o":"m 423 -12 l 407 -96 l 326 -96 l 343 -11 q 152 98 222 5 q 79 340 81 191 q 85 444 77 395 l 100 543 q 240 863 130 741 q 513 999 350 985 l 530 1080 l 610 1080 l 594 998 q 783 886 715 979 q 854 645 850 793 q 847 542 854 591 l 833 454 q 693 125 802 247 q 423 -12 585 4 m 772 667 q 719 840 767 772 q 586 924 671 908 l 570 845 l 490 846 l 503 927 q 291 808 376 911 q 182 539 207 706 l 164 419 l 161 360 q 207 157 157 236 q 351 61 256 78 l 367 140 l 447 140 l 433 60 q 639 174 557 77 q 748 433 722 272 l 765 543 q 772 667 774 602 z "},"ѻ":{"ha":757,"x_min":44,"x_max":701,"o":"m 396 745 l 411 821 l 491 821 l 475 744 q 631 653 574 728 q 695 460 689 578 q 659 235 701 340 q 536 64 617 129 q 349 -12 455 0 l 334 -90 l 254 -90 l 269 -9 q 102 101 160 9 q 53 332 44 193 l 54 351 l 56 363 q 167 627 75 525 q 396 745 258 729 m 363 56 q 527 156 461 74 q 610 357 593 238 q 614 471 618 420 q 570 605 608 551 q 468 675 532 659 l 452 592 l 372 593 l 389 676 q 247 603 307 660 q 155 455 186 545 q 132 262 125 365 q 174 128 136 182 q 277 59 212 75 l 294 138 l 372 138 l 363 56 z "},"Ѽ":{"ha":1196,"x_min":87,"x_max":1148,"o":"m 922 985 q 1091 898 1034 982 q 1133 680 1148 814 l 1069 292 q 965 63 1047 144 q 764 -15 883 -18 q 634 24 690 -14 q 559 127 578 62 q 455 21 517 59 q 311 -15 393 -17 q 145 67 202 -12 q 97 277 87 146 l 98 292 l 161 680 q 264 906 182 827 q 473 987 345 985 l 465 917 q 322 854 380 915 q 246 688 264 794 l 182 291 q 180 212 178 253 q 220 101 185 143 q 317 56 256 58 q 460 111 400 52 q 538 271 520 169 l 593 599 l 677 599 l 624 279 q 651 120 612 182 q 771 55 690 58 q 908 112 850 52 q 984 279 965 172 l 1049 681 q 1052 761 1054 720 q 1012 870 1047 830 q 917 915 977 911 l 922 985 m 1029 1140 l 1024 1082 l 1004 1082 q 941 1095 972 1083 q 859 1137 909 1107 q 779 1179 809 1167 q 719 1190 748 1190 q 641 1162 672 1190 q 603 1090 610 1135 l 602 1078 l 541 1078 l 543 1099 q 600 1212 551 1171 q 718 1251 648 1252 q 863 1195 778 1249 q 1009 1140 947 1141 l 1029 1140 m 639 936 q 703 1032 692 981 l 714 1098 l 785 1097 l 775 1029 q 670 903 761 953 l 639 936 z "},"ѽ":{"ha":1082,"x_min":65,"x_max":1011,"o":"m 806 741 q 961 658 910 736 q 997 456 1011 579 l 970 276 q 876 59 950 136 q 690 -15 801 -18 q 569 21 621 -14 q 500 114 518 55 q 274 -15 417 -19 q 118 66 172 -13 q 80 271 65 145 l 107 456 q 201 667 126 593 q 395 743 275 741 l 387 675 q 258 618 310 673 q 189 465 205 564 l 160 271 q 159 199 156 237 q 194 95 162 134 q 281 53 226 56 q 412 105 357 50 q 483 262 467 160 l 509 425 l 589 425 l 563 258 q 589 111 553 166 q 697 53 626 55 q 823 109 772 51 q 890 275 874 168 l 916 457 q 919 530 920 492 q 885 631 916 593 q 800 672 854 668 l 806 741 m 941 920 l 935 861 l 916 861 q 770 916 855 863 q 629 969 684 969 q 552 942 583 969 q 513 869 522 914 l 512 857 l 452 857 l 453 871 q 509 989 460 947 q 629 1030 557 1031 q 706 1012 670 1029 q 773 975 742 994 q 842 939 805 956 q 920 920 878 921 l 941 920 m 543 708 q 605 804 596 753 l 616 869 l 688 869 l 678 800 q 573 674 664 724 l 543 708 z "},"Ѿ":{"ha":1202,"x_min":85,"x_max":1194,"o":"m 1194 987 l 1072 273 q 967 60 1048 138 q 764 -14 886 -17 q 635 24 690 -13 q 563 128 581 61 q 458 21 521 59 q 313 -14 396 -17 q 142 71 200 -11 q 100 280 85 152 l 220 987 l 304 987 l 184 279 q 184 203 180 241 q 225 98 189 137 q 320 56 260 58 q 469 115 409 52 q 543 279 529 178 l 664 987 l 749 987 l 630 279 q 658 118 620 178 q 772 56 696 58 q 916 114 857 52 q 990 279 976 176 l 1111 987 l 1194 987 m 490 1150 l 498 1206 l 996 1206 l 987 1150 l 769 1150 l 755 1074 l 681 1074 l 696 1150 l 490 1150 z "},"ѿ":{"ha":1116,"x_min":75,"x_max":1057,"o":"m 1057 734 l 976 260 q 882 57 958 132 q 692 -15 806 -18 q 575 21 625 -14 q 509 113 526 55 q 283 -15 425 -19 q 126 64 178 -12 q 87 259 75 139 l 166 734 l 246 734 l 167 258 q 166 189 163 224 l 170 166 q 290 54 191 57 q 420 105 366 50 q 490 258 473 159 l 571 734 l 652 734 l 572 258 q 572 188 568 223 q 612 91 579 127 q 701 54 646 56 q 829 107 777 50 q 895 258 882 163 l 975 734 l 1057 734 m 399 932 l 408 987 l 907 987 l 899 932 l 680 932 l 664 844 l 589 844 l 607 932 l 399 932 z "},"Ҁ":{"ha":859,"x_min":85,"x_max":844,"o":"m 383 -248 l 300 -248 l 343 -12 q 206 44 263 -1 q 119 170 149 90 q 87 345 88 250 q 113 570 85 421 q 219 829 141 720 q 411 980 297 938 q 545 1002 474 1003 q 765 912 686 999 q 835 679 844 825 l 752 679 q 704 861 758 794 q 542 931 649 928 q 384 887 456 933 q 260 749 311 840 q 192 543 209 657 q 173 414 174 429 l 170 361 q 222 142 168 223 q 377 57 276 61 l 436 56 l 383 -248 z "},"ҁ":{"ha":711,"x_min":58,"x_max":675,"o":"m 322 -248 l 241 -248 l 286 -12 q 115 103 171 5 q 73 351 58 201 l 75 363 q 195 644 95 538 q 436 747 294 751 q 611 671 546 745 q 666 485 675 597 l 589 485 q 553 623 597 570 q 432 679 509 676 q 250 598 325 682 q 156 376 176 513 l 153 351 l 149 286 q 195 120 149 182 q 321 55 240 58 l 372 54 l 322 -248 z "},"҂":{"ha":829,"x_min":58,"x_max":810,"o":"m 361 290 l 531 173 l 487 113 l 315 227 l 153 0 l 58 0 l 255 273 l 85 389 l 129 449 l 301 334 l 495 604 l 323 720 l 369 781 l 540 666 l 717 910 l 810 910 l 599 621 l 772 505 l 725 445 l 555 559 l 361 290 z "},"҃":{"ha":0,"x_min":-495,"x_max":-48,"o":"m -404 908 l -420 825 l -495 825 l -471 962 l -136 962 l -123 1035 l -48 1035 l -71 908 l -404 908 z "},"҄":{"ha":0,"x_min":-506,"x_max":-22,"o":"m -481 945 q -323 1001 -418 947 q -165 1055 -229 1055 q -59 1012 -96 1054 q -28 905 -22 970 l -30 884 l -92 884 l -90 897 q -105 965 -86 939 q -169 994 -124 992 q -234 983 -201 994 q -322 943 -268 972 q -413 901 -377 913 q -482 888 -449 888 l -506 888 l -499 945 l -481 945 z "},"҅":{"ha":0,"x_min":-323,"x_max":-205,"o":"m -323 1021 l -308 1107 l -215 1107 l -233 1008 l -205 929 l -245 899 l -323 1021 z "},"҆":{"ha":0,"x_min":-305,"x_max":-141,"o":"m -269 899 l -305 932 l -249 1017 l -234 1107 l -141 1107 l -155 1017 l -269 899 z "},"҈":{"ha":0,"x_min":-1002,"x_max":278,"o":"m -418 860 q -370 955 -410 920 q -270 987 -329 989 q -176 952 -210 986 q -142 859 -141 918 l -216 859 q -269 928 -213 928 q -343 860 -325 928 l -418 860 m -62 672 q -15 765 -54 730 q 85 800 24 800 q 180 764 145 798 q 214 671 215 730 l 139 671 q 86 740 142 740 q 14 672 34 740 l -62 672 m 2 330 q 51 425 10 391 q 150 458 91 459 q 243 422 209 457 q 277 330 278 388 l 203 330 q 151 399 206 399 q 76 331 96 399 l 2 330 m -188 -22 q -139 74 -179 40 q -41 106 -100 107 q 54 71 19 105 q 87 -22 88 37 l 12 -22 q -40 47 16 47 q -114 -21 -94 47 l -188 -22 m -602 -214 q -554 -120 -593 -154 q -453 -86 -514 -85 q -358 -123 -392 -87 q -325 -215 -323 -159 l -399 -215 q -452 -146 -396 -146 q -526 -214 -507 -146 l -602 -214 m -828 672 q -779 767 -820 732 q -679 800 -739 801 q -585 764 -619 798 q -551 671 -550 730 l -625 671 q -678 740 -622 740 q -752 672 -734 740 l -828 672 m -1002 330 q -953 425 -994 391 q -854 458 -913 459 q -760 423 -794 457 q -727 330 -726 389 l -801 330 q -854 399 -798 399 q -928 331 -908 399 l -1002 330 m -954 -22 q -905 73 -945 39 q -806 106 -865 107 q -711 71 -746 105 q -678 -22 -677 37 l -753 -22 q -806 47 -749 47 q -879 -21 -861 47 l -954 -22 z "},"҉":{"ha":0,"x_min":-991,"x_max":228,"o":"m -388 -40 l -380 -52 l -498 -280 l -566 -280 l -479 -41 l -388 -40 m -373 763 l -380 773 l -263 1002 l -195 1002 l -282 764 l -373 763 m 10 428 l 18 435 l 228 350 l 216 286 l -3 334 l 10 428 m -773 293 l -782 286 l -991 372 l -980 435 l -761 388 l -773 293 m -102 680 l -100 690 l 127 795 l 167 745 l -44 612 l -102 680 m -665 14 l -668 3 l -895 -102 l -935 -51 l -723 81 l -665 14 m -656 583 l -668 585 l -730 810 l -682 854 l -583 648 l -656 583 m -113 109 l -102 108 l -39 -117 l -88 -162 l -186 43 l -113 109 z "},"Ҋ":{"ha":966,"x_min":52,"x_max":934,"o":"m 848 987 l 934 987 l 762 0 l 679 0 l 825 838 l 138 0 l 52 0 l 224 987 l 307 987 l 161 151 l 848 987 m 806 1230 q 739 1100 796 1147 q 600 1055 682 1053 q 472 1104 520 1057 q 428 1230 424 1152 l 496 1230 q 520 1145 493 1176 q 602 1113 547 1114 q 694 1143 659 1112 q 740 1229 730 1175 l 806 1230 m 713 -216 l 667 -178 q 760 1 745 -89 l 777 97 l 855 97 l 840 -1 q 713 -216 818 -128 z "},"ҋ":{"ha":777,"x_min":37,"x_max":707,"o":"m 624 734 l 707 734 l 580 0 l 498 0 l 603 596 l 119 0 l 37 0 l 164 734 l 244 734 l 140 137 l 624 734 m 659 998 q 592 868 649 916 q 453 823 535 821 q 325 872 373 825 q 281 998 277 920 l 349 998 q 373 913 346 944 q 454 881 399 882 q 547 911 512 880 q 593 997 583 943 l 659 998 m 530 -216 l 485 -178 q 578 1 563 -89 l 594 97 l 673 97 l 658 -1 q 530 -216 635 -128 z "},"ҍ":{"ha":727,"x_min":39,"x_max":633,"o":"m 493 918 l 279 918 l 203 479 l 400 479 q 571 412 508 476 q 625 245 633 348 q 535 68 616 136 q 327 0 454 0 l 39 0 l 199 918 l 68 918 l 81 987 l 210 987 l 232 1109 l 313 1109 l 291 987 l 505 987 l 493 918 m 191 410 l 132 68 l 330 68 q 476 117 418 69 q 544 245 535 165 q 511 363 552 319 q 398 410 471 407 l 191 410 z "},"Ҏ":{"ha":858,"x_min":47,"x_max":829,"o":"m 201 402 l 130 0 l 47 0 l 218 987 l 540 987 q 755 903 680 983 q 816 698 829 824 q 693 473 801 557 l 760 374 l 705 331 l 633 437 q 450 402 553 404 l 201 402 m 650 535 q 733 698 721 600 q 692 854 745 795 q 538 916 638 913 l 290 916 l 212 473 l 446 473 q 588 497 520 473 l 526 592 l 581 635 l 650 535 z "},"ҏ":{"ha":767,"x_min":-18,"x_max":675,"o":"m 535 74 l 591 -20 l 536 -62 l 481 27 q 338 -13 410 -14 q 219 13 274 -12 q 130 92 164 38 l 62 -282 l -18 -282 l 158 734 l 233 734 l 214 630 q 452 747 309 751 q 660 572 614 743 q 675 461 674 520 q 640 245 675 346 q 535 74 606 144 m 593 443 q 554 612 595 550 q 431 677 513 675 q 301 643 359 679 q 203 537 243 606 l 143 184 q 211 90 165 122 q 322 56 256 57 q 440 90 378 56 l 384 184 l 440 227 l 493 140 q 567 277 542 198 q 593 443 591 357 z "},"Ґ":{"ha":745,"x_min":45,"x_max":836,"o":"m 787 918 l 786 918 l 786 916 l 287 916 l 127 0 l 45 0 l 216 987 l 716 987 l 759 1227 l 836 1227 l 787 918 z "},"ґ":{"ha":596,"x_min":33,"x_max":644,"o":"m 591 664 l 229 664 l 113 0 l 33 0 l 160 734 l 522 734 l 563 968 l 644 968 l 591 664 z "},"Ҕ":{"ha":785,"x_min":50,"x_max":801,"o":"m 789 916 l 292 916 l 231 561 l 353 560 q 615 456 528 559 q 682 178 702 352 q 567 -87 665 16 q 322 -195 469 -191 l 327 -127 q 510 -41 436 -125 q 601 179 585 43 q 553 405 618 322 q 354 488 488 488 l 218 489 l 133 0 l 50 0 l 222 987 l 801 987 l 789 916 z "},"ҕ":{"ha":677,"x_min":33,"x_max":602,"o":"m 589 664 l 229 664 l 186 424 l 267 423 q 500 338 418 422 q 568 117 582 255 q 474 -78 556 3 q 271 -184 391 -159 l 257 -120 q 415 -32 355 -95 q 486 117 475 31 q 441 286 498 224 q 275 351 383 348 l 175 352 l 113 0 l 33 0 l 160 734 l 602 734 l 589 664 z "},"Җ":{"ha":1240,"x_min":-59,"x_max":1251,"o":"m 756 470 l 647 470 l 565 0 l 482 0 l 564 470 l 458 470 l 51 0 l -59 0 l 388 514 l 142 987 l 235 987 l 460 541 l 576 541 l 654 987 l 736 987 l 659 541 l 768 541 l 1147 987 l 1251 987 l 833 507 l 1099 0 l 1001 0 l 756 470 m 1089 -241 l 1008 -241 l 1065 83 l 1146 83 l 1089 -241 z "},"җ":{"ha":1052,"x_min":-59,"x_max":1039,"o":"m 637 339 l 541 339 l 482 0 l 401 0 l 460 339 l 372 339 l 50 0 l -59 0 l 306 380 l 108 734 l 199 734 l 376 412 l 473 412 l 529 734 l 610 734 l 553 412 l 645 412 l 935 734 l 1039 734 l 710 372 l 938 0 l 842 0 l 637 339 m 917 -241 l 836 -241 l 892 83 l 974 83 l 917 -241 z "},"Қ":{"ha":907,"x_min":53,"x_max":910,"o":"m 349 463 l 216 463 l 136 0 l 53 0 l 224 987 l 307 987 l 229 534 l 351 534 l 800 987 l 910 987 l 429 498 l 762 0 l 666 0 l 349 463 m 736 -253 l 655 -253 l 711 71 l 793 71 l 736 -253 z "},"қ":{"ha":761,"x_min":36,"x_max":716,"o":"m 286 336 l 176 336 l 117 0 l 36 0 l 163 734 l 245 734 l 188 408 l 291 408 l 609 734 l 716 734 l 358 374 l 614 0 l 516 0 l 286 336 m 597 -241 l 516 -241 l 572 83 l 654 83 l 597 -241 z "},"Ҝ":{"ha":833,"x_min":46,"x_max":877,"o":"m 877 987 l 506 505 l 741 0 l 642 0 l 434 467 l 373 467 l 339 273 l 270 273 l 304 467 l 211 467 l 130 0 l 46 0 l 218 987 l 301 987 l 223 538 l 316 538 l 349 730 l 418 730 l 385 538 l 444 538 l 773 987 l 877 987 z "},"ҝ":{"ha":734,"x_min":35,"x_max":743,"o":"m 743 734 l 450 376 l 643 0 l 543 0 l 382 336 l 332 336 l 303 175 l 234 175 l 263 336 l 176 336 l 117 0 l 35 0 l 163 734 l 244 734 l 187 408 l 275 408 l 304 572 l 373 572 l 344 408 l 389 408 l 636 734 l 743 734 z "},"Ҡ":{"ha":1095,"x_min":141,"x_max":1160,"o":"m 600 463 l 467 463 l 386 0 l 302 0 l 463 918 l 141 918 l 153 987 l 557 987 l 478 534 l 601 534 l 1050 987 l 1160 987 l 678 498 l 1011 0 l 916 0 l 600 463 z "},"ҡ":{"ha":895,"x_min":77,"x_max":905,"o":"m 476 336 l 365 336 l 306 0 l 225 0 l 340 664 l 77 664 l 90 734 l 433 734 l 377 408 l 480 408 l 798 734 l 905 734 l 547 374 l 804 0 l 705 0 l 476 336 z "},"Ң":{"ha":960,"x_min":50,"x_max":933,"o":"m 761 0 l 677 0 l 760 473 l 215 473 l 132 0 l 50 0 l 221 987 l 304 987 l 227 544 l 772 544 l 849 987 l 933 987 l 761 0 m 790 -241 l 709 -241 l 766 83 l 847 83 l 790 -241 z "},"ң":{"ha":770,"x_min":37,"x_max":707,"o":"m 580 0 l 498 0 l 557 336 l 176 336 l 117 0 l 37 0 l 164 734 l 245 734 l 187 405 l 569 405 l 627 734 l 707 734 l 580 0 m 608 -241 l 528 -241 l 584 83 l 665 83 l 608 -241 z "},"Ҥ":{"ha":1364,"x_min":47,"x_max":1407,"o":"m 225 544 l 771 544 l 848 987 l 1407 987 l 1394 918 l 919 918 l 760 0 l 676 0 l 759 473 l 214 473 l 131 0 l 47 0 l 219 987 l 302 987 l 225 544 z "},"ҥ":{"ha":982,"x_min":33,"x_max":985,"o":"m 184 405 l 565 405 l 623 734 l 985 734 l 973 664 l 691 664 l 576 0 l 495 0 l 553 336 l 172 336 l 113 0 l 33 0 l 160 734 l 241 734 l 184 405 z "},"Ҧ":{"ha":1380,"x_min":45,"x_max":1286,"o":"m 848 566 l 947 566 q 1138 519 1059 566 q 1252 385 1217 472 q 1274 184 1286 298 q 1158 -82 1256 21 q 913 -190 1060 -185 l 918 -122 q 1102 -36 1027 -120 q 1192 184 1176 48 q 1147 407 1209 324 q 957 494 1086 490 l 836 494 l 751 0 l 667 0 l 827 916 l 287 916 l 127 0 l 45 0 l 216 987 l 922 987 l 848 566 z "},"ҧ":{"ha":1154,"x_min":33,"x_max":1065,"o":"m 650 424 l 742 423 q 981 339 897 422 q 1050 117 1065 256 q 960 -76 1039 6 q 758 -184 880 -158 l 742 -119 q 897 -34 838 -96 q 968 118 957 28 q 923 286 981 224 q 751 351 864 348 l 637 352 l 576 0 l 496 0 l 611 664 l 229 664 l 113 0 l 33 0 l 160 734 l 704 734 l 650 424 z "},"Ҩ":{"ha":1008,"x_min":82,"x_max":977,"o":"m 877 -18 q 634 30 741 -15 q 420 -14 529 -15 q 184 86 274 -10 q 85 344 95 183 q 91 463 82 405 l 115 614 q 244 896 148 791 q 483 1003 341 1000 l 475 930 q 294 836 369 926 q 195 591 219 746 l 174 458 q 169 367 168 413 q 201 208 170 279 q 290 99 233 137 q 423 60 348 60 q 552 78 481 58 q 437 251 470 152 q 420 459 405 350 l 446 624 q 557 898 473 798 q 763 996 641 999 q 918 915 862 993 q 976 709 974 838 q 972 631 977 668 l 946 464 q 713 76 907 209 q 882 54 786 56 l 877 -18 m 500 357 q 543 214 507 277 q 642 112 579 152 q 783 246 726 161 q 859 444 839 332 l 890 633 l 895 690 q 884 807 897 752 q 838 892 870 863 q 758 924 806 922 q 616 853 675 927 q 532 642 557 780 l 503 457 q 500 357 496 406 z "},"ҩ":{"ha":807,"x_min":66,"x_max":741,"o":"m 692 -9 q 502 28 585 -6 q 330 -14 415 -15 q 200 24 257 -13 q 109 130 143 60 q 71 283 75 199 q 83 442 66 348 q 181 665 107 584 q 361 749 254 745 l 353 677 q 218 590 272 674 q 152 351 164 506 l 151 304 q 199 125 151 192 q 333 58 247 59 q 427 74 377 58 q 343 215 366 136 q 330 379 320 294 l 340 446 q 424 671 360 590 q 581 748 488 751 q 700 677 659 745 q 741 499 741 609 q 728 364 741 450 q 676 207 715 279 q 572 79 637 136 q 699 62 622 64 l 692 -9 m 410 301 q 441 193 414 242 q 513 113 468 144 q 645 354 618 199 q 661 529 663 462 q 574 677 654 673 q 478 626 517 680 q 422 463 439 572 q 410 301 405 353 z "},"Ҳ":{"ha":843,"x_min":-31,"x_max":873,"o":"m 435 571 l 770 987 l 873 987 l 477 496 l 724 0 l 630 0 l 419 430 l 72 0 l -31 0 l 378 505 l 138 987 l 232 987 l 435 571 m 692 -241 l 612 -241 l 668 83 l 749 83 l 692 -241 z "},"ҳ":{"ha":672,"x_min":-35,"x_max":667,"o":"m 328 437 l 566 734 l 667 734 l 366 370 l 557 0 l 468 0 l 315 309 l 64 0 l -35 0 l 278 378 l 94 734 l 184 734 l 328 437 m 538 -241 l 457 -241 l 513 83 l 595 83 l 538 -241 z "},"Ҵ":{"ha":1177,"x_min":111,"x_max":1091,"o":"m 372 918 l 111 918 l 123 987 l 381 987 l 381 987 l 465 987 l 464 987 l 749 987 l 736 918 l 456 918 l 309 71 l 849 71 l 1008 987 l 1091 987 l 932 72 l 1027 72 l 967 -238 l 890 -238 l 932 0 l 214 0 l 372 918 z "},"ҵ":{"ha":887,"x_min":62,"x_max":816,"o":"m 260 665 l 62 665 l 75 734 l 542 734 l 530 665 l 340 665 l 237 68 l 619 68 l 735 734 l 816 734 l 701 68 l 773 68 l 717 -218 l 642 -218 l 681 0 l 145 0 l 260 665 z "},"Ҷ":{"ha":902,"x_min":159,"x_max":884,"o":"m 884 987 l 713 0 l 629 0 l 710 449 q 448 410 572 408 q 229 492 299 413 q 176 715 159 570 l 221 987 l 304 987 l 260 714 q 452 484 233 488 q 718 520 567 481 l 801 987 l 884 987 m 732 -241 l 651 -241 l 707 83 l 789 83 l 732 -241 z "},"ҷ":{"ha":730,"x_min":92,"x_max":675,"o":"m 548 0 l 467 0 l 524 309 q 335 273 419 273 q 150 345 208 274 q 107 548 92 416 l 136 734 l 217 734 l 187 547 q 186 464 182 501 q 340 344 202 344 q 531 377 423 342 l 595 734 l 675 734 l 548 0 m 568 -241 l 488 -241 l 544 83 l 625 83 l 568 -241 z "},"Ҹ":{"ha":900,"x_min":151,"x_max":876,"o":"m 296 987 l 252 714 q 283 547 239 606 q 437 481 328 488 l 479 713 l 547 713 l 507 483 q 710 519 600 490 l 793 987 l 876 987 l 705 0 l 621 0 l 702 450 q 498 412 596 420 l 466 244 l 397 244 l 429 411 q 218 493 286 416 q 168 715 151 571 l 213 987 l 296 987 z "},"ҹ":{"ha":747,"x_min":119,"x_max":702,"o":"m 574 0 l 493 0 l 550 309 q 410 275 479 285 l 389 160 l 319 160 l 341 273 q 172 349 224 280 q 134 548 119 418 l 163 734 l 243 734 l 214 547 q 212 469 209 505 q 349 342 221 353 l 385 541 l 455 541 l 420 345 q 557 376 488 355 l 621 734 l 702 734 l 574 0 z "},"Һ":{"ha":900,"x_min":38,"x_max":762,"o":"m 38 0 l 210 987 l 292 987 l 211 538 q 473 575 356 577 q 691 495 620 574 q 745 272 762 416 l 700 0 l 617 0 l 663 273 q 629 443 675 383 q 471 505 583 503 q 203 467 354 507 l 121 0 l 38 0 z "},"Ҽ":{"ha":1024,"x_min":76,"x_max":980,"o":"m 559 -14 q 369 38 448 -13 q 252 179 289 89 q 231 393 214 275 l 249 498 q 119 574 162 513 q 85 730 76 635 l 155 730 q 155 672 151 699 q 256 564 163 585 q 405 883 288 762 q 682 1000 522 1004 q 878 924 802 998 q 970 724 954 851 q 969 569 980 646 l 958 495 l 330 495 l 313 393 q 325 220 300 297 q 411 101 350 144 q 562 57 472 58 q 832 137 703 54 l 852 73 q 559 -14 743 -17 m 338 560 l 886 560 l 891 590 q 893 709 899 650 q 827 868 883 810 q 677 928 770 926 q 465 839 555 932 q 342 584 374 745 l 338 560 z "},"ҽ":{"ha":802,"x_min":21,"x_max":743,"o":"m 399 -14 q 247 36 311 -12 q 154 169 183 84 q 138 347 124 253 l 142 376 q 50 446 79 394 q 27 579 21 498 l 95 579 l 93 537 q 151 440 93 467 q 290 668 196 586 q 500 747 385 751 q 640 701 584 745 q 720 581 696 657 q 733 411 743 505 l 727 361 l 219 361 q 216 245 208 298 q 279 110 229 161 q 406 56 330 58 q 524 81 471 54 q 621 153 576 108 l 668 115 q 550 18 618 51 q 399 -14 481 -15 m 496 679 q 336 617 406 682 q 229 431 266 551 l 654 430 l 656 440 q 625 607 671 538 q 496 679 579 675 z "},"Ӄ":{"ha":833,"x_min":46,"x_max":876,"o":"m 130 0 l 46 0 l 218 987 l 301 987 l 224 543 l 334 543 l 770 987 l 876 987 l 435 541 q 680 433 597 536 q 743 160 762 331 q 627 -106 726 -2 q 378 -214 529 -210 l 385 -145 q 569 -60 495 -143 q 660 160 644 23 q 613 384 676 303 q 421 468 550 464 l 212 469 l 130 0 z "},"ӄ":{"ha":718,"x_min":35,"x_max":715,"o":"m 368 404 q 555 308 492 387 q 606 110 617 229 q 513 -80 594 -1 q 311 -184 432 -159 l 297 -120 q 453 -36 394 -96 q 524 111 513 24 q 479 273 538 213 q 304 336 420 333 l 175 336 l 117 0 l 35 0 l 163 734 l 244 734 l 187 408 l 271 408 l 608 734 l 715 734 l 368 404 z "},"Ӆ":{"ha":958,"x_min":-43,"x_max":925,"o":"m 925 987 l 753 0 l 671 0 l 829 916 l 428 916 l 338 522 l 307 368 q 183 81 260 165 q -12 0 106 -3 l -43 0 l -35 70 l -9 71 q 151 163 90 75 q 244 452 212 252 l 258 532 l 360 987 l 925 987 m 704 -216 l 659 -178 q 751 1 736 -89 l 768 97 l 846 97 l 831 -1 q 704 -216 809 -128 z "},"ӆ":{"ha":778,"x_min":-40,"x_max":708,"o":"m 708 734 l 581 0 l 499 0 l 615 664 l 326 664 l 267 390 l 252 309 q 157 72 220 146 q -7 0 94 -3 l -40 0 l -31 71 l -5 72 q 112 137 67 75 q 180 338 157 199 l 192 410 l 260 734 l 708 734 m 531 -216 l 486 -178 q 578 1 564 -89 l 595 97 l 673 97 l 659 -1 q 531 -216 636 -128 z "},"Ӈ":{"ha":956,"x_min":51,"x_max":928,"o":"m 305 987 l 224 524 l 764 524 l 845 987 l 928 987 l 749 -58 q 670 -236 733 -172 q 511 -298 608 -300 q 431 -283 473 -296 l 448 -215 q 515 -228 486 -228 q 612 -187 572 -229 q 665 -63 652 -144 l 752 453 l 212 453 l 134 0 l 51 0 l 222 987 l 305 987 z "},"ӈ":{"ha":757,"x_min":33,"x_max":703,"o":"m 241 734 l 184 405 l 565 405 l 623 734 l 703 734 l 568 -60 q 491 -237 553 -174 q 334 -299 429 -300 q 256 -286 301 -298 l 271 -217 q 336 -230 304 -229 q 432 -190 393 -231 q 486 -68 471 -149 l 553 336 l 172 336 l 113 0 l 33 0 l 160 734 l 241 734 z "},"Ӊ":{"ha":965,"x_min":50,"x_max":933,"o":"m 761 0 l 677 0 l 760 473 l 215 473 l 132 0 l 50 0 l 221 987 l 304 987 l 227 544 l 772 544 l 849 987 l 933 987 l 761 0 m 712 -216 l 667 -178 q 760 1 745 -89 l 776 97 l 854 97 l 840 -1 q 712 -216 817 -128 z "},"ӊ":{"ha":777,"x_min":37,"x_max":707,"o":"m 580 0 l 498 0 l 557 336 l 176 336 l 117 0 l 37 0 l 164 734 l 245 734 l 187 405 l 569 405 l 627 734 l 707 734 l 580 0 m 530 -216 l 484 -178 q 577 1 562 -89 l 593 97 l 672 97 l 657 -1 q 530 -216 635 -128 z "},"Ӎ":{"ha":1175,"x_min":50,"x_max":1146,"o":"m 328 987 l 530 118 l 1034 987 l 1146 987 l 975 0 l 892 0 l 967 433 l 1048 861 l 545 0 l 481 0 l 277 867 l 207 429 l 132 0 l 50 0 l 221 987 l 328 987 m 920 -216 l 875 -178 q 968 1 953 -89 l 984 97 l 1063 97 l 1048 -1 q 920 -216 1025 -128 z "},"ӎ":{"ha":1005,"x_min":39,"x_max":935,"o":"m 444 112 l 833 734 l 935 734 l 807 0 l 726 0 l 830 593 l 457 0 l 399 0 l 227 616 l 120 0 l 39 0 l 167 734 l 270 734 l 444 112 m 759 -216 l 713 -178 q 806 1 791 -89 l 823 97 l 901 97 l 886 -1 q 759 -216 864 -128 z "},"Ә":{"ha":949,"x_min":72,"x_max":909,"o":"m 551 1000 q 754 940 671 999 q 873 778 838 882 q 892 546 909 674 l 878 451 q 790 213 857 324 q 627 43 724 102 q 416 -14 530 -16 q 220 43 301 -12 q 106 197 140 99 q 89 416 72 295 l 102 500 l 800 500 l 808 547 q 812 688 820 619 q 729 862 798 798 q 549 928 661 926 q 264 848 407 931 l 244 911 q 379 978 301 955 q 551 1000 458 1002 m 420 57 q 583 99 509 55 q 711 232 656 144 q 793 432 766 319 l 176 432 l 170 395 q 169 267 159 328 q 251 115 185 171 q 420 57 317 60 z "},"Ӡ":{"ha":783,"x_min":46,"x_max":777,"o":"m 665 916 l 188 916 l 201 987 l 777 987 l 766 919 l 412 568 q 610 484 544 562 q 665 273 677 405 q 610 122 657 189 q 486 19 564 55 q 318 -16 408 -18 q 120 67 193 -13 q 57 274 46 146 l 140 274 q 182 118 131 178 q 323 56 234 58 q 500 114 428 54 q 583 271 572 174 q 545 442 594 383 q 389 502 495 501 l 310 503 l 323 575 l 665 916 z "},"ӡ":{"ha":783,"x_min":2,"x_max":730,"o":"m 616 664 l 144 664 l 157 734 l 730 734 l 720 667 l 368 311 q 564 224 496 302 q 619 20 631 146 q 564 -132 612 -65 q 440 -234 517 -198 q 273 -268 363 -270 q 75 -185 149 -265 q 13 20 2 -104 l 94 20 q 137 -136 85 -75 q 279 -199 189 -197 q 456 -141 384 -201 q 539 16 529 -80 q 500 184 551 124 q 342 247 450 243 l 265 248 l 278 321 l 616 664 z "},"Ӻ":{"ha":773,"x_min":-100,"x_max":823,"o":"m 811 916 l 315 916 l 155 0 l 73 0 l 244 987 l 823 987 l 811 916 m 438 511 l 34 511 l 46 581 l 450 581 l 438 511 m 238 92 l 214 -65 q 135 -239 197 -178 q -21 -298 73 -300 q -100 -283 -56 -297 l -83 -214 q -16 -227 -52 -225 q 82 -184 43 -228 q 135 -57 122 -140 l 158 92 l 238 92 z "},"ӻ":{"ha":601,"x_min":-108,"x_max":631,"o":"m 618 664 l 258 664 l 143 0 l 62 0 l 190 734 l 631 734 l 618 664 m 418 382 l 14 382 l 26 451 l 431 451 l 418 382 m 230 92 l 206 -65 q 127 -239 189 -178 q -29 -298 65 -300 q -108 -283 -64 -297 l -91 -214 q -24 -227 -60 -225 q 74 -184 35 -228 q 127 -57 114 -140 l 150 92 l 230 92 z "},"Ӽ":{"ha":851,"x_min":-31,"x_max":873,"o":"m 435 571 l 770 987 l 873 987 l 477 496 l 724 0 l 630 0 l 419 430 l 72 0 l -31 0 l 378 505 l 138 987 l 232 987 l 435 571 m 758 92 l 734 -65 q 655 -239 717 -178 q 498 -298 593 -300 q 420 -283 464 -297 l 437 -214 q 503 -227 468 -225 q 602 -184 562 -228 q 654 -57 642 -140 l 677 92 l 758 92 z "},"ӽ":{"ha":679,"x_min":-35,"x_max":667,"o":"m 328 437 l 566 734 l 667 734 l 366 370 l 557 0 l 468 0 l 315 309 l 64 0 l -35 0 l 278 378 l 94 734 l 184 734 l 328 437 m 603 92 l 579 -65 q 500 -239 562 -178 q 344 -298 438 -300 q 265 -283 309 -297 l 282 -214 q 349 -227 313 -225 q 447 -184 408 -228 q 500 -57 487 -140 l 523 92 l 603 92 z "},"Ԁ":{"ha":779,"x_min":22,"x_max":792,"o":"m 636 572 l 709 987 l 792 987 l 621 0 l 307 1 q 97 80 172 5 q 33 282 22 155 q 145 494 45 416 q 395 573 245 573 l 636 572 m 549 71 l 625 502 l 393 503 q 205 443 281 503 q 117 284 130 384 q 158 133 106 191 q 309 71 210 75 l 549 71 z "},"Ԃ":{"ha":1059,"x_min":23,"x_max":1013,"o":"m 308 1 q 96 82 170 7 q 35 282 23 157 q 147 495 47 417 q 396 573 247 573 l 637 572 l 710 987 l 793 987 l 634 69 l 710 68 q 871 152 812 70 q 930 394 930 233 q 918 509 929 452 l 994 509 q 1006 394 1002 451 q 978 186 1013 277 q 871 48 943 96 q 707 0 800 -1 l 308 1 m 551 71 l 626 502 l 394 503 q 205 443 281 503 q 118 284 130 384 q 159 133 106 191 q 309 71 211 75 l 551 71 z "},"ԃ":{"ha":1164,"x_min":58,"x_max":1064,"o":"m 398 747 q 515 717 463 746 q 597 630 567 688 l 674 1058 l 755 1058 l 615 233 q 614 174 612 205 q 642 89 616 121 q 714 54 668 56 q 911 175 840 50 q 985 497 983 300 q 977 632 986 564 l 1053 632 q 1061 498 1060 564 q 1022 235 1064 356 q 898 49 980 115 q 707 -14 815 -16 q 593 20 640 -13 q 535 123 547 53 q 282 -15 436 -19 q 122 60 180 -12 q 61 260 64 133 q 80 435 58 340 q 148 603 102 529 q 258 713 194 677 q 398 747 321 749 m 583 547 q 408 677 539 675 q 236 595 305 681 q 147 359 168 509 l 146 345 l 141 282 q 180 117 139 176 q 300 56 221 58 q 527 187 439 52 l 532 233 l 583 547 z "},"Ԅ":{"ha":1070,"x_min":121,"x_max":976,"o":"m 452 260 q 424 400 461 348 q 308 456 387 453 l 175 457 l 188 529 l 296 528 q 485 582 414 528 q 567 736 556 635 q 525 866 576 820 q 363 916 473 912 l 121 916 l 134 987 l 351 987 q 584 920 505 986 q 651 734 662 853 q 588 584 644 648 q 433 487 532 521 q 537 329 530 446 l 537 275 l 530 205 q 551 99 524 139 q 629 56 578 58 q 764 107 704 52 q 858 268 823 162 q 893 498 893 374 q 884 633 893 565 l 962 632 q 972 498 970 564 q 931 237 976 358 q 807 50 887 116 q 622 -15 727 -16 q 486 45 532 -14 q 447 206 439 104 l 452 260 z "},"ԅ":{"ha":873,"x_min":72,"x_max":810,"o":"m 427 144 q 440 77 423 100 q 504 52 458 54 q 624 93 572 50 q 702 219 675 136 q 724 395 728 302 q 707 501 722 448 l 785 500 l 800 395 q 773 191 810 292 q 664 37 736 90 q 498 -16 592 -17 q 381 25 420 -15 q 346 145 341 65 l 352 201 q 217 323 361 316 l 72 323 l 83 391 l 215 391 q 354 427 299 391 q 415 526 408 464 q 379 626 422 589 q 256 666 336 663 l 79 667 l 87 734 l 258 733 q 439 676 375 730 q 496 530 503 622 q 343 358 487 415 q 432 201 442 320 l 427 144 z "},"Ԇ":{"ha":725,"x_min":138,"x_max":633,"o":"m 138 446 l 151 515 l 254 515 q 455 569 379 515 q 542 720 532 623 q 500 863 551 812 q 344 917 448 914 l 152 918 l 164 987 l 333 986 q 558 915 482 985 q 622 719 633 844 q 562 578 615 640 q 414 480 509 515 q 540 326 525 444 q 539 252 544 290 l 524 159 l 518 104 l 597 104 l 581 5 q 457 -210 559 -121 l 408 -172 q 501 0 479 -91 l 468 1 q 442 119 438 44 q 458 251 443 141 q 421 391 468 338 q 285 446 374 443 l 138 446 z "},"ԇ":{"ha":682,"x_min":115,"x_max":570,"o":"m 115 317 l 125 386 l 269 385 q 421 421 366 385 q 484 527 475 457 q 316 664 498 663 l 117 665 l 131 734 l 328 733 q 508 676 446 730 q 564 530 570 623 q 408 352 554 406 q 502 239 491 322 q 501 183 505 212 l 489 109 l 559 109 l 546 22 q 416 -203 524 -115 l 371 -167 q 460 0 438 -87 l 420 1 q 408 58 406 27 q 422 182 409 87 q 392 279 428 245 q 288 316 356 313 l 115 317 z "},"Ԉ":{"ha":1310,"x_min":-26,"x_max":1232,"o":"m 817 916 l 444 916 l 355 519 l 330 393 q 212 96 287 188 q 20 0 136 4 l -26 0 l -17 70 l 12 71 q 165 159 104 75 q 259 433 225 243 l 278 541 l 377 987 l 912 987 l 785 233 q 783 174 781 205 q 811 90 785 121 q 884 56 837 58 q 1079 175 1007 52 q 1152 497 1150 298 q 1143 632 1152 564 l 1221 632 q 1230 498 1228 564 q 1188 230 1232 350 q 1063 46 1144 111 q 876 -15 982 -19 q 734 53 781 -13 q 701 234 688 119 l 817 916 z "},"ԉ":{"ha":1091,"x_min":-35,"x_max":1017,"o":"m 597 664 l 330 664 l 272 390 l 256 310 q 160 70 222 142 q -3 0 97 -3 l -35 0 l -26 71 l 0 72 q 117 137 72 75 q 184 338 161 199 l 197 410 l 264 734 l 690 734 l 606 233 q 605 176 604 206 q 631 89 606 121 q 700 54 655 56 q 825 100 771 52 q 908 241 880 149 q 935 446 937 334 q 925 573 935 509 l 1000 573 q 1010 446 1007 509 q 979 212 1017 323 q 866 42 941 102 q 692 -15 791 -18 q 557 54 601 -13 q 526 234 513 120 l 597 664 z "},"Ԋ":{"ha":1319,"x_min":53,"x_max":1206,"o":"m 884 987 l 758 232 q 756 173 754 203 q 785 88 758 120 q 857 56 811 56 q 997 107 937 53 q 1090 266 1057 161 q 1124 497 1124 370 q 1115 632 1124 564 l 1193 632 q 1203 498 1201 564 q 1161 232 1206 354 q 1036 46 1117 110 q 848 -16 955 -18 q 709 52 755 -14 q 673 234 663 117 l 708 452 l 215 452 l 136 0 l 53 0 l 224 987 l 308 987 l 227 524 l 720 524 l 802 987 l 884 987 z "},"ԋ":{"ha":1120,"x_min":27,"x_max":1023,"o":"m 546 333 l 166 333 l 108 0 l 27 0 l 155 734 l 236 734 l 178 401 l 557 401 l 615 734 l 695 734 l 612 233 q 610 176 609 206 q 636 89 612 121 q 705 54 661 56 q 831 100 778 52 q 914 241 885 148 q 941 446 943 334 q 930 573 940 509 l 1005 573 q 1017 446 1013 509 q 985 212 1023 323 q 871 42 947 101 q 699 -16 796 -18 q 564 53 608 -14 q 532 234 520 120 l 546 333 z "},"Ԍ":{"ha":839,"x_min":83,"x_max":772,"o":"m 391 -14 q 239 27 305 -12 q 133 139 173 66 q 87 302 94 211 q 90 405 83 353 l 117 574 q 267 885 146 766 q 553 1002 387 1004 q 772 949 684 1001 l 738 884 q 550 932 652 930 q 322 835 418 933 q 199 572 226 737 l 172 404 q 168 323 167 364 q 233 131 172 203 q 396 56 294 58 q 544 93 479 54 q 644 205 608 132 q 680 412 679 279 q 675 534 681 473 l 754 533 l 759 412 q 717 177 762 270 q 585 34 671 85 q 391 -14 498 -16 z "},"ԍ":{"ha":696,"x_min":62,"x_max":613,"o":"m 333 54 q 469 96 416 53 q 530 222 521 139 l 535 286 l 534 364 l 608 364 l 611 286 q 578 116 613 180 q 477 18 543 52 q 328 -14 411 -16 q 178 36 239 -12 q 90 166 117 83 q 72 351 62 249 l 73 363 q 192 643 94 536 q 429 749 291 750 q 608 703 542 749 l 578 640 q 426 680 515 679 q 259 609 330 682 q 161 411 187 537 q 149 285 146 341 q 201 116 153 177 q 333 54 250 56 z "},"Ԏ":{"ha":960,"x_min":109,"x_max":882,"o":"m 447 916 l 109 916 l 121 987 l 882 987 l 869 916 l 530 916 l 415 233 q 414 174 412 205 q 443 88 416 120 q 515 56 469 56 q 655 107 595 53 q 749 266 715 161 q 783 497 782 370 q 773 632 783 564 l 851 632 q 861 498 859 564 q 819 231 863 353 q 694 45 774 109 q 507 -16 614 -18 q 368 51 415 -14 q 332 234 321 116 l 447 916 z "},"ԏ":{"ha":867,"x_min":88,"x_max":768,"o":"m 342 665 l 88 665 l 100 734 l 699 734 l 686 665 l 424 665 l 353 233 q 351 173 349 204 q 380 88 353 120 q 452 54 406 56 q 577 97 523 52 q 660 226 631 142 q 685 419 688 311 q 672 537 683 478 l 747 537 q 760 419 755 478 q 731 198 768 301 q 619 39 694 96 q 447 -15 545 -17 q 308 52 355 -14 q 271 234 260 117 l 342 665 z "},"Ԑ":{"ha":896,"x_min":64,"x_max":877,"o":"m 480 468 q 247 414 328 468 q 155 260 165 361 q 213 112 144 167 q 406 56 281 58 q 613 114 527 54 q 720 273 700 173 l 801 274 q 734 119 789 184 q 592 19 680 54 q 402 -14 505 -16 q 222 22 302 -12 q 104 117 143 56 q 71 262 64 178 q 138 414 78 351 q 313 509 198 477 q 200 595 240 539 q 166 722 161 650 q 273 920 176 846 q 526 1001 370 994 l 564 1002 q 790 923 704 998 q 867 728 877 848 l 785 728 q 731 871 793 816 q 560 930 669 927 q 348 879 434 934 q 250 725 261 823 q 302 588 239 635 q 494 540 364 541 l 610 539 l 597 467 l 480 468 z "},"Ԓ":{"ha":959,"x_min":-43,"x_max":925,"o":"m 925 987 l 753 0 l 671 0 l 829 916 l 428 916 l 338 522 l 307 368 q 183 81 260 165 q -12 0 106 -3 l -43 0 l -35 70 l -9 71 q 151 163 90 75 q 244 452 212 252 l 258 532 l 360 987 l 925 987 m 847 92 l 823 -65 q 744 -239 806 -178 q 588 -298 682 -300 q 509 -283 553 -297 l 526 -214 q 593 -227 557 -225 q 691 -184 652 -228 q 744 -57 731 -140 l 767 92 l 847 92 z "},"ԓ":{"ha":779,"x_min":-40,"x_max":708,"o":"m 708 734 l 581 0 l 499 0 l 615 664 l 326 664 l 267 390 l 252 309 q 157 72 220 146 q -7 0 94 -3 l -40 0 l -31 71 l -5 72 q 112 137 67 75 q 180 338 157 199 l 192 410 l 260 734 l 708 734 m 675 92 l 651 -65 q 572 -239 634 -178 q 416 -298 510 -300 q 337 -283 381 -297 l 354 -214 q 420 -227 385 -225 q 519 -184 479 -228 q 572 -57 559 -140 l 595 92 l 675 92 z "}," ":{"ha":694,"x_min":0,"x_max":0,"o":""}," ":{"ha":1381,"x_min":0,"x_max":0,"o":""}," ":{"ha":694,"x_min":0,"x_max":0,"o":""}," ":{"ha":1381,"x_min":0,"x_max":0,"o":""}," ":{"ha":465,"x_min":0,"x_max":0,"o":""}," ":{"ha":350,"x_min":0,"x_max":0,"o":""}," ":{"ha":236,"x_min":0,"x_max":0,"o":""}," ":{"ha":764,"x_min":0,"x_max":0,"o":""}," ":{"ha":375,"x_min":0,"x_max":0,"o":""}," ":{"ha":281,"x_min":0,"x_max":0,"o":""}," ":{"ha":144,"x_min":0,"x_max":0,"o":""},"​":{"ha":0,"x_min":0,"x_max":0,"o":""},"‐":{"ha":387,"x_min":31,"x_max":359,"o":"m 347 401 l 31 401 l 43 470 l 359 470 l 347 401 z "},"‑":{"ha":387,"x_min":31,"x_max":359,"o":"m 347 401 l 31 401 l 43 470 l 359 470 l 347 401 z "},"–":{"ha":884,"x_min":115,"x_max":792,"o":"m 777 465 l 115 465 l 130 534 l 792 534 l 777 465 z "},"—":{"ha":1046,"x_min":97,"x_max":1000,"o":"m 979 465 l 97 465 l 117 534 l 1000 534 l 979 465 z "},"‗":{"ha":617,"x_min":-83,"x_max":540,"o":"m 499 -234 l -83 -234 l -70 -165 l 511 -165 l 499 -234 m 528 -68 l -54 -68 l -41 0 l 540 0 l 528 -68 z "},"‘":{"ha":246,"x_min":125,"x_max":311,"o":"m 264 1055 l 311 1018 q 221 852 239 936 l 205 760 l 125 760 l 136 834 q 264 1055 157 964 z "},"’":{"ha":246,"x_min":106,"x_max":291,"o":"m 154 744 l 106 782 q 195 951 178 866 l 212 1042 l 291 1042 l 279 964 q 154 744 258 831 z "},"‚":{"ha":239,"x_min":-64,"x_max":121,"o":"m -19 -157 l -64 -120 q 24 45 5 -39 l 41 139 l 121 139 l 109 58 q -19 -157 86 -68 z "},"‛":{"ha":246,"x_min":149,"x_max":265,"o":"m 248 1042 l 235 960 q 235 867 228 911 q 265 779 241 823 l 216 746 q 163 848 177 791 q 156 963 149 905 l 168 1042 l 248 1042 z "},"“":{"ha":410,"x_min":125,"x_max":476,"o":"m 264 1055 l 311 1018 q 222 852 240 936 l 205 760 l 125 760 l 137 834 q 264 1055 157 964 m 429 1055 l 476 1018 q 387 852 405 936 l 370 760 l 290 760 l 302 834 q 429 1055 322 964 z "},"”":{"ha":412,"x_min":110,"x_max":456,"o":"m 158 744 l 110 782 q 199 951 182 866 l 216 1042 l 295 1042 l 283 964 q 158 744 262 831 m 319 744 l 271 782 q 360 951 342 866 l 376 1042 l 456 1042 l 444 964 q 319 744 422 831 z "},"„":{"ha":397,"x_min":-66,"x_max":278,"o":"m -20 -163 l -66 -126 q 26 59 10 -36 l 44 160 l 124 160 l 109 61 q -20 -163 87 -73 m 140 -164 l 89 -125 q 178 51 160 -42 l 197 160 l 278 160 l 260 48 q 140 -164 238 -77 z "},"†":{"ha":748,"x_min":83,"x_max":747,"o":"m 736 663 l 452 663 l 349 0 l 268 0 l 372 663 l 83 663 l 94 734 l 382 734 l 422 987 l 503 987 l 463 734 l 747 734 l 736 663 z "},"‡":{"ha":766,"x_min":-9,"x_max":758,"o":"m 643 0 l 352 0 l 308 -282 l 226 -282 l 271 0 l -9 0 l 2 68 l 281 68 l 374 664 l 94 664 l 106 734 l 385 734 l 425 987 l 507 987 l 467 734 l 758 734 l 747 664 l 456 664 l 363 68 l 654 68 l 643 0 z "},"•":{"ha":442,"x_min":111,"x_max":356,"o":"m 112 505 q 152 596 116 562 q 243 631 189 631 q 325 599 294 631 q 356 512 356 567 l 355 487 q 316 398 351 432 q 225 365 280 365 q 142 397 174 365 q 111 481 111 430 l 112 505 z "},"‥":{"ha":618,"x_min":45,"x_max":432,"o":"m 46 49 q 65 89 48 73 q 106 106 83 106 q 146 90 131 107 q 160 49 162 73 q 141 10 159 25 q 100 -6 124 -5 q 61 9 77 -7 q 46 49 45 24 m 316 49 q 335 89 318 73 q 376 106 353 106 q 416 90 401 107 q 430 49 432 73 q 411 10 429 25 q 370 -6 394 -5 q 331 9 347 -7 q 316 49 315 24 z "},"…":{"ha":871,"x_min":45,"x_max":690,"o":"m 46 49 q 65 89 48 73 q 106 106 83 106 q 146 90 131 107 q 160 49 162 73 q 141 10 159 25 q 100 -6 124 -5 q 61 9 77 -7 q 46 49 45 24 m 316 49 q 335 89 318 73 q 376 106 353 106 q 416 90 401 107 q 430 49 432 73 q 411 10 429 25 q 370 -6 394 -5 q 331 9 347 -7 q 316 49 315 24 m 574 49 q 593 89 576 73 q 634 106 610 106 q 674 90 659 107 q 688 49 690 73 q 669 10 686 25 q 628 -6 652 -5 q 588 9 604 -7 q 574 49 572 24 z "},"‧":{"ha":235,"x_min":63,"x_max":176,"o":"m 64 436 q 82 474 66 458 q 121 491 98 490 q 160 476 145 492 q 174 436 176 460 q 156 397 172 413 q 115 381 139 382 q 77 396 92 380 q 64 436 63 412 z "},"‰":{"ha":1321,"x_min":117,"x_max":1226,"o":"m 528 242 q 598 389 538 330 q 743 447 657 448 q 831 420 792 446 q 886 348 870 395 q 963 421 919 395 q 1058 446 1007 448 q 1181 386 1137 444 q 1220 242 1226 328 l 1215 196 q 1144 41 1205 100 q 1001 -15 1083 -18 q 911 11 951 -14 q 852 83 871 36 q 686 -14 787 -17 q 562 47 608 -13 q 524 189 516 106 l 528 242 m 341 1002 q 466 941 420 1000 q 505 798 511 883 l 500 752 q 430 598 490 657 q 288 542 370 539 q 164 601 211 543 q 123 745 117 659 l 127 791 q 197 945 138 886 q 341 1002 256 1004 m 589 188 q 611 85 585 125 q 691 43 638 45 q 785 82 745 42 q 834 189 825 121 l 840 243 q 817 347 844 309 q 738 387 790 386 q 644 349 683 389 q 595 242 604 309 l 589 188 m 901 188 q 923 85 896 125 q 1002 43 949 45 q 1098 83 1059 42 q 1145 195 1137 124 l 1150 243 q 1128 347 1155 309 q 1049 387 1101 386 q 952 346 991 389 q 905 235 912 304 l 901 188 m 190 743 q 213 641 185 680 q 292 600 241 602 q 388 642 349 599 q 434 751 427 684 l 439 798 q 422 892 444 853 q 338 943 395 942 q 242 902 282 945 q 195 791 201 859 l 190 743 m 232 82 l 181 119 l 781 886 l 827 853 l 232 82 z "},"‹":{"ha":408,"x_min":64,"x_max":379,"o":"m 147 372 l 281 113 l 217 113 l 64 370 l 66 382 l 302 640 l 379 640 l 147 372 z "},"›":{"ha":408,"x_min":9,"x_max":323,"o":"m 172 640 l 323 381 l 322 368 l 86 110 l 9 110 l 240 377 l 106 640 l 172 640 z "},"⁄":{"ha":610,"x_min":-11,"x_max":635,"o":"m 38 83 l -11 119 l 589 886 l 635 852 l 38 83 z "},"⁴":{"ha":494,"x_min":72,"x_max":498,"o":"m 414 637 l 498 637 l 487 578 l 404 578 l 381 451 l 310 451 l 333 578 l 72 578 l 75 622 l 397 986 l 475 986 l 414 637 m 157 637 l 342 637 l 392 899 l 366 864 l 157 637 z "},"ⁿ":{"ha":574,"x_min":86,"x_max":566,"o":"m 238 986 l 231 893 q 402 995 301 996 q 525 938 484 994 q 556 786 566 883 l 500 441 l 425 441 l 479 778 q 480 834 482 807 q 380 930 471 928 q 284 899 328 930 q 225 818 240 867 l 161 441 l 86 441 l 180 985 l 238 986 z "},"₤":{"ha":777,"x_min":-7,"x_max":770,"o":"m 484 323 l 256 323 l 247 250 q 171 69 230 135 l 663 71 l 650 0 l -7 0 l 5 70 l 67 69 q 164 249 143 97 l 173 323 l 48 323 l 58 384 l 182 384 l 198 498 l 78 498 l 89 559 l 207 559 l 224 695 q 328 921 242 838 q 536 1002 413 1004 q 709 926 648 999 q 759 738 770 853 l 676 738 q 646 874 685 821 q 526 930 607 928 q 381 870 441 932 q 308 699 322 808 l 290 559 l 526 559 l 515 498 l 281 498 l 264 384 l 495 384 l 484 323 z "},"₦":{"ha":1043,"x_min":12,"x_max":1050,"o":"m 911 620 l 1050 620 l 1038 551 l 900 551 l 876 416 l 1015 416 l 1003 347 l 865 347 l 804 0 l 724 0 l 557 347 l 233 347 l 172 0 l 89 0 l 149 347 l 12 347 l 24 416 l 161 416 l 185 551 l 47 551 l 59 620 l 197 620 l 260 987 l 340 987 l 516 620 l 829 620 l 892 987 l 976 987 l 911 620 m 244 416 l 524 416 l 460 551 l 268 551 l 244 416 m 614 416 l 793 416 l 817 551 l 549 551 l 614 416 m 279 620 l 427 620 l 319 846 l 279 620 m 745 140 l 782 347 l 646 347 l 745 140 z "},"₧":{"ha":1109,"x_min":50,"x_max":1046,"o":"m 1035 667 l 888 667 l 806 178 l 804 136 q 873 60 807 62 q 937 65 890 59 l 934 -2 q 852 -12 897 -14 q 750 38 783 -11 q 726 178 717 87 l 807 667 l 705 667 q 581 465 672 533 q 352 396 490 396 l 199 397 l 130 0 l 50 0 l 222 987 l 444 987 q 641 916 569 984 q 708 733 713 847 l 818 734 l 851 922 l 932 922 l 899 734 l 1046 734 l 1035 667 m 212 466 l 355 465 q 539 527 467 465 q 625 696 612 589 q 589 855 637 796 q 442 918 542 913 l 290 918 l 212 466 z "},"₨":{"ha":1416,"x_min":47,"x_max":1355,"o":"m 481 411 l 203 411 l 131 0 l 47 0 l 219 987 l 511 987 q 739 910 659 987 q 806 702 819 833 q 732 531 796 603 q 562 427 668 459 l 730 9 l 729 0 l 641 0 l 481 411 m 215 482 l 459 481 q 638 543 564 481 q 724 703 712 604 q 682 855 735 798 q 524 916 628 913 l 290 916 l 215 482 m 1221 191 q 1107 327 1232 285 l 991 361 q 839 543 830 416 q 923 691 844 634 q 1113 747 1003 749 q 1288 687 1221 746 q 1350 528 1355 627 l 1270 528 q 1229 635 1274 594 q 1109 678 1184 677 q 979 642 1032 678 q 920 546 926 606 q 1027 423 909 458 l 1112 399 l 1157 383 q 1301 195 1310 326 q 1225 51 1296 107 q 1042 -13 1154 -6 l 1015 -14 q 881 15 941 -12 q 789 92 821 43 q 762 206 758 142 l 842 205 q 889 96 842 136 q 1018 55 936 56 q 1156 92 1099 55 q 1221 191 1213 129 z "},"₩":{"ha":1029,"x_min":15,"x_max":1071,"o":"m 662 654 l 860 654 l 984 987 l 1071 987 l 942 654 l 1044 654 l 1031 585 l 916 585 l 858 435 l 1006 435 l 994 366 l 832 366 l 692 0 l 609 0 l 599 366 l 411 366 l 273 0 l 191 0 l 177 366 l 15 366 l 27 435 l 174 435 l 168 585 l 53 585 l 65 654 l 166 654 l 154 987 l 236 987 l 245 654 l 446 654 l 572 987 l 652 987 l 662 654 m 252 435 l 363 435 l 420 585 l 248 585 l 252 435 m 668 435 l 779 435 l 834 585 l 664 585 l 668 435 m 437 435 l 597 435 l 593 585 l 494 585 l 437 435 m 305 280 l 338 366 l 254 366 l 256 275 l 253 134 l 305 280 m 724 290 l 753 366 l 670 366 l 673 281 l 672 132 l 724 290 m 519 654 l 591 654 l 590 713 l 591 851 l 541 710 l 519 654 z "},"₪":{"ha":1034,"x_min":31,"x_max":983,"o":"m 480 732 q 609 685 562 730 q 664 557 656 640 q 663 453 669 507 l 627 233 l 547 233 l 583 454 q 586 531 587 494 q 460 664 581 661 l 227 665 l 111 0 l 31 0 l 158 734 l 480 732 m 299 0 l 386 500 l 466 500 l 391 68 l 616 67 q 758 117 705 66 q 827 279 811 168 l 903 734 l 983 734 l 907 280 q 819 68 888 138 q 633 0 750 -3 l 299 0 z "},"€":{"ha":753,"x_min":50,"x_max":785,"o":"m 534 382 l 260 382 l 258 370 q 257 254 250 310 q 324 112 268 164 q 471 58 380 60 q 621 79 537 56 l 621 7 q 467 -12 540 -14 q 293 38 365 -12 q 191 176 221 87 q 177 370 160 264 l 180 382 l 50 382 l 60 442 l 186 442 l 205 553 l 79 553 l 90 615 l 213 612 l 214 617 q 357 902 250 800 q 629 1002 465 1003 q 785 979 699 1000 l 768 906 q 627 931 697 930 q 417 856 500 933 q 297 619 333 779 l 296 611 l 575 614 l 564 553 l 289 553 l 269 442 l 545 442 l 534 382 z "},"₱":{"ha":931,"x_min":50,"x_max":977,"o":"m 235 402 l 165 0 l 82 0 l 181 567 l 50 567 l 62 635 l 193 635 l 213 752 l 82 752 l 94 821 l 224 821 l 254 987 l 564 987 q 750 943 677 987 q 846 821 823 900 l 977 821 l 965 752 l 860 752 l 853 693 q 837 635 848 665 l 945 635 l 933 567 l 814 566 q 485 401 720 401 l 235 402 m 772 692 q 777 752 775 712 l 296 752 l 275 635 l 754 635 q 772 692 766 664 m 307 821 l 757 821 q 574 916 716 912 l 324 916 l 307 821 m 487 472 q 719 568 633 472 l 264 567 l 247 473 l 487 472 z "},"₹":{"ha":665,"x_min":75,"x_max":728,"o":"m 693 916 l 494 915 q 551 730 556 838 l 683 730 l 649 659 l 546 659 q 429 474 515 539 q 199 405 342 410 l 454 9 l 454 0 l 359 0 l 89 421 l 98 477 l 199 475 q 362 523 294 476 q 463 659 431 570 l 75 659 l 109 730 l 469 730 q 417 862 469 812 q 278 916 365 911 l 129 916 l 164 987 l 728 987 l 693 916 z "},"₺":{"ha":698,"x_min":26,"x_max":644,"o":"m 644 524 l 629 433 q 530 181 602 290 q 353 26 458 73 q 184 -8 274 -10 q 101 0 151 -8 l 178 459 l 26 397 l 41 481 l 193 543 l 211 649 l 59 587 l 74 671 l 225 733 l 270 987 l 353 987 l 315 770 l 486 840 l 471 756 l 300 686 l 281 581 l 454 650 l 439 567 l 267 496 l 192 65 q 424 166 330 67 q 549 448 518 266 l 562 524 l 644 524 z "},"₼":{"ha":892,"x_min":-1,"x_max":775,"o":"m 511 595 q 703 484 634 578 q 774 243 772 390 q 768 144 775 193 l 745 0 l 665 0 l 689 146 q 696 226 694 184 q 648 430 698 354 q 503 524 599 507 l 410 0 l 330 0 l 422 524 q 218 413 300 509 q 106 157 135 318 l 79 0 l -1 0 l 22 140 q 162 460 55 341 q 432 596 270 579 l 458 734 l 538 734 l 511 595 z "},"₽":{"ha":871,"x_min":-9,"x_max":867,"o":"m 450 230 l 208 230 l 168 0 l 85 0 l 126 230 l -9 230 l 4 301 l 138 301 l 156 402 l 21 402 l 34 473 l 168 473 l 257 987 l 566 987 q 788 909 709 987 q 855 699 867 832 q 743 480 841 558 q 488 401 644 401 l 238 402 l 220 301 l 463 301 l 450 230 m 250 473 l 492 472 q 684 532 608 472 q 772 698 760 592 q 731 853 784 793 q 577 916 678 913 l 327 916 l 250 473 z "},"℅":{"ha":998,"x_min":135,"x_max":909,"o":"m 486 701 q 424 584 477 627 q 299 542 372 541 q 180 602 226 543 q 141 745 135 660 l 146 798 q 215 945 156 886 q 354 1003 273 1004 q 470 956 425 1002 q 510 841 514 911 l 446 841 q 424 915 448 888 q 351 943 399 943 q 261 904 300 945 q 212 798 222 863 l 207 745 q 228 642 201 683 q 301 601 254 601 q 380 627 347 600 q 424 700 413 655 l 486 701 m 526 241 q 596 390 536 331 q 739 446 657 448 q 863 386 818 443 q 903 242 909 328 l 898 189 q 827 41 888 100 q 685 -15 766 -18 q 561 45 607 -14 q 521 189 515 103 l 526 241 m 586 188 q 609 84 581 124 q 688 43 636 45 q 782 82 743 42 q 831 189 822 121 l 837 243 q 814 348 842 309 q 735 388 787 387 q 638 347 677 389 q 591 236 599 304 l 586 188 m 237 83 l 187 119 l 787 886 l 834 853 l 237 83 z "},"ℓ":{"ha":633,"x_min":41,"x_max":621,"o":"m 398 -14 q 262 42 313 -10 q 201 182 210 94 q 204 292 196 237 l 209 321 q 41 293 136 296 l 51 370 q 218 403 134 371 l 284 791 q 322 930 294 867 q 391 1021 350 992 q 485 1048 433 1050 q 586 989 551 1046 q 613 836 621 931 l 610 805 q 508 551 593 671 q 295 359 423 431 l 281 270 l 279 212 q 310 101 279 142 q 403 57 342 61 l 398 -14 m 306 450 q 459 616 399 519 q 530 817 519 714 l 532 835 l 535 876 q 522 949 536 920 q 477 979 507 977 q 407 941 436 981 q 364 791 378 900 l 306 450 z "},"№":{"ha":1380,"x_min":45,"x_max":1356,"o":"m 1256 294 l 861 294 l 873 359 l 1268 359 l 1256 294 m 1164 999 q 1306 931 1255 996 q 1348 768 1356 866 l 1340 701 q 1261 528 1328 593 q 1097 465 1194 462 q 955 532 1005 467 q 913 694 904 597 l 920 760 q 1000 936 932 870 q 1164 999 1068 1002 m 987 693 q 1010 574 980 618 q 1102 529 1041 530 q 1212 573 1167 526 q 1267 699 1257 619 l 1275 768 q 1252 886 1282 841 q 1160 934 1223 931 q 1049 889 1095 935 q 994 761 1003 843 l 987 693 m 665 0 l 581 0 l 273 846 l 125 0 l 45 0 l 216 987 l 300 987 l 610 140 l 758 987 l 837 987 l 665 0 z "},"™":{"ha":838,"x_min":163,"x_max":813,"o":"m 748 895 l 604 624 l 570 623 l 518 909 l 469 623 l 420 623 l 481 987 l 541 987 l 595 699 l 750 987 l 813 987 l 751 623 l 702 623 l 748 895 m 422 941 l 316 941 l 262 623 l 213 623 l 266 941 l 163 941 l 169 987 l 428 987 l 422 941 z "},"℮":{"ha":861,"x_min":85,"x_max":779,"o":"m 639 63 q 382 -13 511 -16 q 226 38 296 -12 q 121 175 157 87 q 96 361 85 262 q 169 554 107 462 q 317 698 230 647 q 498 747 405 749 l 499 747 q 648 699 584 745 q 746 568 713 653 q 769 382 779 483 l 766 349 l 260 349 l 220 125 q 383 52 287 55 q 643 134 498 48 l 639 63 m 498 684 q 304 602 408 686 l 271 413 l 624 413 l 658 608 q 498 684 593 681 z "},"⅛":{"ha":1038,"x_min":138,"x_max":934,"o":"m 292 438 l 221 438 l 299 886 l 138 839 l 149 903 l 372 974 l 383 974 l 292 438 m 194 83 l 145 119 l 745 886 l 791 852 l 194 83 m 930 401 q 825 272 926 319 q 884 223 862 254 q 905 149 907 192 q 843 34 902 77 q 699 -8 785 -9 q 568 33 615 -6 q 524 138 520 73 q 646 277 530 230 q 578 389 575 315 q 637 503 582 461 q 769 543 692 545 q 888 504 842 543 q 930 401 934 465 m 833 152 q 806 219 837 193 q 728 244 775 244 q 636 216 674 244 q 593 142 598 187 q 620 75 590 100 q 699 51 650 51 q 791 79 753 51 q 833 152 829 107 m 862 397 q 838 459 865 435 q 768 484 811 484 q 688 457 722 484 q 650 387 654 431 q 673 326 647 349 q 743 302 699 302 q 824 329 790 302 q 862 397 858 355 z "},"⅜":{"ha":1162,"x_min":117,"x_max":1044,"o":"m 271 747 l 322 747 q 420 776 382 749 q 459 843 455 802 q 436 908 463 885 q 366 932 410 932 q 286 909 320 932 q 239 842 252 886 l 169 842 q 234 952 179 911 q 366 991 290 993 q 489 950 442 990 q 530 845 535 911 q 416 719 526 765 q 500 599 505 689 q 438 483 497 526 q 294 440 379 439 q 165 484 214 441 q 119 597 117 526 l 189 597 q 216 527 187 554 q 298 500 245 500 q 390 527 353 500 q 431 600 426 555 q 319 691 439 688 l 264 692 l 271 747 m 315 83 l 266 119 l 866 886 l 912 852 l 315 83 m 1041 401 q 935 272 1036 319 q 995 223 972 254 q 1016 149 1017 192 q 954 34 1013 77 q 809 -8 895 -9 q 678 33 726 -6 q 634 138 631 73 q 756 277 641 230 q 688 389 686 315 q 748 503 692 461 q 880 543 803 545 q 998 504 952 543 q 1041 401 1044 465 m 944 152 q 917 219 947 193 q 838 244 886 244 q 747 216 785 244 q 704 142 709 187 q 730 75 701 100 q 810 51 760 51 q 902 79 864 51 q 944 152 939 107 m 972 397 q 949 459 976 435 q 879 484 922 484 q 799 457 832 484 q 761 387 765 431 q 784 326 758 349 q 854 302 810 302 q 935 329 901 302 q 972 397 968 355 z "},"⅝":{"ha":1146,"x_min":113,"x_max":1027,"o":"m 144 720 l 222 984 l 530 984 l 518 922 l 273 922 l 222 768 q 326 792 269 792 q 443 746 399 792 q 482 627 486 700 q 420 490 478 541 q 278 441 363 439 q 160 485 205 443 q 113 594 114 526 l 181 593 q 209 525 183 549 q 279 501 235 502 q 371 534 334 500 q 412 627 407 568 q 389 707 416 677 q 312 737 362 736 q 203 704 258 739 l 144 720 m 294 83 l 245 119 l 845 886 l 891 852 l 294 83 m 1024 401 q 918 272 1019 319 q 978 223 956 254 q 999 149 1000 192 q 937 34 996 77 q 792 -8 878 -9 q 661 33 709 -6 q 617 138 614 73 q 739 277 624 230 q 671 389 669 315 q 731 503 675 461 q 863 543 786 545 q 981 504 935 543 q 1024 401 1027 465 m 927 152 q 900 219 930 193 q 821 244 869 244 q 730 216 768 244 q 687 142 692 187 q 713 75 684 100 q 793 51 743 51 q 885 79 847 51 q 927 152 922 107 m 956 397 q 932 459 959 435 q 862 484 905 484 q 782 457 815 484 q 744 387 748 431 q 767 326 741 349 q 837 302 793 302 q 918 329 884 302 q 956 397 951 355 z "},"⅞":{"ha":1087,"x_min":153,"x_max":977,"o":"m 557 943 l 232 450 l 153 450 l 476 924 l 159 924 l 170 985 l 562 985 l 557 943 m 227 83 l 178 119 l 779 886 l 825 852 l 227 83 m 974 401 q 868 272 969 319 q 928 223 905 254 q 949 149 950 192 q 887 34 945 77 q 742 -8 828 -9 q 611 33 659 -6 q 567 138 564 73 q 689 277 574 230 q 621 389 618 315 q 681 503 625 461 q 812 543 736 545 q 931 504 885 543 q 974 401 977 465 m 877 152 q 849 219 880 193 q 771 244 819 244 q 680 216 718 244 q 637 142 642 187 q 663 75 633 100 q 743 51 693 51 q 834 79 797 51 q 877 152 872 107 m 905 397 q 882 459 909 435 q 812 484 854 484 q 731 457 765 484 q 694 387 698 431 q 716 326 690 349 q 787 302 743 302 q 867 329 833 302 q 905 397 901 355 z "},"∂":{"ha":776,"x_min":51,"x_max":735,"o":"m 420 693 q 552 659 492 692 q 649 563 613 625 l 653 643 q 632 803 654 726 q 564 919 610 879 q 450 960 517 958 q 249 899 353 962 l 239 964 q 460 1032 343 1035 q 620 977 556 1031 q 709 819 683 922 q 728 585 735 715 q 689 325 719 428 q 603 142 659 221 q 474 23 547 63 q 318 -14 401 -16 q 123 74 195 -12 q 55 300 51 160 l 57 332 l 58 345 q 178 601 77 504 q 420 693 279 697 m 422 624 q 238 554 317 627 q 141 363 160 481 l 137 333 q 174 135 123 212 q 323 54 225 57 q 522 151 440 50 q 631 433 603 252 l 634 454 q 604 539 634 501 q 525 600 574 577 q 422 624 475 623 z "},"∏":{"ha":892,"x_min":24,"x_max":862,"o":"m 682 -165 l 601 -165 l 770 918 l 275 918 l 105 -165 l 24 -165 l 204 987 l 862 987 l 682 -165 z "},"∑":{"ha":785,"x_min":-62,"x_max":833,"o":"m 522 392 l 52 -113 l 687 -113 l 674 -182 l -62 -182 l -50 -117 l 437 405 l 131 928 l 142 987 l 833 987 l 821 918 l 224 918 l 524 410 l 522 392 z "},"−":{"ha":775,"x_min":117,"x_max":682,"o":"m 669 465 l 117 465 l 130 534 l 682 534 l 669 465 z "},"√":{"ha":742,"x_min":46,"x_max":799,"o":"m 277 164 l 281 114 l 302 168 l 712 987 l 799 987 l 298 0 l 233 0 l 149 434 l 46 434 l 58 503 l 214 504 l 277 164 z "},"∞":{"ha":1430,"x_min":63,"x_max":1339,"o":"m 966 -14 q 790 65 864 -11 q 690 268 716 141 q 513 47 600 111 q 328 -15 426 -17 q 181 36 241 -12 q 92 169 120 84 q 73 351 63 254 l 75 368 q 200 644 97 537 q 441 747 302 751 q 614 669 541 744 q 714 474 688 594 l 716 465 q 891 683 802 616 q 1082 748 981 750 q 1258 669 1190 745 q 1335 470 1326 592 q 1335 385 1339 427 l 1333 373 q 1208 90 1311 197 q 966 -14 1105 -18 m 153 349 q 151 283 150 317 q 202 117 153 179 q 332 53 250 54 q 521 140 429 51 q 657 355 612 229 l 663 382 q 635 516 668 446 q 549 631 603 587 q 436 677 496 675 q 252 594 330 682 q 155 364 174 505 l 153 349 m 1257 450 q 1205 616 1253 555 q 1077 680 1158 678 q 886 592 979 682 q 751 379 794 502 l 745 351 q 771 217 739 288 q 857 101 803 146 q 970 54 911 57 q 1120 105 1053 52 q 1223 254 1187 159 q 1257 450 1259 349 z "},"∫":{"ha":348,"x_min":-186,"x_max":510,"o":"m 125 -66 q 51 -239 112 -177 q -106 -298 -10 -300 q -186 -283 -138 -298 l -168 -217 q -109 -229 -135 -228 q -8 -190 -49 -231 q 45 -62 33 -148 l 179 825 q 255 997 193 935 q 416 1057 318 1059 q 510 1043 448 1057 l 492 979 q 422 989 454 989 q 313 946 355 989 q 260 825 271 903 l 125 -66 z "},"≈":{"ha":766,"x_min":39,"x_max":726,"o":"m 94 588 q 267 677 172 675 q 347 661 311 677 q 417 625 384 645 q 483 591 451 606 q 554 576 515 576 q 633 597 593 576 q 726 671 673 618 l 719 586 q 551 498 640 498 q 495 507 520 498 q 377 566 469 515 q 265 598 320 598 q 119 532 194 598 l 90 505 l 94 588 m 45 315 q 216 404 125 402 q 328 373 272 404 l 365 353 q 430 318 398 333 q 503 303 463 303 q 642 366 574 303 l 675 397 l 667 313 q 500 225 589 225 q 398 253 451 225 l 324 294 q 214 326 269 326 q 39 231 130 326 l 45 315 z "},"≠":{"ha":752,"x_min":76,"x_max":688,"o":"m 626 283 l 281 283 l 150 104 l 103 135 l 212 283 l 76 283 l 88 355 l 264 355 l 416 562 l 124 562 l 137 634 l 468 634 l 604 818 l 650 787 l 537 634 l 688 634 l 675 562 l 485 562 l 333 355 l 639 355 l 626 283 z "},"≤":{"ha":696,"x_min":-26,"x_max":665,"o":"m 155 462 l 578 279 l 563 205 l 62 437 l 73 496 l 665 727 l 648 646 l 155 462 m 525 1 l -26 1 l -14 70 l 538 70 l 525 1 z "},"≥":{"ha":705,"x_min":7,"x_max":663,"o":"m 568 468 l 136 653 l 150 725 l 663 493 l 652 434 l 49 202 l 64 282 l 568 468 m 558 1 l 7 1 l 20 70 l 571 70 l 558 1 z "},"◊":{"ha":687,"x_min":50,"x_max":656,"o":"m 403 987 l 469 987 l 656 488 l 304 0 l 239 0 l 50 493 l 403 987 m 425 897 l 136 488 l 282 89 l 571 498 l 425 897 z "},"":{"ha":348,"x_min":66,"x_max":294,"o":"m 68 168 q 87 208 70 191 q 128 225 104 224 q 168 209 153 226 q 182 168 184 192 q 163 129 180 144 q 122 113 146 113 q 82 127 98 112 q 68 168 66 143 m 178 793 q 197 834 180 817 q 238 851 214 850 q 278 835 262 852 q 292 793 294 818 q 273 754 290 770 q 232 739 256 739 q 192 753 208 738 q 178 793 176 769 z "},"":{"ha":393,"x_min":83,"x_max":376,"o":"m 153 454 l 83 454 l 134 734 l 197 734 l 153 454 m 332 454 l 262 454 l 313 734 l 376 734 l 332 454 z "},"":{"ha":327,"x_min":-6,"x_max":155,"o":"m 39 -124 l -6 -87 q 67 65 54 -15 l 77 119 l 155 119 l 146 68 q 39 -124 128 -49 z "},"ﬁ":{"ha":730,"x_min":76,"x_max":673,"o":"m 79 0 l 195 667 l 76 667 l 87 734 l 206 734 l 217 816 q 307 995 235 932 q 490 1057 379 1058 q 673 1015 572 1055 l 652 946 q 493 984 571 983 q 361 939 410 985 q 298 816 311 894 l 286 734 l 453 734 l 441 667 l 275 667 l 159 0 l 79 0 m 541 0 l 460 0 l 588 734 l 669 734 l 541 0 z "},"ﬂ":{"ha":741,"x_min":85,"x_max":724,"o":"m 634 966 l 561 980 q 479 987 519 987 q 365 944 409 987 q 309 821 320 900 l 296 734 l 466 734 l 454 667 l 285 667 l 169 0 l 87 0 l 203 667 l 85 667 l 98 734 l 215 734 l 228 825 q 308 997 243 934 q 478 1058 373 1059 q 599 1043 538 1057 l 724 1015 l 550 0 l 471 0 l 634 966 z "},"ﬃ":{"ha":1122,"x_min":85,"x_max":1065,"o":"m 87 0 l 203 667 l 85 667 l 98 734 l 215 734 l 229 833 q 312 1000 246 941 q 475 1058 377 1059 q 564 1044 520 1057 l 549 977 q 476 987 513 987 q 364 943 408 987 q 309 821 320 899 l 296 734 l 597 734 l 610 824 q 702 997 629 935 q 882 1057 774 1059 q 1065 1015 962 1056 l 1043 946 q 884 984 960 984 q 752 940 804 985 q 688 808 701 895 l 677 734 l 845 734 l 833 667 l 666 667 l 550 0 l 470 0 l 586 667 l 285 667 l 169 0 l 87 0 m 932 0 l 851 0 l 979 734 l 1060 734 l 932 0 z "},"ﬄ":{"ha":1122,"x_min":85,"x_max":1106,"o":"m 87 0 l 203 667 l 85 667 l 98 734 l 215 734 l 228 824 q 309 998 243 937 q 475 1058 374 1059 q 564 1044 514 1057 l 549 977 q 476 987 513 987 q 363 943 407 987 q 309 821 320 899 l 296 734 l 597 734 l 610 825 q 691 997 625 935 q 859 1058 757 1059 q 1002 1039 915 1058 l 1106 1015 l 932 0 l 851 0 l 1020 965 q 861 987 920 987 q 746 944 791 987 q 690 821 702 900 l 677 734 l 848 734 l 836 667 l 666 667 l 550 0 l 470 0 l 586 667 l 285 667 l 169 0 l 87 0 z "},"﻿":{"ha":0,"x_min":0,"x_max":0,"o":""},"￼":{"ha":1384,"x_min":-60,"x_max":1435,"o":"m 530 318 q 474 207 522 248 q 361 168 427 166 q 258 211 297 169 q 224 317 220 252 l 230 387 q 296 511 237 469 q 398 543 340 544 q 500 500 461 541 q 536 393 539 458 l 530 318 m 543 171 l 608 543 l 726 543 q 822 515 790 541 q 850 446 854 490 q 830 394 848 414 q 785 361 811 375 q 839 281 840 339 q 799 201 837 230 q 694 170 761 172 l 543 171 m 474 395 q 456 468 477 441 q 399 494 435 494 q 329 468 357 496 q 295 395 301 439 l 286 317 q 303 245 283 271 q 363 217 323 218 q 429 241 401 216 q 466 317 458 267 l 474 395 m 1128 545 l 1194 545 l 1154 288 q 1111 204 1147 235 q 1019 172 1075 172 q 929 202 962 172 q 897 285 896 231 l 959 284 q 1017 221 956 220 q 1064 241 1046 222 q 1088 288 1083 260 l 1128 545 m -60 -270 l -23 -56 l 54 -56 l 29 -193 l 159 -193 l 145 -270 l -60 -270 m 1011 -270 l 1025 -193 l 1156 -193 l 1180 -56 l 1255 -56 l 1217 -270 l 1011 -270 m 123 793 l 157 986 l 363 986 l 349 907 l 220 907 l 200 793 l 123 793 m 1215 907 l 1230 986 l 1435 986 l 1401 793 l 1326 793 l 1347 907 l 1215 907 m 637 336 l 616 222 l 694 222 q 776 282 766 225 q 726 336 782 331 l 637 336 m 953 907 l 967 986 l 1152 986 l 1137 907 l 953 907 m 690 907 l 705 986 l 888 986 l 874 907 l 690 907 m 428 907 l 442 986 l 625 986 l 611 907 l 428 907 m 749 -270 l 762 -193 l 947 -193 l 934 -270 l 749 -270 m 486 -270 l 500 -193 l 684 -193 l 671 -270 l 486 -270 m 224 -270 l 237 -193 l 421 -193 l 408 -270 l 224 -270 m 642 383 l 701 383 q 791 441 783 387 q 732 486 798 484 l 665 486 l 642 383 m 111 282 l 35 282 l 66 453 l 142 453 l 111 282 m 156 538 l 79 538 l 110 708 l 186 708 l 156 538 m 67 28 l -9 28 l 21 197 l 98 197 l 67 28 m 1312 282 l 1238 282 l 1268 453 l 1343 453 l 1312 282 m 1357 538 l 1282 538 l 1312 708 l 1387 708 l 1357 538 m 1268 28 l 1194 28 l 1223 197 l 1299 197 l 1268 28 z "},"�":{"ha":1425,"x_min":62,"x_max":1361,"o":"m 711 1097 l 1361 436 l 711 -225 l 62 436 l 711 1097 m 767 273 q 777 332 767 312 q 812 368 787 351 q 893 440 862 394 q 924 536 924 486 q 868 674 924 623 q 710 725 811 725 q 558 678 612 725 q 503 545 504 631 l 640 545 q 661 597 642 579 q 710 614 681 614 q 768 593 749 614 q 787 536 787 571 q 724 431 787 471 q 646 355 662 387 q 630 273 630 324 l 767 273 m 767 211 l 630 211 l 630 96 l 767 96 l 767 211 m 716 -374 l 719 -374 l 719 -376 l 716 -376 l 716 -374 m 715 1467 l 718 1467 l 718 1464 l 715 1464 l 715 1467 z "}," ":{"ha":334,"x_min":0,"x_max":0,"o":""},"­":{"ha":392,"x_min":31,"x_max":359,"o":"m 347 401 l 31 401 l 43 470 l 359 470 l 347 401 z "},"Đ":{"ha":909,"x_min":32,"x_max":857,"o":"m 70 0 l 151 467 l 32 467 l 44 536 l 163 536 l 241 987 l 498 987 q 697 928 613 987 q 819 766 781 869 q 841 538 857 663 l 829 456 q 665 125 798 251 q 338 0 532 0 l 70 0 m 436 467 l 234 467 l 165 71 l 341 70 q 530 117 445 70 q 672 251 616 165 q 745 447 728 338 q 763 597 762 555 q 759 677 764 638 q 676 849 743 785 q 503 916 609 913 l 312 916 l 245 536 l 448 536 l 436 467 z "},"Ð":{"ha":909,"x_min":32,"x_max":857,"o":"m 70 0 l 151 467 l 32 467 l 44 536 l 163 536 l 241 987 l 498 987 q 697 928 613 987 q 819 766 781 869 q 841 538 857 663 l 829 456 q 665 125 798 251 q 338 0 532 0 l 70 0 m 436 467 l 234 467 l 165 71 l 341 70 q 530 117 445 70 q 672 251 616 165 q 745 447 728 338 q 763 597 762 555 q 759 677 764 638 q 676 849 743 785 q 503 916 609 913 l 312 916 l 245 536 l 448 536 l 436 467 z "},"ħ":{"ha":766,"x_min":52,"x_max":684,"o":"m 481 852 l 277 852 l 233 610 q 482 747 338 750 q 636 673 588 745 q 670 477 684 602 l 590 0 l 510 0 l 590 479 q 591 553 594 517 q 460 677 580 674 q 327 635 389 679 q 218 503 265 591 l 132 0 l 52 0 l 199 852 l 77 852 l 89 922 l 212 922 l 233 1042 l 313 1042 l 290 922 l 493 922 l 481 852 z "},"Ŧ":{"ha":811,"x_min":121,"x_max":873,"o":"m 629 566 l 471 566 l 373 0 l 290 0 l 389 566 l 225 566 l 237 635 l 401 635 l 450 916 l 121 916 l 134 987 l 873 987 l 860 916 l 532 916 l 484 635 l 642 635 l 629 566 z "},"ŧ":{"ha":439,"x_min":11,"x_max":430,"o":"m 415 418 l 230 418 l 190 178 l 189 136 q 256 60 189 62 q 322 64 277 59 l 319 -2 q 237 -12 279 -14 q 134 38 166 -11 q 110 178 101 86 l 149 418 l 11 418 l 23 488 l 161 488 l 191 667 l 59 667 l 71 734 l 201 734 l 235 922 l 315 922 l 283 734 l 430 734 l 418 667 l 271 667 l 241 488 l 427 488 l 415 418 z "},"À":{"ha":848,"x_min":-54,"x_max":750,"o":"m 616 277 l 184 277 l 37 0 l -54 0 l 480 987 l 559 987 l 750 0 l 668 0 l 616 277 m 221 348 l 603 348 l 505 883 l 221 348 m 584 1065 l 516 1065 l 397 1255 l 488 1255 l 584 1065 z "},"Á":{"ha":848,"x_min":-54,"x_max":750,"o":"m 616 277 l 184 277 l 37 0 l -54 0 l 480 987 l 559 987 l 750 0 l 668 0 l 616 277 m 221 348 l 603 348 l 505 883 l 221 348 m 642 1255 l 745 1255 l 563 1066 l 487 1065 l 642 1255 z "},"Â":{"ha":848,"x_min":-54,"x_max":750,"o":"m 616 277 l 184 277 l 37 0 l -54 0 l 480 987 l 559 987 l 750 0 l 668 0 l 616 277 m 221 348 l 603 348 l 505 883 l 221 348 m 724 1074 l 723 1066 l 650 1067 l 562 1190 l 431 1067 l 356 1067 l 357 1076 l 540 1249 l 589 1249 l 724 1074 z "},"Ã":{"ha":848,"x_min":-54,"x_max":786,"o":"m 616 277 l 184 277 l 37 0 l -54 0 l 480 987 l 559 987 l 750 0 l 668 0 l 616 277 m 221 348 l 603 348 l 505 883 l 221 348 m 786 1227 q 738 1120 777 1159 q 644 1081 700 1081 q 605 1088 623 1081 q 555 1119 588 1095 q 504 1150 522 1142 q 466 1158 486 1158 q 412 1137 435 1158 q 380 1078 389 1116 l 319 1080 q 368 1185 329 1145 q 463 1224 407 1225 q 510 1213 489 1224 q 553 1186 531 1201 q 596 1159 575 1171 q 642 1147 617 1147 q 729 1230 705 1147 l 786 1227 z "},"Ä":{"ha":848,"x_min":-54,"x_max":754,"o":"m 616 277 l 184 277 l 37 0 l -54 0 l 480 987 l 559 987 l 750 0 l 668 0 l 616 277 m 221 348 l 603 348 l 505 883 l 221 348 m 354 1160 q 373 1200 355 1183 q 412 1216 391 1216 q 451 1200 435 1217 q 465 1160 466 1184 q 446 1123 463 1139 q 406 1106 429 1106 q 368 1121 383 1106 q 354 1160 353 1137 m 642 1160 q 661 1199 644 1183 q 700 1215 679 1215 q 739 1200 724 1216 q 752 1160 754 1183 q 734 1122 751 1137 q 694 1105 717 1106 q 656 1121 671 1105 q 642 1160 641 1136 z "},"Å":{"ha":848,"x_min":-54,"x_max":750,"o":"m 616 277 l 184 277 l 37 0 l -54 0 l 480 987 l 559 987 l 750 0 l 668 0 l 616 277 m 221 348 l 603 348 l 505 883 l 221 348 m 428 1158 q 470 1253 429 1214 q 564 1293 510 1293 q 649 1256 614 1293 q 683 1168 684 1220 q 642 1075 682 1114 q 547 1036 602 1036 q 461 1070 496 1036 q 428 1158 427 1105 m 480 1159 q 495 1106 477 1128 q 544 1084 513 1084 q 602 1108 576 1084 q 631 1167 627 1131 q 615 1222 634 1200 q 566 1244 597 1244 q 509 1219 534 1244 q 480 1159 483 1194 z "},"Ǻ":{"ha":848,"x_min":-54,"x_max":755,"o":"m 616 277 l 184 277 l 37 0 l -54 0 l 480 987 l 559 987 l 750 0 l 668 0 l 616 277 m 221 348 l 603 348 l 505 883 l 221 348 m 658 1308 l 755 1308 l 600 1182 l 532 1182 l 658 1308 m 431 1038 q 465 1115 433 1083 q 539 1147 497 1147 q 609 1116 583 1147 q 635 1046 636 1086 q 602 971 633 1002 q 529 939 571 939 q 459 967 488 939 q 431 1038 431 996 m 477 1039 q 524 983 481 983 q 567 1002 547 983 q 589 1044 587 1021 q 579 1086 593 1069 q 544 1103 565 1103 q 477 1039 496 1103 z "},"Ç":{"ha":882,"x_min":84,"x_max":848,"o":"m 780 308 q 640 69 745 155 q 381 -14 534 -18 q 171 80 249 -11 q 86 326 92 172 q 91 431 84 379 l 109 551 q 194 792 130 687 q 348 950 257 897 q 548 1001 439 1003 q 768 911 689 998 q 846 677 848 825 l 764 678 q 707 862 764 797 q 544 930 650 928 q 315 830 410 934 q 192 545 220 727 l 172 409 l 169 348 q 192 199 168 268 q 267 95 217 131 q 385 57 316 59 q 583 116 503 53 q 699 307 662 180 l 780 308 m 405 -6 l 390 -51 q 481 -161 486 -68 q 421 -264 478 -227 q 265 -302 363 -300 l 266 -249 q 370 -224 331 -247 q 414 -163 409 -202 q 351 -97 420 -109 l 313 -92 l 344 -6 l 405 -6 z "},"È":{"ha":773,"x_min":50,"x_max":816,"o":"m 663 473 l 215 473 l 144 71 l 660 71 l 648 0 l 50 0 l 221 987 l 816 987 l 803 916 l 292 916 l 227 544 l 675 544 l 663 473 m 569 1069 l 501 1069 l 382 1259 l 473 1259 l 569 1069 z "},"É":{"ha":773,"x_min":50,"x_max":816,"o":"m 663 473 l 215 473 l 144 71 l 660 71 l 648 0 l 50 0 l 221 987 l 816 987 l 803 916 l 292 916 l 227 544 l 675 544 l 663 473 m 627 1259 l 730 1259 l 548 1070 l 472 1069 l 627 1259 z "},"Ê":{"ha":773,"x_min":50,"x_max":816,"o":"m 663 473 l 215 473 l 144 71 l 660 71 l 648 0 l 50 0 l 221 987 l 816 987 l 803 916 l 292 916 l 227 544 l 675 544 l 663 473 m 709 1078 l 708 1070 l 635 1071 l 547 1194 l 416 1072 l 341 1071 l 342 1080 l 525 1253 l 574 1253 l 709 1078 z "},"Ë":{"ha":773,"x_min":50,"x_max":816,"o":"m 663 473 l 215 473 l 144 71 l 660 71 l 648 0 l 50 0 l 221 987 l 816 987 l 803 916 l 292 916 l 227 544 l 675 544 l 663 473 m 339 1164 q 358 1204 340 1187 q 397 1220 376 1220 q 436 1204 420 1221 q 450 1164 451 1188 q 431 1127 448 1143 q 391 1110 414 1110 q 353 1125 368 1110 q 339 1164 338 1141 m 627 1164 q 646 1203 629 1187 q 685 1219 664 1219 q 724 1204 709 1220 q 737 1164 739 1187 q 719 1126 736 1141 q 680 1109 702 1110 q 641 1125 656 1109 q 627 1164 626 1140 z "},"Ì":{"ha":366,"x_min":67,"x_max":342,"o":"m 150 0 l 67 0 l 239 987 l 321 987 l 150 0 m 342 1069 l 275 1069 l 155 1259 l 246 1259 l 342 1069 z "},"Í":{"ha":366,"x_min":67,"x_max":503,"o":"m 150 0 l 67 0 l 239 987 l 321 987 l 150 0 m 400 1259 l 503 1259 l 321 1070 l 245 1069 l 400 1259 z "},"Î":{"ha":366,"x_min":67,"x_max":482,"o":"m 150 0 l 67 0 l 239 987 l 321 987 l 150 0 m 482 1078 l 481 1070 l 408 1071 l 321 1194 l 189 1072 l 115 1071 l 115 1080 l 298 1253 l 348 1253 l 482 1078 z "},"Ï":{"ha":366,"x_min":67,"x_max":513,"o":"m 150 0 l 67 0 l 239 987 l 321 987 l 150 0 m 113 1164 q 132 1204 114 1187 q 170 1220 149 1220 q 209 1204 194 1221 q 223 1164 224 1188 q 205 1127 222 1143 q 165 1110 188 1110 q 126 1125 142 1110 q 113 1164 111 1141 m 401 1164 q 420 1203 402 1187 q 458 1219 437 1219 q 497 1204 482 1220 q 511 1164 513 1187 q 492 1126 509 1141 q 453 1109 475 1110 q 415 1125 430 1109 q 401 1164 399 1140 z "},"Ñ":{"ha":963,"x_min":50,"x_max":936,"o":"m 765 0 l 685 0 l 280 846 l 133 0 l 50 0 l 221 987 l 301 987 l 707 140 l 854 987 l 936 987 l 765 0 m 841 1227 q 793 1120 831 1159 q 699 1081 755 1081 q 660 1088 677 1081 q 610 1119 643 1095 q 559 1150 576 1142 q 521 1158 541 1158 q 467 1137 490 1158 q 435 1078 444 1116 l 374 1080 q 423 1185 384 1145 q 518 1224 462 1225 q 565 1213 544 1224 q 608 1186 586 1201 q 651 1159 630 1171 q 697 1147 672 1147 q 784 1230 760 1147 l 841 1227 z "},"Ò":{"ha":918,"x_min":81,"x_max":860,"o":"m 391 -14 q 172 82 253 -11 q 84 332 91 176 q 89 439 81 386 l 102 533 q 252 871 133 740 q 551 1001 373 1004 q 710 957 642 999 q 817 833 779 914 q 858 655 854 752 q 852 541 860 597 l 836 437 q 748 193 812 297 q 593 36 684 88 q 391 -14 501 -16 m 770 549 q 777 635 776 591 q 751 786 777 718 q 673 890 725 854 q 547 928 621 926 q 316 831 412 932 q 190 559 220 730 q 166 353 165 420 q 226 139 166 216 q 395 59 286 62 q 634 163 540 56 q 755 448 729 271 l 770 549 m 617 1074 l 549 1074 l 430 1263 l 521 1263 l 617 1074 z "},"Ó":{"ha":918,"x_min":81,"x_max":860,"o":"m 391 -14 q 172 82 253 -11 q 84 332 91 176 q 89 439 81 386 l 102 533 q 252 871 133 740 q 551 1001 373 1004 q 710 957 642 999 q 817 833 779 914 q 858 655 854 752 q 852 541 860 597 l 836 437 q 748 193 812 297 q 593 36 684 88 q 391 -14 501 -16 m 770 549 q 777 635 776 591 q 751 786 777 718 q 673 890 725 854 q 547 928 621 926 q 316 831 412 932 q 190 559 220 730 q 166 353 165 420 q 226 139 166 216 q 395 59 286 62 q 634 163 540 56 q 755 448 729 271 l 770 549 m 675 1263 l 778 1263 l 596 1074 l 520 1074 l 675 1263 z "},"Ô":{"ha":918,"x_min":81,"x_max":860,"o":"m 391 -14 q 172 82 253 -11 q 84 332 91 176 q 89 439 81 386 l 102 533 q 252 871 133 740 q 551 1001 373 1004 q 710 957 642 999 q 817 833 779 914 q 858 655 854 752 q 852 541 860 597 l 836 437 q 748 193 812 297 q 593 36 684 88 q 391 -14 501 -16 m 770 549 q 777 635 776 591 q 751 786 777 718 q 673 890 725 854 q 547 928 621 926 q 316 831 412 932 q 190 559 220 730 q 166 353 165 420 q 226 139 166 216 q 395 59 286 62 q 634 163 540 56 q 755 448 729 271 l 770 549 m 757 1082 l 756 1074 l 683 1075 l 595 1198 l 464 1076 l 389 1075 l 390 1084 l 573 1257 l 623 1257 l 757 1082 z "},"Õ":{"ha":918,"x_min":81,"x_max":860,"o":"m 391 -14 q 172 82 253 -11 q 84 332 91 176 q 89 439 81 386 l 102 533 q 252 871 133 740 q 551 1001 373 1004 q 710 957 642 999 q 817 833 779 914 q 858 655 854 752 q 852 541 860 597 l 836 437 q 748 193 812 297 q 593 36 684 88 q 391 -14 501 -16 m 770 549 q 777 635 776 591 q 751 786 777 718 q 673 890 725 854 q 547 928 621 926 q 316 831 412 932 q 190 559 220 730 q 166 353 165 420 q 226 139 166 216 q 395 59 286 62 q 634 163 540 56 q 755 448 729 271 l 770 549 m 819 1235 q 771 1128 810 1167 q 677 1089 733 1089 q 638 1096 656 1089 q 588 1127 621 1103 q 537 1158 555 1150 q 499 1166 519 1166 q 445 1145 468 1166 q 413 1086 422 1124 l 353 1088 q 401 1193 362 1153 q 496 1232 440 1234 q 543 1221 522 1232 q 586 1194 564 1209 q 629 1167 608 1179 q 675 1156 650 1156 q 762 1238 738 1156 l 819 1235 z "},"Ö":{"ha":918,"x_min":81,"x_max":860,"o":"m 391 -14 q 172 82 253 -11 q 84 332 91 176 q 89 439 81 386 l 102 533 q 252 871 133 740 q 551 1001 373 1004 q 710 957 642 999 q 817 833 779 914 q 858 655 854 752 q 852 541 860 597 l 836 437 q 748 193 812 297 q 593 36 684 88 q 391 -14 501 -16 m 770 549 q 777 635 776 591 q 751 786 777 718 q 673 890 725 854 q 547 928 621 926 q 316 831 412 932 q 190 559 220 730 q 166 353 165 420 q 226 139 166 216 q 395 59 286 62 q 634 163 540 56 q 755 448 729 271 l 770 549 m 387 1168 q 406 1208 389 1192 q 445 1224 424 1224 q 484 1208 469 1225 q 498 1168 499 1192 q 479 1131 496 1147 q 439 1114 463 1114 q 401 1129 416 1114 q 387 1168 386 1145 m 675 1168 q 694 1207 677 1191 q 733 1223 712 1223 q 772 1208 757 1224 q 785 1168 787 1192 q 767 1130 784 1145 q 728 1114 750 1114 q 689 1129 705 1114 q 675 1168 674 1144 z "},"Ù":{"ha":892,"x_min":83,"x_max":886,"o":"m 886 987 l 771 319 q 640 73 747 163 q 381 -14 534 -17 q 216 30 286 -12 q 115 148 146 72 q 95 318 83 224 l 210 987 l 292 987 l 178 317 q 220 132 163 203 q 385 57 276 61 q 581 120 499 53 q 686 307 663 187 l 802 987 l 886 987 m 610 1065 l 542 1065 l 422 1255 l 513 1255 l 610 1065 z "},"Ú":{"ha":892,"x_min":83,"x_max":886,"o":"m 886 987 l 771 319 q 640 73 747 163 q 381 -14 534 -17 q 216 30 286 -12 q 115 148 146 72 q 95 318 83 224 l 210 987 l 292 987 l 178 317 q 220 132 163 203 q 385 57 276 61 q 581 120 499 53 q 686 307 663 187 l 802 987 l 886 987 m 668 1255 l 770 1255 l 589 1066 l 513 1065 l 668 1255 z "},"Û":{"ha":892,"x_min":83,"x_max":886,"o":"m 886 987 l 771 319 q 640 73 747 163 q 381 -14 534 -17 q 216 30 286 -12 q 115 148 146 72 q 95 318 83 224 l 210 987 l 292 987 l 178 317 q 220 132 163 203 q 385 57 276 61 q 581 120 499 53 q 686 307 663 187 l 802 987 l 886 987 m 749 1074 l 749 1066 l 675 1067 l 588 1190 l 456 1067 l 382 1067 l 382 1076 l 566 1249 l 615 1249 l 749 1074 z "},"Ü":{"ha":892,"x_min":83,"x_max":886,"o":"m 886 987 l 771 319 q 640 73 747 163 q 381 -14 534 -17 q 216 30 286 -12 q 115 148 146 72 q 95 318 83 224 l 210 987 l 292 987 l 178 317 q 220 132 163 203 q 385 57 276 61 q 581 120 499 53 q 686 307 663 187 l 802 987 l 886 987 m 380 1160 q 399 1200 381 1183 q 437 1216 416 1216 q 476 1200 461 1217 q 490 1160 492 1184 q 472 1123 489 1139 q 432 1106 455 1106 q 394 1121 409 1106 q 380 1160 378 1137 m 668 1160 q 687 1199 669 1183 q 726 1215 705 1215 q 765 1200 749 1216 q 778 1160 780 1183 q 760 1122 777 1137 q 720 1105 743 1106 q 682 1121 697 1105 q 668 1160 667 1136 z "},"Ý":{"ha":813,"x_min":118,"x_max":892,"o":"m 407 450 l 792 987 l 892 987 l 436 368 l 372 0 l 290 0 l 355 376 l 118 987 l 211 987 l 407 450 m 621 1251 l 724 1251 l 542 1062 l 466 1061 l 621 1251 z "},"à":{"ha":728,"x_min":25,"x_max":645,"o":"m 488 0 q 486 52 484 26 l 492 102 q 375 16 441 47 q 234 -14 310 -15 q 83 45 141 -12 q 31 189 25 102 q 81 315 37 262 q 208 398 125 368 q 391 427 290 427 l 541 427 l 553 511 q 521 631 562 586 q 401 680 480 677 q 261 640 321 681 q 187 532 202 599 l 108 532 q 207 689 121 628 q 409 748 292 749 q 584 680 522 745 q 633 509 645 614 l 572 140 l 567 81 q 572 8 565 44 l 571 0 l 488 0 m 248 58 q 390 93 322 55 q 503 202 458 132 l 531 364 l 401 365 q 200 321 278 365 q 114 196 122 277 q 145 98 108 136 q 248 58 183 59 m 505 852 l 437 852 l 318 1042 l 409 1042 l 505 852 z "},"á":{"ha":728,"x_min":25,"x_max":666,"o":"m 488 0 q 486 52 484 26 l 492 102 q 375 16 441 47 q 234 -14 310 -15 q 83 45 141 -12 q 31 189 25 102 q 81 315 37 262 q 208 398 125 368 q 391 427 290 427 l 541 427 l 553 511 q 521 631 562 586 q 401 680 480 677 q 261 640 321 681 q 187 532 202 599 l 108 532 q 207 689 121 628 q 409 748 292 749 q 584 680 522 745 q 633 509 645 614 l 572 140 l 567 81 q 572 8 565 44 l 571 0 l 488 0 m 248 58 q 390 93 322 55 q 503 202 458 132 l 531 364 l 401 365 q 200 321 278 365 q 114 196 122 277 q 145 98 108 136 q 248 58 183 59 m 564 1042 l 666 1041 l 484 852 l 408 852 l 564 1042 z "},"â":{"ha":728,"x_min":25,"x_max":645,"o":"m 488 0 q 486 52 484 26 l 492 102 q 375 16 441 47 q 234 -14 310 -15 q 83 45 141 -12 q 31 189 25 102 q 81 315 37 262 q 208 398 125 368 q 391 427 290 427 l 541 427 l 553 511 q 521 631 562 586 q 401 680 480 677 q 261 640 321 681 q 187 532 202 599 l 108 532 q 207 689 121 628 q 409 748 292 749 q 584 680 522 745 q 633 509 645 614 l 572 140 l 567 81 q 572 8 565 44 l 571 0 l 488 0 m 248 58 q 390 93 322 55 q 503 202 458 132 l 531 364 l 401 365 q 200 321 278 365 q 114 196 122 277 q 145 98 108 136 q 248 58 183 59 m 645 861 l 644 852 l 571 853 l 484 976 l 352 854 l 277 853 l 278 863 l 461 1035 l 511 1035 l 645 861 z "},"ã":{"ha":728,"x_min":25,"x_max":707,"o":"m 488 0 q 486 52 484 26 l 492 102 q 375 16 441 47 q 234 -14 310 -15 q 83 45 141 -12 q 31 189 25 102 q 81 315 37 262 q 208 398 125 368 q 391 427 290 427 l 541 427 l 553 511 q 521 631 562 586 q 401 680 480 677 q 261 640 321 681 q 187 532 202 599 l 108 532 q 207 689 121 628 q 409 748 292 749 q 584 680 522 745 q 633 509 645 614 l 572 140 l 567 81 q 572 8 565 44 l 571 0 l 488 0 m 248 58 q 390 93 322 55 q 503 202 458 132 l 531 364 l 401 365 q 200 321 278 365 q 114 196 122 277 q 145 98 108 136 q 248 58 183 59 m 707 1013 q 660 906 698 945 q 565 867 621 867 q 527 874 544 867 q 476 905 509 882 q 425 936 443 928 q 387 944 408 944 q 333 923 356 944 q 301 864 311 902 l 241 866 q 289 971 250 931 q 385 1010 328 1012 q 431 999 410 1010 q 474 972 452 987 q 517 945 496 957 q 564 934 538 934 q 650 1017 626 934 l 707 1013 z "},"ä":{"ha":728,"x_min":25,"x_max":675,"o":"m 488 0 q 486 52 484 26 l 492 102 q 375 16 441 47 q 234 -14 310 -15 q 83 45 141 -12 q 31 189 25 102 q 81 315 37 262 q 208 398 125 368 q 391 427 290 427 l 541 427 l 553 511 q 521 631 562 586 q 401 680 480 677 q 261 640 321 681 q 187 532 202 599 l 108 532 q 207 689 121 628 q 409 748 292 749 q 584 680 522 745 q 633 509 645 614 l 572 140 l 567 81 q 572 8 565 44 l 571 0 l 488 0 m 248 58 q 390 93 322 55 q 503 202 458 132 l 531 364 l 401 365 q 200 321 278 365 q 114 196 122 277 q 145 98 108 136 q 248 58 183 59 m 275 947 q 294 986 277 970 q 333 1002 312 1002 q 372 987 357 1003 q 386 947 387 970 q 368 909 385 926 q 328 892 351 892 q 289 908 304 892 q 275 947 274 923 m 564 946 q 583 985 565 969 q 621 1002 600 1002 q 660 986 645 1002 q 673 946 675 970 q 655 908 672 924 q 616 892 638 892 q 577 907 593 892 q 564 946 562 922 z "},"å":{"ha":728,"x_min":25,"x_max":645,"o":"m 488 0 q 486 52 484 26 l 492 102 q 375 16 441 47 q 234 -14 310 -15 q 83 45 141 -12 q 31 189 25 102 q 81 315 37 262 q 208 398 125 368 q 391 427 290 427 l 541 427 l 553 511 q 521 631 562 586 q 401 680 480 677 q 261 640 321 681 q 187 532 202 599 l 108 532 q 207 689 121 628 q 409 748 292 749 q 584 680 522 745 q 633 509 645 614 l 572 140 l 567 81 q 572 8 565 44 l 571 0 l 488 0 m 248 58 q 390 93 322 55 q 503 202 458 132 l 531 364 l 401 365 q 200 321 278 365 q 114 196 122 277 q 145 98 108 136 q 248 58 183 59 m 349 944 q 391 1040 351 1000 q 485 1079 431 1079 q 571 1043 536 1079 q 604 955 606 1006 q 563 861 603 901 q 468 822 524 822 q 382 857 417 822 q 349 944 348 892 m 401 945 q 416 892 399 914 q 465 871 434 871 q 523 894 498 871 q 553 954 548 918 q 537 1008 555 986 q 488 1030 518 1030 q 430 1005 456 1030 q 401 945 404 980 z "},"ǻ":{"ha":728,"x_min":25,"x_max":677,"o":"m 488 0 q 486 52 484 26 l 492 102 q 375 16 441 47 q 234 -14 310 -15 q 83 45 141 -12 q 31 189 25 102 q 81 315 37 262 q 208 398 125 368 q 391 427 290 427 l 541 427 l 553 511 q 521 631 562 586 q 401 680 480 677 q 261 640 321 681 q 187 532 202 599 l 108 532 q 207 689 121 628 q 409 748 292 749 q 584 680 522 745 q 633 509 645 614 l 572 140 l 567 81 q 572 8 565 44 l 571 0 l 488 0 m 248 58 q 390 93 322 55 q 503 202 458 132 l 531 364 l 401 365 q 200 321 278 365 q 114 196 122 277 q 145 98 108 136 q 248 58 183 59 m 579 1095 l 677 1095 l 521 969 l 453 969 l 579 1095 m 353 825 q 386 902 354 870 q 460 934 418 934 q 531 903 504 934 q 556 833 557 873 q 524 758 555 789 q 450 726 492 726 q 381 754 409 726 q 353 825 353 783 m 399 826 q 446 770 402 770 q 488 789 468 770 q 511 831 508 808 q 500 873 514 856 q 465 890 486 890 q 399 826 418 890 z "},"ç":{"ha":701,"x_min":48,"x_max":659,"o":"m 315 54 q 457 99 395 52 q 538 226 518 146 l 615 226 q 508 50 595 117 q 311 -14 422 -17 q 162 35 222 -12 q 75 164 102 81 q 58 351 48 247 l 60 380 q 95 518 68 451 q 167 637 122 585 q 274 719 212 689 q 414 747 336 749 q 593 671 526 745 q 655 486 659 598 l 578 486 q 534 623 580 571 q 410 678 489 675 q 262 629 326 681 q 165 484 197 578 q 134 283 132 389 q 183 116 136 174 q 315 54 230 57 m 321 -6 l 306 -51 q 397 -161 401 -68 q 337 -264 394 -227 q 181 -302 279 -300 l 182 -249 q 286 -224 247 -247 q 330 -163 325 -202 q 267 -97 336 -109 l 229 -92 l 260 -6 l 321 -6 z "},"è":{"ha":703,"x_min":45,"x_max":659,"o":"m 322 -14 q 170 36 234 -12 q 75 166 105 83 q 54 344 45 248 l 56 367 q 116 561 65 469 q 245 701 167 652 q 412 747 323 749 q 550 703 494 746 q 633 582 607 659 q 649 411 659 505 l 644 361 l 136 361 l 134 345 q 144 204 123 271 q 213 97 165 136 q 328 56 261 57 q 446 81 393 54 q 542 153 498 108 l 589 115 q 472 18 540 51 q 322 -14 404 -15 m 408 678 q 250 616 319 682 q 144 431 180 550 l 570 430 l 572 440 q 538 606 585 536 q 408 678 492 675 m 489 852 l 421 852 l 302 1042 l 393 1042 l 489 852 z "},"é":{"ha":703,"x_min":45,"x_max":659,"o":"m 322 -14 q 170 36 234 -12 q 75 166 105 83 q 54 344 45 248 l 56 367 q 116 561 65 469 q 245 701 167 652 q 412 747 323 749 q 550 703 494 746 q 633 582 607 659 q 649 411 659 505 l 644 361 l 136 361 l 134 345 q 144 204 123 271 q 213 97 165 136 q 328 56 261 57 q 446 81 393 54 q 542 153 498 108 l 589 115 q 472 18 540 51 q 322 -14 404 -15 m 408 678 q 250 616 319 682 q 144 431 180 550 l 570 430 l 572 440 q 538 606 585 536 q 408 678 492 675 m 547 1042 l 650 1041 l 468 852 l 392 852 l 547 1042 z "},"ê":{"ha":703,"x_min":45,"x_max":659,"o":"m 322 -14 q 170 36 234 -12 q 75 166 105 83 q 54 344 45 248 l 56 367 q 116 561 65 469 q 245 701 167 652 q 412 747 323 749 q 550 703 494 746 q 633 582 607 659 q 649 411 659 505 l 644 361 l 136 361 l 134 345 q 144 204 123 271 q 213 97 165 136 q 328 56 261 57 q 446 81 393 54 q 542 153 498 108 l 589 115 q 472 18 540 51 q 322 -14 404 -15 m 408 678 q 250 616 319 682 q 144 431 180 550 l 570 430 l 572 440 q 538 606 585 536 q 408 678 492 675 m 629 861 l 628 852 l 555 853 l 467 976 l 336 854 l 261 853 l 262 863 l 445 1035 l 494 1035 l 629 861 z "},"ë":{"ha":703,"x_min":45,"x_max":659,"o":"m 322 -14 q 170 36 234 -12 q 75 166 105 83 q 54 344 45 248 l 56 367 q 116 561 65 469 q 245 701 167 652 q 412 747 323 749 q 550 703 494 746 q 633 582 607 659 q 649 411 659 505 l 644 361 l 136 361 l 134 345 q 144 204 123 271 q 213 97 165 136 q 328 56 261 57 q 446 81 393 54 q 542 153 498 108 l 589 115 q 472 18 540 51 q 322 -14 404 -15 m 408 678 q 250 616 319 682 q 144 431 180 550 l 570 430 l 572 440 q 538 606 585 536 q 408 678 492 675 m 259 947 q 278 986 260 970 q 317 1002 296 1002 q 356 987 340 1003 q 370 947 371 970 q 351 909 368 926 q 311 892 334 892 q 273 908 288 892 q 259 947 258 923 m 547 946 q 566 985 549 969 q 605 1002 584 1002 q 644 986 629 1002 q 657 946 659 970 q 639 908 656 924 q 600 892 622 892 q 561 907 576 892 q 547 946 546 922 z "},"ì":{"ha":307,"x_min":39,"x_max":275,"o":"m 120 0 l 39 0 l 167 734 l 248 734 l 120 0 m 275 844 l 207 844 l 87 1034 l 178 1034 l 275 844 z "},"í":{"ha":307,"x_min":39,"x_max":435,"o":"m 120 0 l 39 0 l 167 734 l 248 734 l 120 0 m 332 1034 l 435 1033 l 253 844 l 177 844 l 332 1034 z "},"î":{"ha":307,"x_min":39,"x_max":414,"o":"m 120 0 l 39 0 l 167 734 l 248 734 l 120 0 m 414 852 l 414 844 l 340 845 l 253 968 l 121 846 l 47 845 l 47 854 l 231 1027 l 280 1027 l 414 852 z "},"ï":{"ha":307,"x_min":39,"x_max":445,"o":"m 120 0 l 39 0 l 167 734 l 248 734 l 120 0 m 45 939 q 64 978 46 962 q 102 994 81 994 q 141 979 126 995 q 155 939 157 962 q 137 901 154 918 q 97 884 120 884 q 59 900 74 884 q 45 939 43 915 m 333 938 q 352 977 334 961 q 391 994 370 994 q 430 978 414 994 q 443 938 445 962 q 425 900 441 916 q 385 884 408 884 q 347 899 362 884 q 333 938 332 914 z "},"ñ":{"ha":747,"x_min":31,"x_max":705,"o":"m 236 734 l 212 608 q 325 712 260 676 q 462 747 389 749 q 616 673 568 745 q 650 477 664 602 l 570 0 l 490 0 l 570 479 q 571 553 574 517 q 439 677 559 674 q 307 635 368 679 q 198 503 245 591 l 111 0 l 31 0 l 159 734 l 236 734 m 705 1013 q 657 906 695 945 q 562 867 618 867 q 524 874 541 867 q 473 904 507 881 q 422 936 440 928 q 385 943 405 943 q 331 922 353 943 q 298 863 308 901 l 238 865 q 287 971 248 930 q 382 1010 326 1011 q 429 998 408 1010 q 472 971 450 987 q 515 945 494 956 q 561 933 536 933 q 648 1016 623 933 l 705 1013 z "},"ò":{"ha":762,"x_min":45,"x_max":697,"o":"m 51 374 q 116 569 63 480 q 248 703 169 657 q 419 747 327 749 q 574 697 510 746 q 668 565 638 649 q 688 380 697 481 l 686 367 q 563 88 666 193 q 317 -14 460 -17 q 119 77 193 -12 q 47 312 45 166 l 49 351 l 51 374 m 130 351 q 141 202 121 270 q 208 95 162 134 q 321 54 253 56 q 455 92 394 53 q 555 201 515 130 q 606 357 594 271 l 608 379 q 567 593 620 510 q 415 678 515 676 q 228 594 307 682 q 131 363 149 507 l 130 351 m 492 852 l 424 852 l 304 1042 l 395 1042 l 492 852 z "},"ó":{"ha":762,"x_min":45,"x_max":697,"o":"m 51 374 q 116 569 63 480 q 248 703 169 657 q 419 747 327 749 q 574 697 510 746 q 668 565 638 649 q 688 380 697 481 l 686 367 q 563 88 666 193 q 317 -14 460 -17 q 119 77 193 -12 q 47 312 45 166 l 49 351 l 51 374 m 130 351 q 141 202 121 270 q 208 95 162 134 q 321 54 253 56 q 455 92 394 53 q 555 201 515 130 q 606 357 594 271 l 608 379 q 567 593 620 510 q 415 678 515 676 q 228 594 307 682 q 131 363 149 507 l 130 351 m 550 1042 l 652 1041 l 471 852 l 395 852 l 550 1042 z "},"ô":{"ha":762,"x_min":45,"x_max":697,"o":"m 51 374 q 116 569 63 480 q 248 703 169 657 q 419 747 327 749 q 574 697 510 746 q 668 565 638 649 q 688 380 697 481 l 686 367 q 563 88 666 193 q 317 -14 460 -17 q 119 77 193 -12 q 47 312 45 166 l 49 351 l 51 374 m 130 351 q 141 202 121 270 q 208 95 162 134 q 321 54 253 56 q 455 92 394 53 q 555 201 515 130 q 606 357 594 271 l 608 379 q 567 593 620 510 q 415 678 515 676 q 228 594 307 682 q 131 363 149 507 l 130 351 m 631 861 l 631 852 l 557 853 l 470 976 l 338 854 l 264 853 l 264 863 l 448 1035 l 497 1035 l 631 861 z "},"õ":{"ha":762,"x_min":45,"x_max":697,"o":"m 51 374 q 116 569 63 480 q 248 703 169 657 q 419 747 327 749 q 574 697 510 746 q 668 565 638 649 q 688 380 697 481 l 686 367 q 563 88 666 193 q 317 -14 460 -17 q 119 77 193 -12 q 47 312 45 166 l 49 351 l 51 374 m 130 351 q 141 202 121 270 q 208 95 162 134 q 321 54 253 56 q 455 92 394 53 q 555 201 515 130 q 606 357 594 271 l 608 379 q 567 593 620 510 q 415 678 515 676 q 228 594 307 682 q 131 363 149 507 l 130 351 m 694 1013 q 646 906 684 945 q 551 867 608 867 q 513 874 530 867 q 463 904 496 881 q 412 936 429 928 q 374 943 394 943 q 320 922 342 943 q 288 863 297 901 l 227 865 q 276 971 237 930 q 371 1010 315 1011 q 418 998 397 1010 q 461 971 439 987 q 504 945 483 956 q 550 933 525 933 q 637 1016 612 933 l 694 1013 z "},"ö":{"ha":762,"x_min":45,"x_max":697,"o":"m 51 374 q 116 569 63 480 q 248 703 169 657 q 419 747 327 749 q 574 697 510 746 q 668 565 638 649 q 688 380 697 481 l 686 367 q 563 88 666 193 q 317 -14 460 -17 q 119 77 193 -12 q 47 312 45 166 l 49 351 l 51 374 m 130 351 q 141 202 121 270 q 208 95 162 134 q 321 54 253 56 q 455 92 394 53 q 555 201 515 130 q 606 357 594 271 l 608 379 q 567 593 620 510 q 415 678 515 676 q 228 594 307 682 q 131 363 149 507 l 130 351 m 262 947 q 281 986 263 970 q 319 1002 298 1002 q 358 987 343 1003 q 372 947 374 970 q 354 909 371 926 q 314 892 337 892 q 276 908 291 892 q 262 947 260 923 m 550 946 q 569 985 551 969 q 608 1002 587 1002 q 647 986 631 1002 q 660 946 662 970 q 642 908 659 924 q 602 892 625 892 q 564 907 579 892 q 550 946 549 922 z "},"ù":{"ha":747,"x_min":71,"x_max":705,"o":"m 518 92 q 277 -14 431 -18 q 122 61 173 -12 q 85 264 71 134 l 164 734 l 244 734 l 166 262 q 165 189 162 225 q 203 93 170 127 q 292 57 235 59 q 443 95 374 54 q 532 202 512 136 l 623 734 l 705 734 l 577 0 l 498 0 l 518 92 m 501 852 l 433 852 l 314 1042 l 405 1042 l 501 852 z "},"ú":{"ha":747,"x_min":71,"x_max":705,"o":"m 518 92 q 277 -14 431 -18 q 122 61 173 -12 q 85 264 71 134 l 164 734 l 244 734 l 166 262 q 165 189 162 225 q 203 93 170 127 q 292 57 235 59 q 443 95 374 54 q 532 202 512 136 l 623 734 l 705 734 l 577 0 l 498 0 l 518 92 m 559 1042 l 662 1041 l 480 852 l 404 852 l 559 1042 z "},"û":{"ha":747,"x_min":71,"x_max":705,"o":"m 518 92 q 277 -14 431 -18 q 122 61 173 -12 q 85 264 71 134 l 164 734 l 244 734 l 166 262 q 165 189 162 225 q 203 93 170 127 q 292 57 235 59 q 443 95 374 54 q 532 202 512 136 l 623 734 l 705 734 l 577 0 l 498 0 l 518 92 m 641 861 l 640 852 l 567 853 l 479 976 l 348 854 l 273 853 l 274 863 l 457 1035 l 507 1035 l 641 861 z "},"ü":{"ha":747,"x_min":71,"x_max":705,"o":"m 518 92 q 277 -14 431 -18 q 122 61 173 -12 q 85 264 71 134 l 164 734 l 244 734 l 166 262 q 165 189 162 225 q 203 93 170 127 q 292 57 235 59 q 443 95 374 54 q 532 202 512 136 l 623 734 l 705 734 l 577 0 l 498 0 l 518 92 m 271 947 q 290 986 273 970 q 329 1002 308 1002 q 368 987 353 1003 q 382 947 383 970 q 363 909 380 926 q 323 892 347 892 q 285 908 300 892 q 271 947 270 923 m 559 946 q 578 985 561 969 q 617 1002 596 1002 q 656 986 641 1002 q 669 946 671 970 q 651 908 668 924 q 612 892 634 892 q 573 907 589 892 q 559 946 558 922 z "},"ý":{"ha":647,"x_min":-60,"x_max":681,"o":"m 277 119 l 591 734 l 681 734 l 233 -118 q 129 -258 184 -217 q 5 -298 73 -300 q -60 -288 -20 -297 l -52 -221 l -11 -226 q 169 -92 103 -231 l 220 11 l 79 734 l 163 734 l 277 119 m 520 1042 l 623 1041 l 441 852 l 365 852 l 520 1042 z "},"ÿ":{"ha":647,"x_min":-60,"x_max":681,"o":"m 277 119 l 591 734 l 681 734 l 233 -118 q 129 -258 184 -217 q 5 -298 73 -300 q -60 -288 -20 -297 l -52 -221 l -11 -226 q 169 -92 103 -231 l 220 11 l 79 734 l 163 734 l 277 119 m 232 947 q 251 986 233 970 q 290 1002 269 1002 q 329 987 313 1003 q 342 947 344 970 q 324 909 341 926 q 284 892 307 892 q 246 908 261 892 q 232 947 231 923 m 520 946 q 539 985 522 969 q 578 1002 557 1002 q 617 986 602 1002 q 630 946 632 970 q 612 908 629 924 q 572 892 595 892 q 534 907 549 892 q 520 946 519 922 z "},"Ā":{"ha":848,"x_min":-54,"x_max":764,"o":"m 616 277 l 184 277 l 37 0 l -54 0 l 480 987 l 559 987 l 750 0 l 668 0 l 616 277 m 221 348 l 603 348 l 505 883 l 221 348 m 754 1131 l 345 1131 l 355 1196 l 764 1196 l 754 1131 z "},"ā":{"ha":728,"x_min":25,"x_max":686,"o":"m 488 0 q 486 52 484 26 l 492 102 q 375 16 441 47 q 234 -14 310 -15 q 83 45 141 -12 q 31 189 25 102 q 81 315 37 262 q 208 398 125 368 q 391 427 290 427 l 541 427 l 553 511 q 521 631 562 586 q 401 680 480 677 q 261 640 321 681 q 187 532 202 599 l 108 532 q 207 689 121 628 q 409 748 292 749 q 584 680 522 745 q 633 509 645 614 l 572 140 l 567 81 q 572 8 565 44 l 571 0 l 488 0 m 248 58 q 390 93 322 55 q 503 202 458 132 l 531 364 l 401 365 q 200 321 278 365 q 114 196 122 277 q 145 98 108 136 q 248 58 183 59 m 675 917 l 266 917 l 277 983 l 686 983 l 675 917 z "},"Ă":{"ha":848,"x_min":-54,"x_max":753,"o":"m 616 277 l 184 277 l 37 0 l -54 0 l 480 987 l 559 987 l 750 0 l 668 0 l 616 277 m 221 348 l 603 348 l 505 883 l 221 348 m 753 1227 q 686 1097 743 1144 q 547 1052 629 1049 q 419 1101 467 1053 q 375 1227 371 1149 l 444 1226 q 467 1142 440 1173 q 549 1109 494 1111 q 642 1140 606 1109 q 687 1225 677 1171 l 753 1227 z "},"ă":{"ha":728,"x_min":25,"x_max":674,"o":"m 488 0 q 486 52 484 26 l 492 102 q 375 16 441 47 q 234 -14 310 -15 q 83 45 141 -12 q 31 189 25 102 q 81 315 37 262 q 208 398 125 368 q 391 427 290 427 l 541 427 l 553 511 q 521 631 562 586 q 401 680 480 677 q 261 640 321 681 q 187 532 202 599 l 108 532 q 207 689 121 628 q 409 748 292 749 q 584 680 522 745 q 633 509 645 614 l 572 140 l 567 81 q 572 8 565 44 l 571 0 l 488 0 m 248 58 q 390 93 322 55 q 503 202 458 132 l 531 364 l 401 365 q 200 321 278 365 q 114 196 122 277 q 145 98 108 136 q 248 58 183 59 m 674 1013 q 608 883 665 930 q 469 838 551 836 q 340 887 389 840 q 296 1013 292 935 l 365 1013 q 388 928 361 959 q 470 896 415 897 q 563 926 528 895 q 608 1012 598 958 l 674 1013 z "},"Ą":{"ha":848,"x_min":-54,"x_max":750,"o":"m 736 0 l 739 -2 l 693 -35 q 600 -164 606 -100 q 644 -216 595 -214 q 715 -194 673 -216 l 720 -252 q 627 -280 675 -280 q 550 -249 577 -280 q 526 -170 523 -218 q 667 7 530 -74 l 616 277 l 184 277 l 37 0 l -54 0 l 480 987 l 559 987 l 750 0 l 736 0 m 221 348 l 603 348 l 505 883 l 221 348 z "},"ą":{"ha":728,"x_min":25,"x_max":645,"o":"m 555 0 l 559 -2 l 513 -35 q 420 -164 426 -100 q 463 -216 414 -214 q 534 -194 492 -216 l 539 -252 q 446 -280 495 -280 q 370 -249 397 -280 q 345 -170 342 -218 q 486 8 349 -75 q 486 56 484 32 l 492 102 q 375 16 441 47 q 234 -14 310 -15 q 83 45 141 -12 q 31 189 25 102 q 81 315 37 262 q 208 398 125 368 q 391 427 290 427 l 541 427 l 553 511 q 521 631 562 586 q 401 680 480 677 q 261 640 321 681 q 187 532 202 599 l 108 532 q 207 689 121 628 q 409 748 292 749 q 584 680 522 745 q 633 509 645 614 l 572 140 l 567 81 q 572 8 565 44 l 571 0 l 555 0 m 248 58 q 390 93 322 55 q 503 202 458 132 l 531 364 l 401 365 q 200 321 278 365 q 114 196 122 277 q 145 98 108 136 q 248 58 183 59 z "},"Ć":{"ha":882,"x_min":84,"x_max":848,"o":"m 780 308 q 640 69 745 155 q 381 -14 534 -18 q 171 80 249 -11 q 86 326 92 172 q 91 431 84 379 l 109 551 q 194 792 130 687 q 348 950 257 897 q 548 1001 439 1003 q 768 911 689 998 q 846 677 848 825 l 764 678 q 707 862 764 797 q 544 930 650 928 q 315 830 410 934 q 192 545 220 727 l 172 409 l 169 348 q 192 199 168 268 q 267 95 217 131 q 385 57 316 59 q 583 116 503 53 q 699 307 662 180 l 780 308 m 669 1274 l 771 1273 l 589 1084 l 513 1084 l 669 1274 z "},"ć":{"ha":701,"x_min":48,"x_max":659,"o":"m 315 54 q 457 99 395 52 q 538 226 518 146 l 615 226 q 508 50 595 117 q 311 -14 422 -17 q 162 35 222 -12 q 75 164 102 81 q 58 351 48 247 l 60 380 q 95 518 68 451 q 167 637 122 585 q 274 719 212 689 q 414 747 336 749 q 593 671 526 745 q 655 486 659 598 l 578 486 q 534 623 580 571 q 410 678 489 675 q 262 629 326 681 q 165 484 197 578 q 134 283 132 389 q 183 116 136 174 q 315 54 230 57 m 529 1042 l 631 1041 l 450 852 l 374 852 l 529 1042 z "},"Ĉ":{"ha":882,"x_min":84,"x_max":848,"o":"m 780 308 q 640 69 745 155 q 381 -14 534 -18 q 171 80 249 -11 q 86 326 92 172 q 91 431 84 379 l 109 551 q 194 792 130 687 q 348 950 257 897 q 548 1001 439 1003 q 768 911 689 998 q 846 677 848 825 l 764 678 q 707 862 764 797 q 544 930 650 928 q 315 830 410 934 q 192 545 220 727 l 172 409 l 169 348 q 192 199 168 268 q 267 95 217 131 q 385 57 316 59 q 583 116 503 53 q 699 307 662 180 l 780 308 m 750 1093 l 749 1084 l 676 1085 l 589 1208 l 457 1086 l 382 1085 l 383 1095 l 566 1267 l 616 1267 l 750 1093 z "},"ĉ":{"ha":701,"x_min":48,"x_max":659,"o":"m 315 54 q 457 99 395 52 q 538 226 518 146 l 615 226 q 508 50 595 117 q 311 -14 422 -17 q 162 35 222 -12 q 75 164 102 81 q 58 351 48 247 l 60 380 q 95 518 68 451 q 167 637 122 585 q 274 719 212 689 q 414 747 336 749 q 593 671 526 745 q 655 486 659 598 l 578 486 q 534 623 580 571 q 410 678 489 675 q 262 629 326 681 q 165 484 197 578 q 134 283 132 389 q 183 116 136 174 q 315 54 230 57 m 610 861 l 610 852 l 536 853 l 449 976 l 317 854 l 243 853 l 243 863 l 427 1035 l 476 1035 l 610 861 z "},"Ċ":{"ha":882,"x_min":84,"x_max":848,"o":"m 780 308 q 640 69 745 155 q 381 -14 534 -18 q 171 80 249 -11 q 86 326 92 172 q 91 431 84 379 l 109 551 q 194 792 130 687 q 348 950 257 897 q 548 1001 439 1003 q 768 911 689 998 q 846 677 848 825 l 764 678 q 707 862 764 797 q 544 930 650 928 q 315 830 410 934 q 192 545 220 727 l 172 409 l 169 348 q 192 199 168 268 q 267 95 217 131 q 385 57 316 59 q 583 116 503 53 q 699 307 662 180 l 780 308 m 524 1169 q 542 1208 526 1192 q 581 1225 558 1224 q 620 1209 605 1225 q 633 1169 635 1193 q 615 1131 632 1146 q 576 1115 598 1116 q 537 1130 552 1114 q 524 1169 522 1145 z "},"ċ":{"ha":701,"x_min":48,"x_max":659,"o":"m 315 54 q 457 99 395 52 q 538 226 518 146 l 615 226 q 508 50 595 117 q 311 -14 422 -17 q 162 35 222 -12 q 75 164 102 81 q 58 351 48 247 l 60 380 q 95 518 68 451 q 167 637 122 585 q 274 719 212 689 q 414 747 336 749 q 593 671 526 745 q 655 486 659 598 l 578 486 q 534 623 580 571 q 410 678 489 675 q 262 629 326 681 q 165 484 197 578 q 134 283 132 389 q 183 116 136 174 q 315 54 230 57 m 384 937 q 402 976 386 960 q 441 993 418 992 q 480 977 465 994 q 494 937 496 961 q 475 899 492 914 q 436 883 458 884 q 397 898 412 882 q 384 937 382 913 z "},"Č":{"ha":882,"x_min":84,"x_max":848,"o":"m 780 308 q 640 69 745 155 q 381 -14 534 -18 q 171 80 249 -11 q 86 326 92 172 q 91 431 84 379 l 109 551 q 194 792 130 687 q 348 950 257 897 q 548 1001 439 1003 q 768 911 689 998 q 846 677 848 825 l 764 678 q 707 862 764 797 q 544 930 650 928 q 315 830 410 934 q 192 545 220 727 l 172 409 l 169 348 q 192 199 168 268 q 267 95 217 131 q 385 57 316 59 q 583 116 503 53 q 699 307 662 180 l 780 308 m 568 1135 l 705 1264 l 777 1265 l 777 1256 l 595 1080 l 536 1080 l 408 1257 l 408 1265 l 479 1265 l 568 1135 z "},"č":{"ha":701,"x_min":48,"x_max":659,"o":"m 315 54 q 457 99 395 52 q 538 226 518 146 l 615 226 q 508 50 595 117 q 311 -14 422 -17 q 162 35 222 -12 q 75 164 102 81 q 58 351 48 247 l 60 380 q 95 518 68 451 q 167 637 122 585 q 274 719 212 689 q 414 747 336 749 q 593 671 526 745 q 655 486 659 598 l 578 486 q 534 623 580 571 q 410 678 489 675 q 262 629 326 681 q 165 484 197 578 q 134 283 132 389 q 183 116 136 174 q 315 54 230 57 m 428 902 l 565 1031 l 637 1032 l 637 1023 l 455 847 l 397 847 l 268 1024 l 269 1033 l 340 1032 l 428 902 z "},"Ď":{"ha":889,"x_min":50,"x_max":836,"o":"m 50 0 l 221 987 l 478 987 q 677 928 593 987 q 799 766 761 869 q 821 538 836 663 l 808 456 q 644 125 777 251 q 318 0 511 0 l 50 0 m 292 916 l 144 71 l 321 70 q 510 117 425 70 q 651 251 595 165 q 725 447 707 338 q 743 597 742 555 q 739 677 744 638 q 656 849 723 785 q 482 916 589 913 l 292 916 m 513 1120 l 650 1250 l 723 1251 l 722 1242 l 541 1065 l 482 1065 l 353 1242 l 354 1251 l 425 1251 l 513 1120 z "},"ď":{"ha":857,"x_min":58,"x_max":940,"o":"m 64 369 q 127 573 79 484 q 243 706 174 663 q 397 747 312 749 q 516 717 463 746 q 601 630 570 688 l 675 1042 l 755 1042 l 574 0 l 499 0 l 517 98 q 280 -14 422 -18 q 120 66 178 -11 q 59 273 62 143 q 62 355 58 315 l 64 369 m 145 355 q 141 258 140 310 q 184 112 144 165 q 299 56 224 59 q 431 91 374 54 q 528 189 488 127 l 587 534 q 522 638 567 600 q 407 677 477 675 q 235 598 304 681 q 146 370 166 516 l 145 355 m 825 799 l 779 836 q 852 988 839 908 l 862 1042 l 940 1042 l 932 991 q 825 799 913 874 z "},"Ē":{"ha":773,"x_min":50,"x_max":816,"o":"m 663 473 l 215 473 l 144 71 l 660 71 l 648 0 l 50 0 l 221 987 l 816 987 l 803 916 l 292 916 l 227 544 l 675 544 l 663 473 m 739 1135 l 330 1135 l 340 1200 l 749 1200 l 739 1135 z "},"ē":{"ha":703,"x_min":45,"x_max":669,"o":"m 322 -14 q 170 36 234 -12 q 75 166 105 83 q 54 344 45 248 l 56 367 q 116 561 65 469 q 245 701 167 652 q 412 747 323 749 q 550 703 494 746 q 633 582 607 659 q 649 411 659 505 l 644 361 l 136 361 l 134 345 q 144 204 123 271 q 213 97 165 136 q 328 56 261 57 q 446 81 393 54 q 542 153 498 108 l 589 115 q 472 18 540 51 q 322 -14 404 -15 m 408 678 q 250 616 319 682 q 144 431 180 550 l 570 430 l 572 440 q 538 606 585 536 q 408 678 492 675 m 659 916 l 250 916 l 260 982 l 669 982 l 659 916 z "},"Ĕ":{"ha":773,"x_min":50,"x_max":816,"o":"m 663 473 l 215 473 l 144 71 l 660 71 l 648 0 l 50 0 l 221 987 l 816 987 l 803 916 l 292 916 l 227 544 l 675 544 l 663 473 m 738 1231 q 671 1101 728 1148 q 532 1056 614 1053 q 404 1105 452 1057 q 360 1231 356 1153 l 429 1230 q 452 1146 425 1177 q 534 1114 479 1115 q 627 1144 591 1113 q 672 1230 662 1175 l 738 1231 z "},"ĕ":{"ha":703,"x_min":45,"x_max":659,"o":"m 322 -14 q 170 36 234 -12 q 75 166 105 83 q 54 344 45 248 l 56 367 q 116 561 65 469 q 245 701 167 652 q 412 747 323 749 q 550 703 494 746 q 633 582 607 659 q 649 411 659 505 l 644 361 l 136 361 l 134 345 q 144 204 123 271 q 213 97 165 136 q 328 56 261 57 q 446 81 393 54 q 542 153 498 108 l 589 115 q 472 18 540 51 q 322 -14 404 -15 m 408 678 q 250 616 319 682 q 144 431 180 550 l 570 430 l 572 440 q 538 606 585 536 q 408 678 492 675 m 658 1013 q 591 882 648 930 q 452 838 534 835 q 324 887 372 839 q 280 1013 276 935 l 349 1012 q 372 927 345 958 q 454 895 399 897 q 547 926 511 895 q 592 1011 582 957 l 658 1013 z "},"Ė":{"ha":773,"x_min":50,"x_max":816,"o":"m 663 473 l 215 473 l 144 71 l 660 71 l 648 0 l 50 0 l 221 987 l 816 987 l 803 916 l 292 916 l 227 544 l 675 544 l 663 473 m 482 1155 q 500 1194 484 1177 q 540 1211 517 1210 q 579 1195 564 1211 q 592 1155 594 1179 q 574 1117 591 1132 q 534 1101 557 1101 q 496 1116 511 1100 q 482 1155 481 1131 z "},"ė":{"ha":703,"x_min":45,"x_max":659,"o":"m 322 -14 q 170 36 234 -12 q 75 166 105 83 q 54 344 45 248 l 56 367 q 116 561 65 469 q 245 701 167 652 q 412 747 323 749 q 550 703 494 746 q 633 582 607 659 q 649 411 659 505 l 644 361 l 136 361 l 134 345 q 144 204 123 271 q 213 97 165 136 q 328 56 261 57 q 446 81 393 54 q 542 153 498 108 l 589 115 q 472 18 540 51 q 322 -14 404 -15 m 408 678 q 250 616 319 682 q 144 431 180 550 l 570 430 l 572 440 q 538 606 585 536 q 408 678 492 675 m 402 937 q 420 976 404 960 q 460 993 437 992 q 499 977 484 994 q 512 937 514 961 q 494 899 511 914 q 454 883 477 884 q 416 898 431 882 q 402 937 401 913 z "},"Ę":{"ha":773,"x_min":50,"x_max":816,"o":"m 663 473 l 215 473 l 144 71 l 660 71 l 648 0 l 601 0 l 604 -2 l 558 -35 q 465 -164 471 -100 q 509 -216 460 -214 q 580 -194 538 -216 l 585 -252 q 492 -280 541 -280 q 415 -249 442 -280 q 391 -170 388 -218 q 518 0 395 -79 l 50 0 l 221 987 l 816 987 l 803 916 l 292 916 l 227 544 l 675 544 l 663 473 z "},"ę":{"ha":703,"x_min":45,"x_max":659,"o":"m 322 -14 q 170 36 234 -12 q 75 166 105 83 q 54 344 45 248 l 56 367 q 116 561 65 469 q 245 701 167 652 q 412 747 323 749 q 550 703 494 746 q 633 582 607 659 q 649 411 659 505 l 644 361 l 136 361 l 134 345 q 144 204 123 271 q 213 97 165 136 q 328 56 261 57 q 446 81 393 54 q 542 153 498 108 l 589 115 q 477 20 541 53 l 441 -5 q 346 -136 351 -71 q 389 -187 340 -185 q 460 -165 418 -188 l 465 -223 q 372 -252 421 -252 q 296 -221 323 -252 q 271 -142 269 -190 q 342 -13 274 -74 l 322 -14 m 408 678 q 250 616 319 682 q 144 431 180 550 l 570 430 l 572 440 q 538 606 585 536 q 408 678 492 675 z "},"Ě":{"ha":773,"x_min":50,"x_max":816,"o":"m 663 473 l 215 473 l 144 71 l 660 71 l 648 0 l 50 0 l 221 987 l 816 987 l 803 916 l 292 916 l 227 544 l 675 544 l 663 473 m 526 1120 l 663 1250 l 736 1251 l 735 1242 l 553 1065 l 495 1065 l 366 1242 l 367 1251 l 438 1251 l 526 1120 z "},"ě":{"ha":703,"x_min":45,"x_max":659,"o":"m 322 -14 q 170 36 234 -12 q 75 166 105 83 q 54 344 45 248 l 56 367 q 116 561 65 469 q 245 701 167 652 q 412 747 323 749 q 550 703 494 746 q 633 582 607 659 q 649 411 659 505 l 644 361 l 136 361 l 134 345 q 144 204 123 271 q 213 97 165 136 q 328 56 261 57 q 446 81 393 54 q 542 153 498 108 l 589 115 q 472 18 540 51 q 322 -14 404 -15 m 408 678 q 250 616 319 682 q 144 431 180 550 l 570 430 l 572 440 q 538 606 585 536 q 408 678 492 675 m 446 902 l 583 1031 l 656 1032 l 655 1023 l 473 847 l 415 847 l 286 1024 l 287 1033 l 358 1032 l 446 902 z "},"Ĝ":{"ha":928,"x_min":94,"x_max":865,"o":"m 767 117 q 623 19 717 53 q 414 -14 529 -16 q 191 81 276 -12 q 97 328 105 174 q 101 437 94 384 l 118 549 q 268 881 150 757 q 562 1001 387 1004 q 779 920 698 998 q 865 709 861 842 l 783 709 q 721 869 779 812 q 559 930 663 927 q 325 830 420 933 q 201 547 229 727 l 184 441 q 179 350 178 397 q 244 137 181 216 q 416 58 307 59 q 684 143 591 54 l 729 398 l 472 398 l 484 469 l 824 469 l 767 117 m 756 1093 l 755 1084 l 682 1085 l 595 1208 l 463 1086 l 389 1085 l 389 1095 l 572 1267 l 622 1267 l 756 1093 z "},"ĝ":{"ha":754,"x_min":12,"x_max":703,"o":"m 397 748 q 517 717 463 746 q 602 628 571 688 l 627 734 l 703 734 l 579 13 q 521 -150 566 -79 q 405 -258 475 -220 q 247 -293 334 -296 q 115 -258 178 -292 q 12 -164 51 -224 l 62 -117 q 245 -224 132 -222 q 413 -164 345 -227 q 498 9 480 -100 l 515 94 q 280 -14 418 -18 q 120 65 177 -11 q 60 273 62 142 q 100 513 56 395 q 222 691 145 632 q 397 748 299 751 m 144 355 l 140 292 q 179 120 138 180 q 299 56 220 59 q 426 88 367 54 q 528 191 485 123 l 585 533 q 522 637 567 599 q 406 677 477 675 q 234 597 302 681 q 144 355 166 514 m 633 861 l 632 852 l 559 853 l 471 976 l 340 854 l 265 853 l 266 863 l 449 1035 l 498 1035 l 633 861 z "},"Ğ":{"ha":928,"x_min":94,"x_max":865,"o":"m 767 117 q 623 19 717 53 q 414 -14 529 -16 q 191 81 276 -12 q 97 328 105 174 q 101 437 94 384 l 118 549 q 268 881 150 757 q 562 1001 387 1004 q 779 920 698 998 q 865 709 861 842 l 783 709 q 721 869 779 812 q 559 930 663 927 q 325 830 420 933 q 201 547 229 727 l 184 441 q 179 350 178 397 q 244 137 181 216 q 416 58 307 59 q 684 143 591 54 l 729 398 l 472 398 l 484 469 l 824 469 l 767 117 m 785 1245 q 719 1115 776 1162 q 580 1070 662 1067 q 452 1119 500 1072 q 408 1245 404 1167 l 476 1244 q 499 1160 473 1191 q 581 1128 526 1129 q 674 1158 639 1127 q 720 1244 709 1190 l 785 1245 z "},"ğ":{"ha":754,"x_min":12,"x_max":703,"o":"m 397 748 q 517 717 463 746 q 602 628 571 688 l 627 734 l 703 734 l 579 13 q 521 -150 566 -79 q 405 -258 475 -220 q 247 -293 334 -296 q 115 -258 178 -292 q 12 -164 51 -224 l 62 -117 q 245 -224 132 -222 q 413 -164 345 -227 q 498 9 480 -100 l 515 94 q 280 -14 418 -18 q 120 65 177 -11 q 60 273 62 142 q 100 513 56 395 q 222 691 145 632 q 397 748 299 751 m 144 355 l 140 292 q 179 120 138 180 q 299 56 220 59 q 426 88 367 54 q 528 191 485 123 l 585 533 q 522 637 567 599 q 406 677 477 675 q 234 597 302 681 q 144 355 166 514 m 662 1013 q 595 882 652 930 q 456 838 538 835 q 328 887 376 839 q 284 1013 280 935 l 353 1012 q 376 927 349 958 q 458 895 403 897 q 551 926 515 895 q 596 1011 586 957 l 662 1013 z "},"Ġ":{"ha":928,"x_min":94,"x_max":865,"o":"m 767 117 q 623 19 717 53 q 414 -14 529 -16 q 191 81 276 -12 q 97 328 105 174 q 101 437 94 384 l 118 549 q 268 881 150 757 q 562 1001 387 1004 q 779 920 698 998 q 865 709 861 842 l 783 709 q 721 869 779 812 q 559 930 663 927 q 325 830 420 933 q 201 547 229 727 l 184 441 q 179 350 178 397 q 244 137 181 216 q 416 58 307 59 q 684 143 591 54 l 729 398 l 472 398 l 484 469 l 824 469 l 767 117 m 530 1169 q 548 1208 532 1192 q 587 1225 564 1224 q 626 1209 611 1225 q 640 1169 642 1193 q 621 1131 638 1146 q 582 1115 604 1116 q 543 1130 558 1114 q 530 1169 528 1145 z "},"ġ":{"ha":754,"x_min":12,"x_max":703,"o":"m 397 748 q 517 717 463 746 q 602 628 571 688 l 627 734 l 703 734 l 579 13 q 521 -150 566 -79 q 405 -258 475 -220 q 247 -293 334 -296 q 115 -258 178 -292 q 12 -164 51 -224 l 62 -117 q 245 -224 132 -222 q 413 -164 345 -227 q 498 9 480 -100 l 515 94 q 280 -14 418 -18 q 120 65 177 -11 q 60 273 62 142 q 100 513 56 395 q 222 691 145 632 q 397 748 299 751 m 144 355 l 140 292 q 179 120 138 180 q 299 56 220 59 q 426 88 367 54 q 528 191 485 123 l 585 533 q 522 637 567 599 q 406 677 477 675 q 234 597 302 681 q 144 355 166 514 m 406 937 q 425 976 408 960 q 464 993 441 992 q 503 977 488 994 q 516 937 518 961 q 498 899 515 914 q 458 883 481 884 q 420 898 435 882 q 406 937 405 913 z "},"Ģ":{"ha":928,"x_min":94,"x_max":865,"o":"m 767 117 q 623 19 717 53 q 414 -14 529 -16 q 191 81 276 -12 q 97 328 105 174 q 101 437 94 384 l 118 549 q 268 881 150 757 q 562 1001 387 1004 q 779 920 698 998 q 865 709 861 842 l 783 709 q 721 869 779 812 q 559 930 663 927 q 325 830 420 933 q 201 547 229 727 l 184 441 q 179 350 178 397 q 244 137 181 216 q 416 58 307 59 q 684 143 591 54 l 729 398 l 472 398 l 484 469 l 824 469 l 767 117 m 321 -317 l 275 -280 q 349 -128 335 -208 l 358 -74 l 436 -74 l 428 -125 q 321 -317 410 -242 z "},"ģ":{"ha":754,"x_min":12,"x_max":703,"o":"m 397 748 q 517 717 463 746 q 602 628 571 688 l 627 734 l 703 734 l 579 13 q 521 -150 566 -79 q 405 -258 475 -220 q 247 -293 334 -296 q 115 -258 178 -292 q 12 -164 51 -224 l 62 -117 q 245 -224 132 -222 q 413 -164 345 -227 q 498 9 480 -100 l 515 94 q 280 -14 418 -18 q 120 65 177 -11 q 60 273 62 142 q 100 513 56 395 q 222 691 145 632 q 397 748 299 751 m 144 355 l 140 292 q 179 120 138 180 q 299 56 220 59 q 426 88 367 54 q 528 191 485 123 l 585 533 q 522 637 567 599 q 406 677 477 675 q 234 597 302 681 q 144 355 166 514 m 507 1109 l 559 1074 q 499 943 512 1007 l 484 857 l 404 857 l 418 947 q 507 1109 432 1034 z "},"Ĥ":{"ha":960,"x_min":50,"x_max":933,"o":"m 761 0 l 677 0 l 760 473 l 215 473 l 132 0 l 50 0 l 221 987 l 304 987 l 227 544 l 772 544 l 849 987 l 933 987 l 761 0 m 771 1078 l 770 1070 l 697 1071 l 610 1194 l 478 1072 l 404 1071 l 404 1080 l 587 1253 l 637 1253 l 771 1078 z "},"ĥ":{"ha":746,"x_min":31,"x_max":664,"o":"m 212 610 q 462 747 318 750 q 616 673 568 745 q 650 477 664 602 l 570 0 l 490 0 l 570 479 q 571 553 574 517 q 439 677 559 674 q 307 635 368 679 q 198 503 245 591 l 111 0 l 31 0 l 212 1042 l 292 1042 l 212 610 m 621 1078 l 621 1069 l 547 1070 l 460 1193 l 328 1071 l 254 1070 l 254 1080 l 437 1252 l 487 1252 l 621 1078 z "},"Ĩ":{"ha":366,"x_min":67,"x_max":545,"o":"m 150 0 l 67 0 l 239 987 l 321 987 l 150 0 m 545 1231 q 497 1124 535 1163 q 402 1085 458 1085 q 364 1092 381 1085 q 313 1123 347 1099 q 262 1154 280 1146 q 224 1162 245 1162 q 171 1141 193 1162 q 138 1082 148 1120 l 78 1084 q 126 1189 87 1149 q 222 1228 165 1230 q 269 1217 248 1228 q 312 1190 290 1205 q 355 1163 334 1175 q 401 1152 376 1152 q 488 1234 463 1152 l 545 1231 z "},"ĩ":{"ha":307,"x_min":10,"x_max":477,"o":"m 120 0 l 39 0 l 167 734 l 248 734 l 120 0 m 477 1005 q 429 898 467 937 q 334 859 391 859 q 296 866 313 859 q 245 897 279 873 q 195 928 212 920 q 157 936 177 936 q 103 915 125 936 q 71 856 80 894 l 10 858 q 59 963 20 923 q 154 1002 98 1004 q 201 991 180 1002 q 244 964 222 979 q 287 937 266 949 q 333 926 308 926 q 420 1008 395 926 l 477 1005 z "},"Ī":{"ha":366,"x_min":67,"x_max":523,"o":"m 150 0 l 67 0 l 239 987 l 321 987 l 150 0 m 513 1135 l 103 1135 l 114 1200 l 523 1200 l 513 1135 z "},"ī":{"ha":307,"x_min":35,"x_max":455,"o":"m 120 0 l 39 0 l 167 734 l 248 734 l 120 0 m 445 909 l 35 909 l 46 975 l 455 975 l 445 909 z "},"Ĭ":{"ha":366,"x_min":67,"x_max":511,"o":"m 150 0 l 67 0 l 239 987 l 321 987 l 150 0 m 511 1231 q 445 1101 502 1148 q 306 1056 388 1053 q 178 1105 226 1057 q 134 1231 130 1153 l 202 1230 q 225 1146 199 1177 q 307 1114 252 1115 q 400 1144 365 1113 q 446 1230 435 1175 l 511 1231 z "},"ĭ":{"ha":307,"x_min":39,"x_max":444,"o":"m 120 0 l 39 0 l 167 734 l 248 734 l 120 0 m 444 1005 q 377 875 434 922 q 238 830 320 827 q 110 879 158 831 q 66 1005 62 927 l 134 1004 q 158 920 131 951 q 239 888 184 889 q 332 918 297 887 q 378 1004 368 949 l 444 1005 z "},"Į":{"ha":366,"x_min":-70,"x_max":321,"o":"m 150 0 l 67 0 l 239 987 l 321 987 l 150 0 m 146 1 l 100 -33 q 7 -161 14 -97 q 51 -213 2 -211 q 122 -191 80 -214 l 127 -249 q 34 -277 83 -277 q -43 -247 -16 -277 q -67 -168 -70 -216 q -25 -69 -65 -117 q 105 28 15 -21 l 146 1 z "},"į":{"ha":309,"x_min":-98,"x_max":301,"o":"m 121 0 l 40 0 l 168 734 l 249 734 l 121 0 m 191 946 q 249 1002 194 990 q 287 985 275 997 q 301 946 298 973 q 281 908 294 920 q 243 891 269 897 q 191 946 188 899 m 118 -2 l 72 -35 q -21 -164 -15 -100 q 22 -216 -26 -214 q 94 -194 52 -216 l 98 -252 q 5 -280 54 -280 q -71 -249 -44 -280 q -96 -170 -98 -218 q -54 -72 -94 -120 q 77 26 -14 -24 l 118 -2 z "},"İ":{"ha":366,"x_min":67,"x_max":367,"o":"m 150 0 l 67 0 l 239 987 l 321 987 l 150 0 m 255 1155 q 273 1194 257 1177 q 313 1211 290 1210 q 352 1195 336 1211 q 365 1155 367 1179 q 347 1117 363 1132 q 307 1101 330 1101 q 269 1116 283 1100 q 255 1155 254 1131 z "},"Ĳ":{"ha":1114,"x_min":67,"x_max":1099,"o":"m 150 0 l 67 0 l 239 987 l 321 987 l 150 0 m 1016 987 l 1099 987 l 981 294 q 870 70 961 156 q 644 -14 779 -17 q 450 65 516 -12 q 395 272 383 141 l 478 272 q 513 116 468 173 q 649 56 557 59 q 811 118 743 54 q 897 292 879 182 l 1016 987 z "}}}
